<svg width="481" height="240" viewBox="0 0 481 240" fill="none" xmlns="http://www.w3.org/2000/svg">
<g filter="url(#filter0_i_322_321)">
<path d="M100 0H453C468.464 0 481 12.536 481 28V212C481 227.464 468.464 240 453 240H100V0Z" fill="url(#paint0_linear_322_321)"/>
<path d="M100 240H28C12.536 240 6.44299e-08 227.464 0 212V137.972C0.331049 137.99 0.664424 138 1 138C10.9411 138 19 129.941 19 120C19 110.059 10.9411 102 1 102C0.664442 102 0.331031 102.009 0 102.027V28C1.03088e-06 12.536 12.536 6.44261e-08 28 0H100V240Z" fill="#F96868"/>
<path d="M438.15 40.4H442.5M439.6 37.5V31.99C439.6 31.7203 439.6 31.5854 439.618 31.4738C439.666 31.171 439.808 30.8911 440.025 30.6744C440.242 30.4576 440.521 30.3152 440.824 30.2674C440.934 30.25 441.071 30.25 441.34 30.25H444.675C445.637 30.25 446.559 30.6319 447.239 31.3117C447.918 31.9916 448.3 32.9136 448.3 33.875C448.3 34.8364 447.918 35.7584 447.239 36.4383C446.559 37.1181 445.637 37.5 444.675 37.5H439.6ZM439.6 37.5V44.75M439.6 37.5H438.15" stroke="#413D3D" stroke-width="2" stroke-linecap="round"/>
<path d="M435.25 24.9401C437.453 23.6654 439.955 22.9961 442.5 23C450.508 23 457 29.4917 457 37.5C457 45.5084 450.508 52 442.5 52C434.492 52 428 45.5084 428 37.5C428 34.8596 428.706 32.3815 429.94 30.25" stroke="#413D3D" stroke-width="2" stroke-linecap="round"/>
</g>
<path d="M47.688 187.448C47.96 186.104 48.432 185.088 49.104 184.4C49.76 183.712 50.704 183.368 51.936 183.368H52.032C53.424 183.368 54.48 183.72 55.2 184.424C55.92 185.112 56.4 186.064 56.64 187.28C56.864 188.48 56.992 190.072 57.024 192.056V192.104V193.232L57 204.704H39.24V190.952C39.256 189.096 39.64 187.616 40.392 186.512C41.144 185.408 42.208 184.856 43.584 184.856H43.68C44.72 184.856 45.568 185.072 46.224 185.504C46.88 185.936 47.368 186.584 47.688 187.448ZM44.232 188.84C43.56 188.84 43.08 188.984 42.792 189.272C42.488 189.56 42.304 189.936 42.24 190.4C42.16 190.864 42.12 191.536 42.12 192.416V192.464V200.792H46.344L46.416 194.576V194.816V192.416C46.416 191.52 46.392 190.856 46.344 190.424C46.28 189.976 46.096 189.6 45.792 189.296C45.472 188.992 44.952 188.84 44.232 188.84ZM53.952 191.648C53.952 190.608 53.912 189.832 53.832 189.32C53.752 188.792 53.544 188.376 53.208 188.072C52.856 187.768 52.288 187.616 51.504 187.616C50.752 187.616 50.208 187.768 49.872 188.072C49.536 188.376 49.336 188.792 49.272 189.32C49.192 189.832 49.152 190.608 49.152 191.648V191.672V200.792H53.904C53.904 197.048 53.92 194.36 53.952 192.728V191.648ZM44.712 170.25C44.712 168.73 44.952 167.402 45.432 166.266C45.912 165.13 46.616 164.25 47.544 163.626C48.472 162.986 49.584 162.666 50.88 162.666H50.976C52.16 162.666 53.208 162.986 54.12 163.626C55.032 164.25 55.744 165.138 56.256 166.29C56.752 167.426 57 168.738 57 170.227V181.266H39.24V177.21H44.712V170.298V170.25ZM57 161.49H39.24V157.434H57V161.49ZM54.048 169.77C54.048 168.826 53.776 168.05 53.232 167.442C52.688 166.834 51.88 166.53 50.808 166.53C49.704 166.53 48.912 166.826 48.432 167.418C47.936 168.01 47.688 168.794 47.688 169.77V169.794V177.21H54C54 173.802 54.016 171.554 54.048 170.466V169.77ZM39.24 150.796H52.296L39.24 138.076V134.044H57V138.076H43.92L57 150.796V154.852H39.24V150.796ZM39.24 116.102H42.48V127.406H57V131.462H39.24V116.102ZM39.24 101.472C39.24 99.9843 39.488 98.6723 39.984 97.5363C40.48 96.3843 41.176 95.4963 42.072 94.8723C42.952 94.2323 43.976 93.9123 45.144 93.9123H45.24C47.192 93.9123 48.68 94.4963 49.704 95.6643C50.728 96.8323 51.24 98.5443 51.24 100.8V109.968H57V114.024H39.24V101.472ZM48.072 101.928C48.072 101.016 48.032 100.288 47.952 99.7443C47.856 99.1843 47.608 98.7123 47.208 98.3283C46.792 97.9443 46.152 97.7523 45.288 97.7523C44.376 97.7523 43.712 97.9443 43.296 98.3283C42.864 98.7123 42.6 99.1843 42.504 99.7443C42.408 100.288 42.36 101.016 42.36 101.928V102.864C42.36 103.28 42.368 104 42.384 105.024C42.384 106.048 42.384 107.696 42.384 109.968H48.072V101.952V101.928ZM44.712 80.7896C44.712 79.2696 44.952 77.9416 45.432 76.8056C45.912 75.6696 46.616 74.7896 47.544 74.1656C48.472 73.5256 49.584 73.2056 50.88 73.2056H50.976C52.16 73.2056 53.208 73.5256 54.12 74.1656C55.032 74.7896 55.744 75.6776 56.256 76.8296C56.752 77.9656 57 79.2776 57 80.7656V91.8056H39.24V87.7496H44.712V80.8376V80.7896ZM57 72.0296H39.24V67.9736H57V72.0296ZM54.048 80.3096C54.048 79.3656 53.776 78.5896 53.232 77.9816C52.688 77.3736 51.88 77.0696 50.808 77.0696C49.704 77.0696 48.912 77.3656 48.432 77.9576C47.936 78.5496 47.688 79.3336 47.688 80.3096V80.3336V87.7496H54C54 84.3416 54.016 82.0936 54.048 81.0056V80.3096ZM39.24 65.3915V61.3355V65.3915ZM53.568 48.6875V40.0235H39.24V35.9675H57V65.3915H39.24V61.3355H53.568V52.7195H39.24V48.6875H53.568Z" fill="white"/>
<path d="M122.219 42.2947C121.236 42.2947 120.382 42.1506 119.655 41.8625C118.928 41.5743 118.319 41.2009 117.827 40.7425C117.343 40.2774 116.973 39.7829 116.717 39.2589L118.505 38.0996C118.662 38.4861 118.898 38.8496 119.213 39.1902C119.534 39.5308 119.946 39.8091 120.451 40.0253C120.961 40.2349 121.58 40.3396 122.307 40.3396C123.034 40.3396 123.634 40.2316 124.105 40.0154C124.577 39.7927 124.927 39.498 125.156 39.1312C125.392 38.7579 125.51 38.3387 125.51 37.8737C125.51 37.3301 125.366 36.9109 125.078 36.6161C124.796 36.3149 124.42 36.1053 123.948 35.9874C123.476 35.8629 122.966 35.7909 122.415 35.7712C121.957 35.7581 121.626 35.7483 121.423 35.7418C121.22 35.7287 121.083 35.7221 121.011 35.7221C120.945 35.7221 120.883 35.7221 120.824 35.7221V33.7768C120.896 33.7768 121.02 33.7768 121.197 33.7768C121.381 33.7768 121.571 33.7768 121.767 33.7768C121.964 33.7703 122.124 33.7637 122.248 33.7572C123.061 33.7179 123.716 33.5181 124.213 33.1579C124.718 32.7977 124.97 32.2868 124.97 31.6253C124.97 30.9637 124.724 30.443 124.233 30.0632C123.748 29.6833 123.11 29.4933 122.317 29.4933C121.564 29.4933 120.916 29.6669 120.372 30.014C119.828 30.3546 119.409 30.7771 119.114 31.2814L117.601 29.8568C118.073 29.2019 118.718 28.655 119.537 28.2161C120.356 27.7773 121.302 27.5579 122.376 27.5579C122.985 27.5579 123.575 27.6398 124.145 27.8035C124.714 27.9607 125.225 28.203 125.677 28.5305C126.129 28.858 126.486 29.2739 126.748 29.7782C127.017 30.276 127.151 30.8688 127.151 31.5565C127.151 32.2442 127.01 32.8664 126.728 33.4232C126.453 33.9799 126.083 34.422 125.618 34.7495C126.267 34.9918 126.774 35.375 127.141 35.8989C127.508 36.4164 127.691 37.0779 127.691 37.8835C127.691 38.7874 127.452 39.5701 126.974 40.2316C126.502 40.8865 125.854 41.3942 125.029 41.7544C124.21 42.1146 123.273 42.2947 122.219 42.2947ZM132.787 42.2947C132.001 42.2947 131.343 42.1506 130.812 41.8625C130.282 41.5677 129.879 41.1813 129.604 40.7032C129.335 40.2185 129.201 39.688 129.201 39.1116C129.201 38.5745 129.296 38.1029 129.486 37.6968C129.676 37.2908 129.957 36.9469 130.331 36.6653C130.704 36.3771 131.163 36.1446 131.706 35.9677C132.178 35.8302 132.712 35.709 133.308 35.6042C133.904 35.4994 134.529 35.4012 135.184 35.3095C135.846 35.2178 136.501 35.1261 137.149 35.0344L136.402 35.447C136.415 34.6152 136.239 33.9995 135.872 33.6C135.512 33.1939 134.889 32.9909 134.005 32.9909C133.448 32.9909 132.938 33.1219 132.473 33.3839C132.008 33.6393 131.683 34.065 131.5 34.6611L129.584 34.0716C129.846 33.1612 130.344 32.4374 131.077 31.9004C131.818 31.3633 132.8 31.0947 134.025 31.0947C134.975 31.0947 135.8 31.2585 136.501 31.586C137.208 31.9069 137.725 32.4178 138.053 33.1186C138.223 33.4657 138.328 33.8325 138.367 34.2189C138.407 34.6054 138.426 35.0213 138.426 35.4667V42H136.609V39.5733L136.962 39.8877C136.524 40.6999 135.964 41.3057 135.282 41.7053C134.608 42.0982 133.776 42.2947 132.787 42.2947ZM133.15 40.6147C133.733 40.6147 134.234 40.5132 134.654 40.3102C135.073 40.1006 135.41 39.8353 135.666 39.5144C135.921 39.1935 136.088 38.8594 136.167 38.5123C136.278 38.1979 136.34 37.8442 136.353 37.4512C136.373 37.0582 136.383 36.7439 136.383 36.5081L137.051 36.7537C136.402 36.8519 135.813 36.9404 135.282 37.0189C134.752 37.0975 134.27 37.1761 133.838 37.2547C133.412 37.3268 133.033 37.4152 132.699 37.52C132.417 37.6182 132.165 37.7361 131.942 37.8737C131.726 38.0112 131.552 38.1782 131.421 38.3747C131.297 38.5712 131.235 38.8103 131.235 39.0919C131.235 39.367 131.303 39.6225 131.441 39.8582C131.579 40.0875 131.788 40.2709 132.07 40.4084C132.351 40.546 132.712 40.6147 133.15 40.6147ZM147.255 42V38.306C146.895 38.4894 146.473 38.64 145.988 38.7579C145.503 38.8692 144.992 38.9249 144.455 38.9249C143.368 38.9249 142.494 38.6826 141.832 38.1979C141.177 37.7067 140.751 36.9993 140.555 36.0758C140.503 35.8007 140.463 35.5191 140.437 35.2309C140.411 34.9361 140.394 34.6676 140.388 34.4253C140.388 34.1829 140.388 34.0028 140.388 33.8849V31.3895H142.471V33.8849C142.471 34.0552 142.477 34.2812 142.49 34.5628C142.503 34.8379 142.54 35.1064 142.598 35.3684C142.723 35.9579 142.972 36.3967 143.345 36.6849C143.718 36.9665 144.246 37.1074 144.927 37.1074C145.418 37.1074 145.86 37.0451 146.253 36.9207C146.653 36.7897 146.987 36.6227 147.255 36.4196V31.3895H149.328V42H147.255ZM161.028 31.3895V42H159.053V34.6218L153.748 42H152.078V31.3895H154.053V38.6204L159.368 31.3895H161.028ZM168.312 42.2947C167.225 42.2947 166.302 42.0524 165.542 41.5677C164.782 41.083 164.199 40.4182 163.793 39.5733C163.394 38.7284 163.191 37.7689 163.184 36.6947C163.191 35.6009 163.4 34.6349 163.813 33.7965C164.225 32.9516 164.815 32.2901 165.581 31.8119C166.347 31.3338 167.268 31.0947 168.342 31.0947C169.501 31.0947 170.49 31.3829 171.309 31.9593C172.134 32.5357 172.678 33.3249 172.94 34.327L170.896 34.9165C170.693 34.3205 170.359 33.8587 169.894 33.5312C169.436 33.1972 168.908 33.0302 168.312 33.0302C167.638 33.0302 167.084 33.1906 166.652 33.5116C166.22 33.826 165.899 34.2582 165.689 34.8084C165.48 35.3586 165.372 35.9874 165.365 36.6947C165.372 37.7885 165.62 38.6727 166.112 39.3474C166.609 40.022 167.343 40.3593 168.312 40.3593C168.974 40.3593 169.508 40.2087 169.914 39.9074C170.326 39.5995 170.641 39.1607 170.857 38.5909L172.94 39.0821C172.593 40.117 172.02 40.9127 171.22 41.4695C170.421 42.0196 169.452 42.2947 168.312 42.2947ZM173.671 42V40.2611C174.064 40.3331 174.362 40.3233 174.565 40.2316C174.775 40.1333 174.928 39.9565 175.027 39.7011C175.132 39.4456 175.22 39.1149 175.292 38.7088C175.403 38.1127 175.498 37.4349 175.577 36.6751C175.662 35.9088 175.737 35.0802 175.803 34.1895C175.868 33.2987 175.927 32.3654 175.98 31.3895H183.604V42H181.54V33.3249H177.827C177.787 33.8423 177.742 34.3925 177.689 34.9754C177.643 35.5518 177.591 36.1249 177.532 36.6947C177.473 37.2646 177.411 37.7984 177.345 38.2961C177.28 38.7939 177.211 39.2196 177.139 39.5733C177.008 40.2807 176.815 40.844 176.559 41.2632C176.31 41.6758 175.957 41.9411 175.498 42.0589C175.04 42.1834 174.431 42.1637 173.671 42ZM191.064 42.2947C190.01 42.2947 189.083 42.0655 188.284 41.607C187.492 41.142 186.873 40.4968 186.427 39.6716C185.988 38.8398 185.769 37.877 185.769 36.7832C185.769 35.6239 185.985 34.6185 186.417 33.767C186.856 32.9156 187.465 32.2573 188.245 31.7923C189.024 31.3273 189.931 31.0947 190.966 31.0947C192.047 31.0947 192.967 31.3469 193.727 31.8512C194.487 32.349 195.053 33.0596 195.427 33.9832C195.806 34.9067 195.957 36.0037 195.878 37.2744H193.825V36.5277C193.812 35.2964 193.576 34.386 193.118 33.7965C192.666 33.207 191.975 32.9123 191.045 32.9123C190.016 32.9123 189.244 33.2365 188.726 33.8849C188.209 34.5333 187.95 35.4699 187.95 36.6947C187.95 37.8606 188.209 38.7644 188.726 39.4063C189.244 40.0416 189.99 40.3593 190.966 40.3593C191.608 40.3593 192.161 40.2152 192.627 39.927C193.098 39.6323 193.465 39.2131 193.727 38.6695L195.741 39.3081C195.328 40.2578 194.703 40.9946 193.864 41.5186C193.026 42.036 192.093 42.2947 191.064 42.2947ZM187.282 37.2744V35.673H194.857V37.2744H187.282ZM198.073 42V31.3895H200.126V35.7221H205.304V31.3895H207.357V42H205.304V37.6575H200.126V42H198.073ZM219.054 31.3895V42H217.08V34.6218L211.774 42H210.104V31.3895H212.079V38.6204L217.394 31.3895H219.054ZM226.506 42.2947C225.451 42.2947 224.524 42.0655 223.725 41.607C222.933 41.142 222.314 40.4968 221.869 39.6716C221.43 38.8398 221.21 37.877 221.21 36.7832C221.21 35.6239 221.426 34.6185 221.859 33.767C222.298 32.9156 222.907 32.2573 223.686 31.7923C224.466 31.3273 225.373 31.0947 226.407 31.0947C227.488 31.0947 228.408 31.3469 229.168 31.8512C229.928 32.349 230.495 33.0596 230.868 33.9832C231.248 34.9067 231.398 36.0037 231.32 37.2744H229.266V36.5277C229.253 35.2964 229.018 34.386 228.559 33.7965C228.107 33.207 227.416 32.9123 226.486 32.9123C225.458 32.9123 224.685 33.2365 224.167 33.8849C223.65 34.5333 223.391 35.4699 223.391 36.6947C223.391 37.8606 223.65 38.7644 224.167 39.4063C224.685 40.0416 225.432 40.3593 226.407 40.3593C227.049 40.3593 227.603 40.2152 228.068 39.927C228.539 39.6323 228.906 39.2131 229.168 38.6695L231.182 39.3081C230.77 40.2578 230.144 40.9946 229.306 41.5186C228.467 42.036 227.534 42.2947 226.506 42.2947ZM222.723 37.2744V35.673H230.298V37.2744H222.723ZM239.924 42V30.1123L237.261 31.7333V29.4442L239.924 27.8526H242.016V42H239.924ZM249.942 42.2947C249.215 42.2947 248.537 42.1474 247.909 41.8526C247.286 41.5513 246.753 41.1387 246.307 40.6147C245.862 40.0842 245.544 39.4751 245.354 38.7874L247.329 38.2568C247.44 38.676 247.63 39.0395 247.899 39.3474C248.174 39.6552 248.495 39.8943 248.862 40.0646C249.228 40.2283 249.608 40.3102 250.001 40.3102C250.519 40.3102 250.987 40.1857 251.406 39.9368C251.832 39.688 252.166 39.3539 252.408 38.9347C252.657 38.5156 252.782 38.0538 252.782 37.5495C252.782 37.032 252.654 36.5637 252.398 36.1446C252.149 35.7254 251.812 35.3946 251.386 35.1523C250.967 34.9034 250.506 34.7789 250.001 34.7789C249.425 34.7789 248.937 34.8936 248.537 35.1228C248.138 35.352 247.827 35.6173 247.604 35.9186L245.816 35.2898L246.248 27.8526H253.882V29.7881H247.299L248.135 29.0119L247.791 34.5825L247.388 34.0618C247.761 33.6884 248.207 33.4035 248.724 33.207C249.241 33.0105 249.756 32.9123 250.266 32.9123C251.144 32.9123 251.927 33.1153 252.615 33.5214C253.309 33.9275 253.856 34.4809 254.255 35.1818C254.655 35.876 254.855 36.6653 254.855 37.5495C254.855 38.4271 254.629 39.2262 254.177 39.9467C253.725 40.6606 253.125 41.2304 252.379 41.6561C251.632 42.0819 250.82 42.2947 249.942 42.2947ZM257.203 36.7439V34.9656H263.893C263.998 34.9656 264.126 34.9623 264.276 34.9558C264.434 34.9427 264.601 34.9099 264.777 34.8575C265.38 34.7069 265.819 34.4089 266.094 33.9635C266.376 33.5181 266.516 33.004 266.516 32.4211C266.516 32.0608 266.457 31.7071 266.34 31.36C266.228 31.0063 266.045 30.6985 265.789 30.4365C265.541 30.168 265.203 29.9846 264.777 29.8863C264.614 29.8405 264.447 29.8143 264.276 29.8077C264.106 29.7946 263.978 29.7881 263.893 29.7881H260.042V27.8526H263.972C264.05 27.8526 264.188 27.8559 264.384 27.8625C264.588 27.869 264.81 27.8919 265.053 27.9312C265.845 28.0557 266.503 28.3242 267.027 28.7368C267.558 29.1495 267.954 29.6702 268.216 30.2989C268.478 30.9212 268.609 31.6122 268.609 32.3719C268.609 33.5181 268.311 34.4777 267.715 35.2505C267.119 36.0168 266.232 36.4884 265.053 36.6653C264.81 36.7046 264.588 36.7275 264.384 36.734C264.188 36.7406 264.05 36.7439 263.972 36.7439H257.203ZM257.203 39.9172V38.2667H265.328V39.9172H257.203ZM258.647 42V27.8526H260.7V42H258.647ZM274.501 42V31.3895H276.554V35.7221H281.732V31.3895H283.785V42H281.732V37.6575H276.554V42H274.501ZM289.539 42.2947C288.753 42.2947 288.094 42.1506 287.564 41.8625C287.033 41.5677 286.631 41.1813 286.355 40.7032C286.087 40.2185 285.953 39.688 285.953 39.1116C285.953 38.5745 286.048 38.1029 286.238 37.6968C286.427 37.2908 286.709 36.9469 287.082 36.6653C287.456 36.3771 287.914 36.1446 288.458 35.9677C288.929 35.8302 289.463 35.709 290.059 35.6042C290.655 35.4994 291.281 35.4012 291.936 35.3095C292.597 35.2178 293.252 35.1261 293.901 35.0344L293.154 35.447C293.167 34.6152 292.99 33.9995 292.623 33.6C292.263 33.1939 291.641 32.9909 290.757 32.9909C290.2 32.9909 289.689 33.1219 289.224 33.3839C288.759 33.6393 288.435 34.065 288.252 34.6611L286.336 34.0716C286.598 33.1612 287.096 32.4374 287.829 31.9004C288.569 31.3633 289.552 31.0947 290.776 31.0947C291.726 31.0947 292.551 31.2585 293.252 31.586C293.96 31.9069 294.477 32.4178 294.805 33.1186C294.975 33.4657 295.08 33.8325 295.119 34.2189C295.158 34.6054 295.178 35.0213 295.178 35.4667V42H293.36V39.5733L293.714 39.8877C293.275 40.6999 292.715 41.3057 292.034 41.7053C291.359 42.0982 290.528 42.2947 289.539 42.2947ZM289.902 40.6147C290.485 40.6147 290.986 40.5132 291.405 40.3102C291.824 40.1006 292.162 39.8353 292.417 39.5144C292.673 39.1935 292.84 38.8594 292.918 38.5123C293.03 38.1979 293.092 37.8442 293.105 37.4512C293.125 37.0582 293.134 36.7439 293.134 36.5081L293.802 36.7537C293.154 36.8519 292.565 36.9404 292.034 37.0189C291.503 37.0975 291.022 37.1761 290.59 37.2547C290.164 37.3268 289.784 37.4152 289.45 37.52C289.169 37.6182 288.916 37.7361 288.694 37.8737C288.478 38.0112 288.304 38.1782 288.173 38.3747C288.049 38.5712 287.986 38.8103 287.986 39.0919C287.986 39.367 288.055 39.6225 288.193 39.8582C288.33 40.0875 288.54 40.2709 288.821 40.4084C289.103 40.546 289.463 40.6147 289.902 40.6147ZM306.025 42.3046C305.016 42.298 304.158 42.0786 303.451 41.6463C302.743 41.214 302.19 40.5918 301.79 39.7796C301.397 38.9609 301.168 37.9752 301.103 36.8225C301.07 36.2657 301.073 35.6501 301.113 34.9754C301.152 34.2943 301.224 33.636 301.329 33.0007C301.44 32.3654 301.581 31.8349 301.751 31.4091C301.941 30.9375 302.2 30.5053 302.527 30.1123C302.855 29.7127 303.215 29.3787 303.608 29.1102C304.027 28.822 304.492 28.5993 305.003 28.4421C305.514 28.2784 306.048 28.1506 306.604 28.0589C307.168 27.9673 307.734 27.8887 308.304 27.8232C308.88 27.7511 309.44 27.6627 309.984 27.5579L310.181 29.3951C309.82 29.4802 309.395 29.549 308.903 29.6014C308.419 29.6538 307.914 29.7127 307.39 29.7782C306.873 29.8437 306.379 29.9354 305.907 30.0533C305.435 30.1712 305.026 30.3382 304.679 30.5544C304.188 30.8557 303.811 31.2945 303.549 31.8709C303.294 32.4473 303.14 33.0727 303.087 33.7474C303.493 33.1317 304.011 32.6896 304.64 32.4211C305.268 32.146 305.92 32.0084 306.595 32.0084C307.538 32.0084 308.35 32.2311 309.031 32.6765C309.719 33.1219 310.246 33.7277 310.613 34.494C310.98 35.2604 311.163 36.1282 311.163 37.0975C311.163 38.1455 310.947 39.0625 310.515 39.8484C310.089 40.6278 309.49 41.237 308.717 41.6758C307.944 42.1081 307.047 42.3177 306.025 42.3046ZM306.133 40.3691C307.076 40.3691 307.787 40.0777 308.265 39.4947C308.749 38.9118 308.992 38.1357 308.992 37.1663C308.992 36.1708 308.743 35.3881 308.245 34.8182C307.747 34.2484 307.043 33.9635 306.133 33.9635C305.209 33.9635 304.502 34.2484 304.011 34.8182C303.526 35.3881 303.284 36.1708 303.284 37.1663C303.284 38.175 303.529 38.9609 304.021 39.5242C304.512 40.0875 305.216 40.3691 306.133 40.3691ZM316.326 42.2947C315.54 42.2947 314.882 42.1506 314.351 41.8625C313.821 41.5677 313.418 41.1813 313.143 40.7032C312.874 40.2185 312.74 39.688 312.74 39.1116C312.74 38.5745 312.835 38.1029 313.025 37.6968C313.215 37.2908 313.496 36.9469 313.87 36.6653C314.243 36.3771 314.702 36.1446 315.245 35.9677C315.717 35.8302 316.251 35.709 316.847 35.6042C317.443 35.4994 318.068 35.4012 318.723 35.3095C319.385 35.2178 320.04 35.1261 320.688 35.0344L319.941 35.447C319.954 34.6152 319.778 33.9995 319.411 33.6C319.051 33.1939 318.428 32.9909 317.544 32.9909C316.987 32.9909 316.477 33.1219 316.011 33.3839C315.546 33.6393 315.222 34.065 315.039 34.6611L313.123 34.0716C313.385 33.1612 313.883 32.4374 314.616 31.9004C315.357 31.3633 316.339 31.0947 317.564 31.0947C318.513 31.0947 319.339 31.2585 320.04 31.586C320.747 31.9069 321.264 32.4178 321.592 33.1186C321.762 33.4657 321.867 33.8325 321.906 34.2189C321.946 34.6054 321.965 35.0213 321.965 35.4667V42H320.148V39.5733L320.501 39.8877C320.062 40.6999 319.502 41.3057 318.821 41.7053C318.147 42.0982 317.315 42.2947 316.326 42.2947ZM316.689 40.6147C317.272 40.6147 317.773 40.5132 318.193 40.3102C318.612 40.1006 318.949 39.8353 319.204 39.5144C319.46 39.1935 319.627 38.8594 319.706 38.5123C319.817 38.1979 319.879 37.8442 319.892 37.4512C319.912 37.0582 319.922 36.7439 319.922 36.5081L320.59 36.7537C319.941 36.8519 319.352 36.9404 318.821 37.0189C318.291 37.0975 317.809 37.1761 317.377 37.2547C316.951 37.3268 316.571 37.4152 316.237 37.52C315.956 37.6182 315.704 37.7361 315.481 37.8737C315.265 38.0112 315.091 38.1782 314.96 38.3747C314.836 38.5712 314.774 38.8103 314.774 39.0919C314.774 39.367 314.842 39.6225 314.98 39.8582C315.117 40.0875 315.327 40.2709 315.609 40.4084C315.89 40.546 316.251 40.6147 316.689 40.6147ZM323.534 42V40.2611C323.927 40.3331 324.225 40.3233 324.428 40.2316C324.638 40.1333 324.791 39.9565 324.89 39.7011C324.994 39.4456 325.083 39.1149 325.155 38.7088C325.266 38.1127 325.361 37.4349 325.44 36.6751C325.525 35.9088 325.6 35.0802 325.666 34.1895C325.731 33.2987 325.79 32.3654 325.843 31.3895H333.467V42H331.403V33.3249H327.69C327.65 33.8423 327.605 34.3925 327.552 34.9754C327.506 35.5518 327.454 36.1249 327.395 36.6947C327.336 37.2646 327.274 37.7984 327.208 38.2961C327.143 38.7939 327.074 39.2196 327.002 39.5733C326.871 40.2807 326.678 40.844 326.422 41.2632C326.173 41.6758 325.82 41.9411 325.361 42.0589C324.903 42.1834 324.294 42.1637 323.534 42ZM339.218 42.2947C338.432 42.2947 337.774 42.1506 337.243 41.8625C336.713 41.5677 336.31 41.1813 336.035 40.7032C335.766 40.2185 335.632 39.688 335.632 39.1116C335.632 38.5745 335.727 38.1029 335.917 37.6968C336.107 37.2908 336.388 36.9469 336.762 36.6653C337.135 36.3771 337.594 36.1446 338.137 35.9677C338.609 35.8302 339.143 35.709 339.739 35.6042C340.335 35.4994 340.96 35.4012 341.615 35.3095C342.277 35.2178 342.932 35.1261 343.58 35.0344L342.833 35.447C342.846 34.6152 342.67 33.9995 342.303 33.6C341.943 33.1939 341.32 32.9909 340.436 32.9909C339.879 32.9909 339.369 33.1219 338.903 33.3839C338.438 33.6393 338.114 34.065 337.931 34.6611L336.015 34.0716C336.277 33.1612 336.775 32.4374 337.508 31.9004C338.249 31.3633 339.231 31.0947 340.456 31.0947C341.405 31.0947 342.231 31.2585 342.932 31.586C343.639 31.9069 344.156 32.4178 344.484 33.1186C344.654 33.4657 344.759 33.8325 344.798 34.2189C344.838 34.6054 344.857 35.0213 344.857 35.4667V42H343.04V39.5733L343.393 39.8877C342.954 40.6999 342.394 41.3057 341.713 41.7053C341.039 42.0982 340.207 42.2947 339.218 42.2947ZM339.581 40.6147C340.164 40.6147 340.665 40.5132 341.085 40.3102C341.504 40.1006 341.841 39.8353 342.096 39.5144C342.352 39.1935 342.519 38.8594 342.598 38.5123C342.709 38.1979 342.771 37.8442 342.784 37.4512C342.804 37.0582 342.814 36.7439 342.814 36.5081L343.482 36.7537C342.833 36.8519 342.244 36.9404 341.713 37.0189C341.183 37.0975 340.701 37.1761 340.269 37.2547C339.843 37.3268 339.463 37.4152 339.129 37.52C338.848 37.6182 338.596 37.7361 338.373 37.8737C338.157 38.0112 337.983 38.1782 337.852 38.3747C337.728 38.5712 337.666 38.8103 337.666 39.0919C337.666 39.367 337.734 39.6225 337.872 39.8582C338.009 40.0875 338.219 40.2709 338.501 40.4084C338.782 40.546 339.143 40.6147 339.581 40.6147ZM347.399 42V31.3895H349.452V35.7221H354.629V31.3895H356.683V42H354.629V37.6575H349.452V42H347.399ZM363.979 42.2947C362.891 42.2947 361.968 42.0524 361.208 41.5677C360.448 41.083 359.865 40.4182 359.459 39.5733C359.06 38.7284 358.857 37.7689 358.85 36.6947C358.857 35.6009 359.066 34.6349 359.479 33.7965C359.892 32.9516 360.481 32.2901 361.247 31.8119C362.014 31.3338 362.934 31.0947 364.008 31.0947C365.167 31.0947 366.156 31.3829 366.975 31.9593C367.8 32.5357 368.344 33.3249 368.606 34.327L366.562 34.9165C366.359 34.3205 366.025 33.8587 365.56 33.5312C365.102 33.1972 364.575 33.0302 363.979 33.0302C363.304 33.0302 362.75 33.1906 362.318 33.5116C361.886 33.826 361.565 34.2582 361.355 34.8084C361.146 35.3586 361.038 35.9874 361.031 36.6947C361.038 37.7885 361.287 38.6727 361.778 39.3474C362.276 40.022 363.009 40.3593 363.979 40.3593C364.64 40.3593 365.174 40.2087 365.58 39.9074C365.993 39.5995 366.307 39.1607 366.523 38.5909L368.606 39.0821C368.259 40.117 367.686 40.9127 366.887 41.4695C366.088 42.0196 365.118 42.2947 363.979 42.2947Z" fill="#5B5760"/>
<path d="M117.768 79V60.8105H124.981C126.211 60.8105 127.217 61.0589 128 61.5558C128.792 62.0442 129.377 62.6716 129.756 63.4379C130.143 64.2042 130.337 64.9958 130.337 65.8126C130.337 66.8147 130.097 67.6653 129.617 68.3642C129.145 69.0632 128.501 69.5347 127.684 69.7789V69.1474C128.829 69.4084 129.697 69.9516 130.286 70.7768C130.884 71.6021 131.183 72.5411 131.183 73.5937C131.183 74.6716 130.977 75.6147 130.564 76.4232C130.152 77.2316 129.537 77.8632 128.72 78.3179C127.912 78.7726 126.909 79 125.714 79H117.768ZM120.851 76.1326H125.335C125.865 76.1326 126.341 76.0274 126.762 75.8168C127.183 75.5979 127.512 75.2947 127.747 74.9074C127.992 74.5116 128.114 74.0442 128.114 73.5053C128.114 73.0168 128.008 72.5789 127.798 72.1916C127.587 71.8042 127.28 71.4968 126.876 71.2695C126.472 71.0337 125.987 70.9158 125.423 70.9158H120.851V76.1326ZM120.851 68.0737H124.943C125.381 68.0737 125.773 67.9895 126.118 67.8211C126.463 67.6526 126.737 67.4042 126.939 67.0758C127.141 66.7474 127.242 66.3432 127.242 65.8632C127.242 65.2316 127.04 64.7053 126.636 64.2842C126.232 63.8632 125.667 63.6526 124.943 63.6526H120.851V68.0737ZM133.681 79V60.8105H136.725V67.1642H141.196C141.365 67.1642 141.592 67.1726 141.879 67.1895C142.165 67.1979 142.426 67.2232 142.662 67.2653C143.706 67.4253 144.569 67.7747 145.251 68.3137C145.942 68.8526 146.451 69.5347 146.78 70.36C147.116 71.1768 147.285 72.0821 147.285 73.0758C147.285 74.0779 147.116 74.9916 146.78 75.8168C146.451 76.6337 145.942 77.3116 145.251 77.8505C144.569 78.3895 143.706 78.7389 142.662 78.8989C142.426 78.9326 142.165 78.9579 141.879 78.9747C141.601 78.9916 141.373 79 141.196 79H133.681ZM136.725 76.1453H141.07C141.247 76.1453 141.436 76.1368 141.639 76.12C141.849 76.1032 142.047 76.0737 142.232 76.0316C142.729 75.9053 143.121 75.6821 143.407 75.3621C143.702 75.0421 143.908 74.68 144.026 74.2758C144.152 73.8632 144.215 73.4632 144.215 73.0758C144.215 72.6884 144.152 72.2926 144.026 71.8884C143.908 71.4842 143.702 71.1221 143.407 70.8021C143.121 70.4821 142.729 70.2589 142.232 70.1326C142.047 70.0821 141.849 70.0484 141.639 70.0316C141.436 70.0147 141.247 70.0063 141.07 70.0063H136.725V76.1453ZM149.104 79V60.8105H152.148V79H149.104ZM170.265 79H167.183V66.1789L158.745 79H155.663V60.8105H158.745V73.6316L167.183 60.8105H170.265V79ZM173.796 79V60.8105H185.544V63.6653H176.841V79H173.796ZM187.563 79V60.8105H195.079C195.255 60.8105 195.483 60.8189 195.761 60.8358C196.039 60.8442 196.295 60.8695 196.531 60.9116C197.584 61.0716 198.451 61.4211 199.133 61.96C199.824 62.4989 200.333 63.1811 200.662 64.0063C200.999 64.8232 201.167 65.7326 201.167 66.7347C201.167 67.7284 200.999 68.6379 200.662 69.4632C200.325 70.28 199.811 70.9579 199.121 71.4968C198.439 72.0358 197.575 72.3853 196.531 72.5453C196.295 72.5789 196.034 72.6042 195.748 72.6211C195.47 72.6379 195.247 72.6463 195.079 72.6463H190.607V79H187.563ZM190.607 69.8042H194.952C195.121 69.8042 195.31 69.7958 195.521 69.7789C195.731 69.7621 195.925 69.7284 196.102 69.6779C196.607 69.5516 197.003 69.3284 197.289 69.0084C197.584 68.6884 197.79 68.3263 197.908 67.9221C198.034 67.5179 198.098 67.1221 198.098 66.7347C198.098 66.3474 198.034 65.9516 197.908 65.5474C197.79 65.1347 197.584 64.7684 197.289 64.4484C197.003 64.1284 196.607 63.9053 196.102 63.7789C195.925 63.7284 195.731 63.6989 195.521 63.6905C195.31 63.6737 195.121 63.6653 194.952 63.6653H190.607V69.8042ZM203.672 79V60.8105H206.717V67.1642H211.188C211.357 67.1642 211.584 67.1726 211.87 67.1895C212.157 67.1979 212.418 67.2232 212.653 67.2653C213.698 67.4253 214.561 67.7747 215.243 68.3137C215.933 68.8526 216.443 69.5347 216.771 70.36C217.108 71.1768 217.277 72.0821 217.277 73.0758C217.277 74.0779 217.108 74.9916 216.771 75.8168C216.443 76.6337 215.933 77.3116 215.243 77.8505C214.561 78.3895 213.698 78.7389 212.653 78.8989C212.418 78.9326 212.157 78.9579 211.87 78.9747C211.592 78.9916 211.365 79 211.188 79H203.672ZM206.717 76.1453H211.062C211.239 76.1453 211.428 76.1368 211.63 76.12C211.841 76.1032 212.039 76.0737 212.224 76.0316C212.721 75.9053 213.112 75.6821 213.399 75.3621C213.693 75.0421 213.9 74.68 214.018 74.2758C214.144 73.8632 214.207 73.4632 214.207 73.0758C214.207 72.6884 214.144 72.2926 214.018 71.8884C213.9 71.4842 213.693 71.1221 213.399 70.8021C213.112 70.4821 212.721 70.2589 212.224 70.1326C212.039 70.0821 211.841 70.0484 211.63 70.0316C211.428 70.0147 211.239 70.0063 211.062 70.0063H206.717V76.1453ZM219.096 79V60.8105H222.14V79H219.096ZM225.655 79V60.8105H228.699V76.1453H234.32V60.8105H237.364V76.1453H242.998V60.8105H246.03V79H225.655ZM257.777 79V64.1326L254.366 66.2168V62.8568L257.777 60.8105H260.884V79H257.777ZM271.09 79.3789C270.163 79.3789 269.3 79.1895 268.5 78.8105C267.7 78.4232 267.01 77.8926 266.429 77.2189C265.856 76.5453 265.443 75.7621 265.191 74.8695L268.121 74.0863C268.239 74.5747 268.454 74.9958 268.766 75.3495C269.086 75.7032 269.456 75.9768 269.877 76.1705C270.307 76.3642 270.749 76.4611 271.203 76.4611C271.793 76.4611 272.332 76.3179 272.82 76.0316C273.309 75.7453 273.696 75.3621 273.982 74.8821C274.269 74.3937 274.412 73.8547 274.412 73.2653C274.412 72.6758 274.264 72.1411 273.97 71.6611C273.683 71.1726 273.296 70.7895 272.808 70.5116C272.319 70.2253 271.784 70.0821 271.203 70.0821C270.504 70.0821 269.923 70.2084 269.46 70.4611C269.006 70.7137 268.656 70.9832 268.412 71.2695L265.81 70.4358L266.366 60.8105H276.243V63.6653H267.995L269.132 62.5916L268.728 69.2863L268.172 68.6042C268.643 68.1747 269.191 67.8547 269.814 67.6442C270.437 67.4337 271.039 67.3284 271.62 67.3284C272.757 67.3284 273.763 67.5895 274.639 68.1116C275.523 68.6253 276.214 69.3284 276.711 70.2211C277.216 71.1137 277.469 72.1284 277.469 73.2653C277.469 74.4021 277.174 75.4337 276.584 76.36C275.995 77.2779 275.216 78.0105 274.248 78.5579C273.288 79.1053 272.235 79.3789 271.09 79.3789ZM280.499 72.3811V69.7789H289.063C289.198 69.7789 289.362 69.7747 289.556 69.7663C289.758 69.7495 289.981 69.7074 290.225 69.64C290.924 69.4463 291.429 69.0968 291.741 68.5916C292.052 68.0779 292.208 67.48 292.208 66.7979C292.208 66.3853 292.145 65.9726 292.019 65.56C291.901 65.1389 291.694 64.7684 291.4 64.4484C291.113 64.1284 290.722 63.9053 290.225 63.7789C290.006 63.72 289.783 63.6863 289.556 63.6779C289.337 63.6695 289.172 63.6653 289.063 63.6653H284.301V60.8105H289.189C289.282 60.8105 289.463 60.8147 289.732 60.8232C290.01 60.8316 290.318 60.8611 290.654 60.9116C291.699 61.0716 292.562 61.4211 293.244 61.96C293.934 62.4989 294.444 63.1811 294.772 64.0063C295.109 64.8232 295.278 65.7242 295.278 66.7095C295.278 68.2168 294.894 69.4632 294.128 70.4484C293.362 71.4337 292.204 72.0442 290.654 72.28C290.318 72.3221 290.01 72.3516 289.732 72.3684C289.463 72.3768 289.282 72.3811 289.189 72.3811H280.499ZM280.499 76.5242V74.1368H291.273V76.5242H280.499ZM282.305 79V60.8105H285.349V79H282.305Z" fill="#232027"/>
<path d="M122.164 110.253C120.957 110.253 119.933 109.986 119.091 109.453C118.248 108.919 117.606 108.178 117.162 107.229C116.724 106.281 116.505 105.183 116.505 103.937C116.505 102.691 116.724 101.593 117.162 100.644C117.606 99.6954 118.248 98.9544 119.091 98.4211C119.933 97.8877 120.957 97.6211 122.164 97.6211C123.568 97.6211 124.721 97.9775 125.625 98.6905C126.535 99.4035 127.161 100.364 127.503 101.571L125.979 101.975C125.732 101.071 125.291 100.358 124.657 99.8358C124.022 99.3137 123.192 99.0526 122.164 99.0526C121.26 99.0526 120.508 99.2575 119.907 99.6674C119.307 100.077 118.855 100.65 118.552 101.385C118.248 102.115 118.094 102.966 118.088 103.937C118.083 104.902 118.232 105.753 118.535 106.488C118.838 107.218 119.293 107.791 119.899 108.206C120.505 108.616 121.26 108.821 122.164 108.821C123.192 108.821 124.022 108.56 124.657 108.038C125.291 107.51 125.732 106.797 125.979 105.899L127.503 106.303C127.161 107.505 126.535 108.465 125.625 109.183C124.721 109.896 123.568 110.253 122.164 110.253ZM131.758 110V102.269H128.592V100.905H136.424V102.269H133.257V110H131.758ZM141.727 110.253C140.823 110.253 140.043 110.048 139.386 109.638C138.735 109.228 138.232 108.661 137.879 107.937C137.525 107.213 137.348 106.382 137.348 105.444C137.348 104.49 137.528 103.653 137.887 102.935C138.246 102.216 138.754 101.658 139.411 101.259C140.068 100.855 140.84 100.653 141.727 100.653C142.636 100.653 143.42 100.858 144.076 101.267C144.733 101.672 145.236 102.236 145.584 102.96C145.938 103.679 146.114 104.507 146.114 105.444C146.114 106.393 145.938 107.229 145.584 107.954C145.23 108.672 144.725 109.236 144.068 109.646C143.411 110.051 142.631 110.253 141.727 110.253ZM141.727 108.829C142.67 108.829 143.372 108.515 143.832 107.886C144.293 107.258 144.523 106.444 144.523 105.444C144.523 104.417 144.29 103.6 143.824 102.994C143.358 102.382 142.659 102.076 141.727 102.076C141.093 102.076 140.57 102.219 140.161 102.505C139.751 102.792 139.445 103.187 139.243 103.693C139.041 104.198 138.94 104.782 138.94 105.444C138.94 106.466 139.175 107.286 139.647 107.903C140.119 108.521 140.812 108.829 141.727 108.829ZM155.413 100.905V110H153.964V103.297L149.198 110H147.96V100.905H149.408V107.516L154.183 100.905H155.413ZM157.763 110V100.905H159.051L162.504 107.962L165.956 100.905H167.245V110H165.796V104.029L162.899 110H162.108L159.211 104.029V110H157.763ZM173.47 110.253C172.567 110.253 171.786 110.048 171.129 109.638C170.478 109.228 169.976 108.661 169.622 107.937C169.268 107.213 169.091 106.382 169.091 105.444C169.091 104.49 169.271 103.653 169.63 102.935C169.99 102.216 170.498 101.658 171.155 101.259C171.811 100.855 172.583 100.653 173.47 100.653C174.38 100.653 175.163 100.858 175.82 101.267C176.477 101.672 176.979 102.236 177.327 102.96C177.681 103.679 177.858 104.507 177.858 105.444C177.858 106.393 177.681 107.229 177.327 107.954C176.974 108.672 176.468 109.236 175.811 109.646C175.155 110.051 174.374 110.253 173.47 110.253ZM173.47 108.829C174.414 108.829 175.115 108.515 175.576 107.886C176.036 107.258 176.266 106.444 176.266 105.444C176.266 104.417 176.033 103.6 175.567 102.994C175.101 102.382 174.402 102.076 173.47 102.076C172.836 102.076 172.314 102.219 171.904 102.505C171.494 102.792 171.188 103.187 170.986 103.693C170.784 104.198 170.683 104.782 170.683 105.444C170.683 106.466 170.919 107.286 171.39 107.903C171.862 108.521 172.555 108.829 173.47 108.829ZM183.543 110.253C182.623 110.253 181.84 110.048 181.194 109.638C180.554 109.222 180.066 108.653 179.729 107.928C179.392 107.204 179.218 106.379 179.207 105.453C179.218 104.504 179.395 103.67 179.737 102.952C180.085 102.227 180.582 101.663 181.228 101.259C181.873 100.855 182.651 100.653 183.56 100.653C184.52 100.653 185.346 100.888 186.036 101.36C186.732 101.832 187.198 102.477 187.434 103.297L185.952 103.743C185.761 103.215 185.449 102.806 185.017 102.514C184.59 102.222 184.099 102.076 183.543 102.076C182.92 102.076 182.407 102.222 182.002 102.514C181.598 102.8 181.298 103.199 181.101 103.709C180.905 104.215 180.804 104.796 180.798 105.453C180.809 106.463 181.042 107.28 181.497 107.903C181.957 108.521 182.64 108.829 183.543 108.829C184.139 108.829 184.633 108.695 185.026 108.425C185.419 108.15 185.716 107.754 185.918 107.238L187.434 107.634C187.12 108.481 186.628 109.13 185.96 109.579C185.292 110.028 184.487 110.253 183.543 110.253ZM191.397 110V102.269H188.23V100.905H196.062V102.269H192.896V110H191.397ZM197.656 110L197.648 100.905H199.155V104.198H201.117C201.381 104.198 201.65 104.204 201.925 104.215C202.2 104.226 202.439 104.251 202.641 104.291C203.113 104.38 203.525 104.538 203.879 104.762C204.233 104.987 204.508 105.293 204.704 105.68C204.901 106.062 204.999 106.536 204.999 107.103C204.999 107.889 204.794 108.512 204.384 108.973C203.98 109.427 203.45 109.731 202.793 109.882C202.568 109.933 202.31 109.966 202.018 109.983C201.732 109.994 201.459 110 201.201 110H197.656ZM199.155 108.762H201.226C201.395 108.762 201.583 108.756 201.791 108.745C201.998 108.734 202.184 108.706 202.346 108.661C202.633 108.577 202.888 108.411 203.113 108.164C203.343 107.917 203.458 107.564 203.458 107.103C203.458 106.637 203.346 106.278 203.121 106.025C202.902 105.773 202.613 105.607 202.254 105.528C202.091 105.489 201.92 105.464 201.74 105.453C201.56 105.441 201.389 105.436 201.226 105.436H199.155V108.762ZM210.213 110V100.905H214.087C214.317 100.905 214.564 100.919 214.828 100.947C215.098 100.97 215.342 101.012 215.561 101.074C216.049 101.203 216.45 101.469 216.765 101.874C217.085 102.272 217.245 102.778 217.245 103.389C217.245 103.732 217.192 104.029 217.085 104.282C216.984 104.535 216.838 104.754 216.647 104.939C216.563 105.023 216.47 105.099 216.369 105.166C216.268 105.234 216.167 105.287 216.066 105.326C216.262 105.36 216.462 105.436 216.664 105.554C216.984 105.728 217.234 105.972 217.413 106.286C217.599 106.601 217.691 107.002 217.691 107.491C217.691 108.108 217.542 108.619 217.245 109.023C216.947 109.422 216.538 109.697 216.015 109.848C215.796 109.91 215.555 109.952 215.291 109.975C215.027 109.992 214.772 110 214.525 110H210.213ZM211.729 108.779H214.441C214.559 108.779 214.699 108.768 214.862 108.745C215.03 108.723 215.179 108.695 215.308 108.661C215.6 108.577 215.81 108.42 215.94 108.189C216.074 107.959 216.142 107.709 216.142 107.44C216.142 107.081 216.041 106.789 215.839 106.564C215.642 106.34 215.381 106.199 215.055 106.143C214.938 106.109 214.808 106.09 214.668 106.084C214.533 106.079 214.413 106.076 214.306 106.076H211.729V108.779ZM211.729 104.838H213.986C214.143 104.838 214.309 104.829 214.483 104.813C214.657 104.79 214.808 104.754 214.938 104.703C215.196 104.608 215.384 104.451 215.502 104.232C215.625 104.007 215.687 103.763 215.687 103.499C215.687 103.207 215.62 102.952 215.485 102.733C215.356 102.508 215.156 102.354 214.887 102.269C214.707 102.202 214.505 102.166 214.281 102.16C214.062 102.149 213.921 102.143 213.86 102.143H211.729V104.838ZM223.56 110.253C222.706 110.253 221.988 110.042 221.404 109.621C220.82 109.194 220.377 108.619 220.073 107.895C219.776 107.165 219.627 106.348 219.627 105.444C219.627 104.529 219.776 103.709 220.073 102.985C220.377 102.261 220.82 101.691 221.404 101.276C221.993 100.86 222.715 100.653 223.568 100.653C224.41 100.653 225.134 100.863 225.741 101.284C226.353 101.7 226.821 102.269 227.147 102.994C227.473 103.718 227.636 104.535 227.636 105.444C227.636 106.354 227.473 107.171 227.147 107.895C226.821 108.619 226.353 109.194 225.741 109.621C225.134 110.042 224.407 110.253 223.56 110.253ZM219.374 114.042V100.905H220.713V107.6H220.882V114.042H219.374ZM223.374 108.88C223.975 108.88 224.472 108.728 224.865 108.425C225.258 108.122 225.553 107.712 225.749 107.196C225.946 106.674 226.044 106.09 226.044 105.444C226.044 104.804 225.946 104.226 225.749 103.709C225.558 103.193 225.261 102.783 224.857 102.48C224.458 102.177 223.95 102.025 223.332 102.025C222.743 102.025 222.254 102.171 221.867 102.463C221.48 102.749 221.191 103.151 221 103.667C220.809 104.178 220.713 104.771 220.713 105.444C220.713 106.107 220.806 106.699 220.991 107.221C221.182 107.738 221.474 108.145 221.867 108.442C222.26 108.734 222.763 108.88 223.374 108.88ZM232.067 110.253C231.388 110.253 230.818 110.129 230.357 109.882C229.903 109.629 229.557 109.298 229.322 108.888C229.091 108.479 228.976 108.029 228.976 107.541C228.976 107.064 229.066 106.651 229.246 106.303C229.431 105.949 229.689 105.658 230.021 105.427C230.352 105.192 230.748 105.006 231.208 104.872C231.64 104.754 232.123 104.653 232.656 104.568C233.195 104.479 233.74 104.397 234.29 104.324C234.84 104.251 235.354 104.181 235.831 104.114L235.292 104.425C235.309 103.617 235.146 103.019 234.804 102.632C234.467 102.244 233.883 102.051 233.052 102.051C232.502 102.051 232.019 102.177 231.604 102.429C231.194 102.676 230.905 103.081 230.736 103.642L229.313 103.213C229.532 102.415 229.956 101.789 230.585 101.335C231.214 100.88 232.042 100.653 233.069 100.653C233.894 100.653 234.602 100.801 235.191 101.099C235.786 101.391 236.213 101.834 236.471 102.429C236.6 102.71 236.682 103.016 236.715 103.347C236.749 103.673 236.766 104.015 236.766 104.375V110H235.435V107.819L235.747 108.021C235.404 108.756 234.924 109.312 234.307 109.688C233.695 110.065 232.948 110.253 232.067 110.253ZM232.294 108.998C232.833 108.998 233.299 108.902 233.692 108.712C234.091 108.515 234.411 108.26 234.652 107.945C234.894 107.625 235.051 107.277 235.124 106.901C235.208 106.62 235.253 106.309 235.258 105.966C235.27 105.618 235.275 105.352 235.275 105.166L235.797 105.394C235.309 105.461 234.829 105.526 234.357 105.587C233.886 105.649 233.439 105.716 233.018 105.789C232.597 105.857 232.218 105.938 231.882 106.034C231.635 106.112 231.402 106.213 231.183 106.337C230.969 106.46 230.795 106.62 230.661 106.817C230.531 107.008 230.467 107.246 230.467 107.533C230.467 107.78 230.529 108.015 230.652 108.24C230.781 108.465 230.978 108.647 231.242 108.787C231.511 108.928 231.862 108.998 232.294 108.998ZM249.128 111.684V110H238.947V100.905H240.395V108.636H243.528V100.905H244.976V108.636H248.101V100.905H249.549V108.636H250.627V111.684H249.128ZM255.923 110.253C255.03 110.253 254.25 110.056 253.582 109.663C252.919 109.265 252.403 108.712 252.032 108.004C251.662 107.291 251.476 106.46 251.476 105.512C251.476 104.518 251.659 103.659 252.024 102.935C252.389 102.205 252.897 101.644 253.548 101.251C254.205 100.852 254.974 100.653 255.855 100.653C256.77 100.653 257.548 100.863 258.188 101.284C258.834 101.705 259.316 102.306 259.636 103.086C259.962 103.867 260.102 104.796 260.057 105.874H258.542V105.335C258.525 104.218 258.297 103.384 257.859 102.834C257.422 102.278 256.77 102 255.906 102C254.979 102 254.275 102.298 253.792 102.893C253.309 103.488 253.068 104.341 253.068 105.453C253.068 106.525 253.309 107.356 253.792 107.945C254.275 108.535 254.963 108.829 255.855 108.829C256.456 108.829 256.978 108.692 257.422 108.417C257.865 108.142 258.213 107.746 258.466 107.229L259.906 107.726C259.552 108.529 259.019 109.152 258.306 109.596C257.598 110.034 256.804 110.253 255.923 110.253ZM252.563 105.874V104.669H259.283V105.874H252.563ZM261.924 110V100.905H263.423V104.737H268.206V100.905H269.705V110H268.206V106.16H263.423V110H261.924ZM279.508 100.905V110H278.06V103.297L273.293 110H272.055V100.905H273.504V107.516L278.279 100.905H279.508ZM287.483 110V106.707H285.521C285.291 106.707 285.036 106.699 284.755 106.682C284.48 106.66 284.222 106.629 283.98 106.589C283.323 106.466 282.768 106.177 282.313 105.722C281.864 105.267 281.639 104.639 281.639 103.836C281.639 103.055 281.85 102.429 282.271 101.958C282.697 101.481 283.222 101.172 283.845 101.032C284.126 100.964 284.41 100.928 284.696 100.922C284.988 100.911 285.235 100.905 285.437 100.905H288.982L288.991 110H287.483ZM281.361 110L283.778 106.295H285.395L282.978 110H281.361ZM285.412 105.469H287.483V102.143H285.412C285.283 102.143 285.111 102.149 284.898 102.16C284.69 102.171 284.491 102.205 284.3 102.261C284.12 102.312 283.944 102.404 283.77 102.539C283.601 102.674 283.461 102.848 283.349 103.061C283.236 103.274 283.18 103.527 283.18 103.819C283.18 104.24 283.298 104.582 283.534 104.846C283.77 105.105 284.056 105.279 284.393 105.368C284.578 105.413 284.76 105.441 284.94 105.453C285.125 105.464 285.283 105.469 285.412 105.469ZM296.842 110V99.5326L294.56 100.914V99.2379L296.842 97.8737H298.366V110H296.842ZM305.663 110.253C304.877 110.253 304.175 110.076 303.558 109.722C302.946 109.363 302.46 108.877 302.101 108.265C301.747 107.648 301.57 106.946 301.57 106.16V101.714C301.57 100.928 301.747 100.226 302.101 99.6084C302.46 98.9909 302.946 98.5053 303.558 98.1516C304.175 97.7979 304.877 97.6211 305.663 97.6211C306.449 97.6211 307.151 97.7979 307.768 98.1516C308.386 98.5053 308.871 98.9909 309.225 99.6084C309.579 100.226 309.756 100.928 309.756 101.714V106.16C309.756 106.946 309.579 107.648 309.225 108.265C308.871 108.877 308.386 109.363 307.768 109.722C307.151 110.076 306.449 110.253 305.663 110.253ZM305.663 108.813C306.14 108.813 306.573 108.698 306.96 108.467C307.347 108.237 307.656 107.928 307.886 107.541C308.116 107.148 308.231 106.716 308.231 106.244V101.621C308.231 101.144 308.116 100.712 307.886 100.324C307.656 99.9368 307.347 99.6281 306.96 99.3979C306.573 99.1677 306.14 99.0526 305.663 99.0526C305.191 99.0526 304.759 99.1677 304.366 99.3979C303.979 99.6281 303.67 99.9368 303.44 100.324C303.21 100.712 303.095 101.144 303.095 101.621V106.244C303.095 106.716 303.21 107.148 303.44 107.541C303.67 107.928 303.979 108.237 304.366 108.467C304.759 108.698 305.191 108.813 305.663 108.813ZM312.113 105.411V104.088H317.865C317.96 104.088 318.072 104.083 318.202 104.072C318.336 104.06 318.477 104.038 318.623 104.004C319.184 103.869 319.599 103.592 319.869 103.171C320.138 102.749 320.273 102.267 320.273 101.722C320.273 101.374 320.217 101.037 320.105 100.712C319.992 100.386 319.813 100.102 319.566 99.8611C319.324 99.6196 319.01 99.4568 318.623 99.3726C318.488 99.3333 318.348 99.3109 318.202 99.3053C318.061 99.2996 317.949 99.2968 317.865 99.2968H314.454V97.8737H317.915C317.999 97.8737 318.12 97.8765 318.277 97.8821C318.44 97.8877 318.617 97.9074 318.808 97.9411C319.465 98.0421 320.015 98.2667 320.458 98.6147C320.908 98.9628 321.244 99.4007 321.469 99.9284C321.694 100.456 321.806 101.043 321.806 101.688C321.806 102.648 321.553 103.46 321.048 104.122C320.543 104.779 319.796 105.186 318.808 105.343C318.617 105.371 318.44 105.391 318.277 105.402C318.12 105.408 317.999 105.411 317.915 105.411H312.113ZM312.113 108.08V106.842H318.85V108.08H312.113ZM313.376 110V97.8737H314.875V110H313.376ZM327.136 110V108.349H328.786V110H327.136Z" fill="#393540"/>
<path d="M118.324 132.583L117.221 131.783L118.526 130.141L116.505 129.552L116.926 128.255L118.897 128.987L118.821 126.874H120.185L120.109 128.987L122.08 128.255L122.501 129.552L120.48 130.141L121.777 131.783L120.674 132.583L119.503 130.848L118.324 132.583ZM134.051 139H132.535V129.518L126.211 139H124.695V126.874H126.211V136.347L132.535 126.874H134.051V139ZM140.238 139.253C139.317 139.253 138.534 139.048 137.888 138.638C137.248 138.222 136.76 137.653 136.423 136.928C136.086 136.204 135.912 135.379 135.901 134.453C135.912 133.504 136.089 132.67 136.431 131.952C136.779 131.227 137.276 130.663 137.922 130.259C138.567 129.855 139.345 129.653 140.254 129.653C141.214 129.653 142.04 129.888 142.73 130.36C143.426 130.832 143.892 131.477 144.128 132.297L142.646 132.743C142.455 132.215 142.143 131.806 141.711 131.514C141.285 131.222 140.793 131.076 140.238 131.076C139.614 131.076 139.101 131.222 138.696 131.514C138.292 131.8 137.992 132.199 137.795 132.709C137.599 133.215 137.498 133.796 137.492 134.453C137.503 135.463 137.736 136.28 138.191 136.903C138.652 137.521 139.334 137.829 140.238 137.829C140.833 137.829 141.327 137.695 141.72 137.425C142.113 137.15 142.41 136.754 142.612 136.238L144.128 136.634C143.814 137.481 143.322 138.13 142.654 138.579C141.986 139.028 141.181 139.253 140.238 139.253ZM145.838 139V129.905H153.291V139H151.792V131.328H147.337V139H145.838ZM155.649 139L155.641 129.905H157.148V133.198H158.538C158.802 133.198 159.071 133.204 159.346 133.215C159.621 133.226 159.86 133.251 160.062 133.291C160.534 133.386 160.946 133.546 161.3 133.771C161.654 133.995 161.929 134.298 162.125 134.68C162.322 135.062 162.42 135.536 162.42 136.103C162.42 136.889 162.215 137.512 161.805 137.973C161.401 138.427 160.87 138.731 160.214 138.882C159.989 138.933 159.731 138.966 159.439 138.983C159.153 138.994 158.88 139 158.622 139H155.649ZM157.148 137.762H158.647C158.816 137.762 159.004 137.756 159.211 137.745C159.419 137.734 159.604 137.706 159.767 137.661C160.054 137.577 160.309 137.411 160.534 137.164C160.764 136.917 160.879 136.564 160.879 136.103C160.879 135.637 160.767 135.278 160.542 135.025C160.323 134.773 160.034 134.607 159.675 134.528C159.512 134.489 159.341 134.464 159.161 134.453C158.981 134.441 158.81 134.436 158.647 134.436H157.148V137.762ZM163.464 139V129.905H164.963V139H163.464ZM169.735 139V131.269H166.569V129.905H174.401V131.269H171.234V139H169.735ZM178.284 139.253C177.605 139.253 177.035 139.129 176.574 138.882C176.12 138.629 175.774 138.298 175.539 137.888C175.309 137.479 175.193 137.029 175.193 136.541C175.193 136.064 175.283 135.651 175.463 135.303C175.648 134.949 175.906 134.658 176.238 134.427C176.569 134.192 176.965 134.006 177.425 133.872C177.857 133.754 178.34 133.653 178.873 133.568C179.412 133.479 179.957 133.397 180.507 133.324C181.057 133.251 181.571 133.181 182.048 133.114L181.509 133.425C181.526 132.617 181.363 132.019 181.021 131.632C180.684 131.244 180.1 131.051 179.269 131.051C178.719 131.051 178.236 131.177 177.821 131.429C177.411 131.676 177.122 132.081 176.953 132.642L175.53 132.213C175.749 131.415 176.173 130.789 176.802 130.335C177.431 129.88 178.259 129.653 179.286 129.653C180.111 129.653 180.819 129.801 181.408 130.099C182.003 130.391 182.43 130.834 182.688 131.429C182.817 131.71 182.899 132.016 182.932 132.347C182.966 132.673 182.983 133.015 182.983 133.375V139H181.652V136.819L181.964 137.021C181.621 137.756 181.141 138.312 180.524 138.688C179.912 139.065 179.165 139.253 178.284 139.253ZM178.511 137.998C179.05 137.998 179.516 137.902 179.909 137.712C180.308 137.515 180.628 137.26 180.869 136.945C181.111 136.625 181.268 136.277 181.341 135.901C181.425 135.62 181.47 135.309 181.476 134.966C181.487 134.618 181.492 134.352 181.492 134.166L182.014 134.394C181.526 134.461 181.046 134.526 180.574 134.587C180.103 134.649 179.657 134.716 179.236 134.789C178.814 134.857 178.436 134.938 178.099 135.034C177.852 135.112 177.619 135.213 177.4 135.337C177.186 135.46 177.012 135.62 176.878 135.817C176.749 136.008 176.684 136.246 176.684 136.533C176.684 136.78 176.746 137.015 176.869 137.24C176.998 137.465 177.195 137.647 177.459 137.787C177.728 137.928 178.079 137.998 178.511 137.998ZM189.088 128.844C188.667 128.844 188.283 128.74 187.934 128.533C187.586 128.325 187.309 128.05 187.101 127.707C186.893 127.359 186.789 126.972 186.789 126.545H188.002C188.002 126.843 188.109 127.098 188.322 127.312C188.535 127.525 188.791 127.632 189.088 127.632C189.391 127.632 189.647 127.525 189.854 127.312C190.068 127.098 190.174 126.843 190.174 126.545H191.387C191.387 126.972 191.283 127.359 191.076 127.707C190.873 128.05 190.596 128.325 190.242 128.533C189.894 128.74 189.509 128.844 189.088 128.844ZM192.617 129.905V139H191.168V132.297L186.402 139H185.164V129.905H186.612V136.516L191.387 129.905H192.617ZM202.178 139.253C201.258 139.253 200.474 139.048 199.829 138.638C199.189 138.222 198.7 137.653 198.364 136.928C198.027 136.204 197.853 135.379 197.841 134.453C197.853 133.504 198.03 132.67 198.372 131.952C198.72 131.227 199.217 130.663 199.863 130.259C200.508 129.855 201.286 129.653 202.195 129.653C203.155 129.653 203.98 129.888 204.671 130.36C205.367 130.832 205.833 131.477 206.069 132.297L204.587 132.743C204.396 132.215 204.084 131.806 203.652 131.514C203.225 131.222 202.734 131.076 202.178 131.076C201.555 131.076 201.041 131.222 200.637 131.514C200.233 131.8 199.933 132.199 199.736 132.709C199.54 133.215 199.439 133.796 199.433 134.453C199.444 135.463 199.677 136.28 200.132 136.903C200.592 137.521 201.274 137.829 202.178 137.829C202.773 137.829 203.267 137.695 203.66 137.425C204.053 137.15 204.351 136.754 204.553 136.238L206.069 136.634C205.754 137.481 205.263 138.13 204.595 138.579C203.927 139.028 203.121 139.253 202.178 139.253ZM207.779 139V129.905H211.653C211.883 129.905 212.13 129.919 212.394 129.947C212.663 129.97 212.908 130.012 213.126 130.074C213.615 130.203 214.016 130.469 214.331 130.874C214.651 131.272 214.811 131.778 214.811 132.389C214.811 132.732 214.757 133.029 214.651 133.282C214.55 133.535 214.404 133.754 214.213 133.939C214.129 134.023 214.036 134.099 213.935 134.166C213.834 134.234 213.733 134.287 213.632 134.326C213.828 134.36 214.028 134.436 214.23 134.554C214.55 134.728 214.799 134.972 214.979 135.286C215.164 135.601 215.257 136.002 215.257 136.491C215.257 137.108 215.108 137.619 214.811 138.023C214.513 138.422 214.103 138.697 213.581 138.848C213.362 138.91 213.121 138.952 212.857 138.975C212.593 138.992 212.338 139 212.091 139H207.779ZM209.295 137.779H212.006C212.124 137.779 212.265 137.768 212.428 137.745C212.596 137.723 212.745 137.695 212.874 137.661C213.166 137.577 213.376 137.42 213.505 137.189C213.64 136.959 213.708 136.709 213.708 136.44C213.708 136.081 213.606 135.789 213.404 135.564C213.208 135.34 212.947 135.199 212.621 135.143C212.503 135.109 212.374 135.09 212.234 135.084C212.099 135.079 211.978 135.076 211.872 135.076H209.295V137.779ZM209.295 133.838H211.552C211.709 133.838 211.875 133.829 212.049 133.813C212.223 133.79 212.374 133.754 212.503 133.703C212.762 133.608 212.95 133.451 213.068 133.232C213.191 133.007 213.253 132.763 213.253 132.499C213.253 132.207 213.185 131.952 213.051 131.733C212.922 131.508 212.722 131.354 212.453 131.269C212.273 131.202 212.071 131.166 211.846 131.16C211.628 131.149 211.487 131.143 211.425 131.143H209.295V133.838ZM220.822 139.253C219.919 139.253 219.138 139.048 218.481 138.638C217.83 138.228 217.328 137.661 216.974 136.937C216.62 136.213 216.443 135.382 216.443 134.444C216.443 133.49 216.623 132.653 216.982 131.935C217.342 131.216 217.85 130.658 218.507 130.259C219.163 129.855 219.935 129.653 220.822 129.653C221.732 129.653 222.515 129.858 223.172 130.267C223.829 130.672 224.331 131.236 224.679 131.96C225.033 132.679 225.21 133.507 225.21 134.444C225.21 135.393 225.033 136.229 224.679 136.954C224.326 137.672 223.82 138.236 223.163 138.646C222.507 139.051 221.726 139.253 220.822 139.253ZM220.822 137.829C221.766 137.829 222.467 137.515 222.928 136.886C223.388 136.258 223.618 135.444 223.618 134.444C223.618 133.417 223.385 132.6 222.919 131.994C222.453 131.382 221.754 131.076 220.822 131.076C220.188 131.076 219.666 131.219 219.256 131.505C218.846 131.792 218.54 132.187 218.338 132.693C218.136 133.198 218.035 133.782 218.035 134.444C218.035 135.466 218.271 136.286 218.742 136.903C219.214 137.521 219.907 137.829 220.822 137.829ZM234.483 139.253C233.708 139.253 233.023 139.087 232.428 138.756C231.839 138.425 231.364 137.956 231.005 137.349C230.646 136.743 230.421 136.027 230.331 135.202H228.554V139H227.055V129.905H228.554V133.703H230.323C230.413 132.861 230.64 132.137 231.005 131.531C231.37 130.924 231.85 130.461 232.445 130.141C233.04 129.815 233.725 129.653 234.5 129.653C235.403 129.653 236.181 129.858 236.832 130.267C237.489 130.677 237.992 131.241 238.34 131.96C238.693 132.679 238.87 133.504 238.87 134.436C238.87 135.385 238.69 136.221 238.331 136.945C237.978 137.669 237.472 138.236 236.815 138.646C236.164 139.051 235.387 139.253 234.483 139.253ZM234.458 137.829C235.412 137.829 236.119 137.518 236.58 136.895C237.046 136.266 237.279 135.449 237.279 134.444C237.279 133.411 237.043 132.592 236.571 131.985C236.105 131.379 235.403 131.076 234.466 131.076C233.562 131.076 232.874 131.376 232.403 131.977C231.931 132.578 231.695 133.397 231.695 134.436C231.695 135.463 231.928 136.286 232.394 136.903C232.866 137.521 233.554 137.829 234.458 137.829ZM245.35 143.042L247.11 138.259L247.135 139.674L243.161 129.905H244.735L247.851 137.762H247.312L250.234 129.905H251.758L246.807 143.042H245.35ZM252.147 141.021V137.762C252.658 137.762 253.023 137.596 253.241 137.265C253.46 136.928 253.637 136.375 253.772 135.606C253.862 135.124 253.935 134.607 253.991 134.057C254.047 133.507 254.095 132.895 254.134 132.221C254.179 131.542 254.221 130.77 254.26 129.905H260.526V137.762H261.41V141.021H259.978V139H253.578V141.021H252.147ZM254.454 137.762H259.027V131.143H255.616C255.599 131.542 255.577 131.96 255.549 132.398C255.521 132.83 255.487 133.262 255.448 133.695C255.414 134.127 255.372 134.537 255.321 134.924C255.277 135.306 255.223 135.648 255.161 135.952C255.088 136.373 255.004 136.729 254.909 137.021C254.813 137.313 254.662 137.56 254.454 137.762ZM265.685 139.253C265.006 139.253 264.436 139.129 263.976 138.882C263.521 138.629 263.176 138.298 262.94 137.888C262.71 137.479 262.595 137.029 262.595 136.541C262.595 136.064 262.685 135.651 262.864 135.303C263.049 134.949 263.308 134.658 263.639 134.427C263.97 134.192 264.366 134.006 264.826 133.872C265.259 133.754 265.741 133.653 266.275 133.568C266.814 133.479 267.358 133.397 267.908 133.324C268.459 133.251 268.972 133.181 269.449 133.114L268.911 133.425C268.927 132.617 268.765 132.019 268.422 131.632C268.085 131.244 267.501 131.051 266.671 131.051C266.12 131.051 265.638 131.177 265.222 131.429C264.812 131.676 264.523 132.081 264.355 132.642L262.932 132.213C263.151 131.415 263.574 130.789 264.203 130.335C264.832 129.88 265.66 129.653 266.687 129.653C267.513 129.653 268.22 129.801 268.809 130.099C269.405 130.391 269.831 130.834 270.089 131.429C270.219 131.71 270.3 132.016 270.334 132.347C270.367 132.673 270.384 133.015 270.384 133.375V139H269.054V136.819L269.365 137.021C269.023 137.756 268.543 138.312 267.925 138.688C267.313 139.065 266.567 139.253 265.685 139.253ZM265.913 137.998C266.452 137.998 266.918 137.902 267.311 137.712C267.709 137.515 268.029 137.26 268.271 136.945C268.512 136.625 268.669 136.277 268.742 135.901C268.826 135.62 268.871 135.309 268.877 134.966C268.888 134.618 268.894 134.352 268.894 134.166L269.416 134.394C268.927 134.461 268.447 134.526 267.976 134.587C267.504 134.649 267.058 134.716 266.637 134.789C266.216 134.857 265.837 134.938 265.5 135.034C265.253 135.112 265.02 135.213 264.801 135.337C264.588 135.46 264.414 135.62 264.279 135.817C264.15 136.008 264.085 136.246 264.085 136.533C264.085 136.78 264.147 137.015 264.271 137.24C264.4 137.465 264.596 137.647 264.86 137.787C265.129 137.928 265.48 137.998 265.913 137.998ZM278.047 139V135.724C277.744 135.876 277.376 136.005 276.944 136.112C276.518 136.218 276.06 136.272 275.572 136.272C274.645 136.272 273.899 136.064 273.332 135.648C272.765 135.233 272.394 134.635 272.22 133.855C272.169 133.619 272.133 133.375 272.111 133.122C272.094 132.869 272.082 132.639 272.077 132.432C272.071 132.224 272.068 132.072 272.068 131.977V129.905H273.584V131.977C273.584 132.14 273.59 132.342 273.601 132.583C273.612 132.819 273.64 133.049 273.685 133.274C273.798 133.829 274.031 134.248 274.384 134.528C274.744 134.809 275.249 134.949 275.9 134.949C276.338 134.949 276.742 134.893 277.113 134.781C277.483 134.669 277.795 134.52 278.047 134.335V129.905H279.555V139H278.047ZM283.179 143.042L284.939 138.259L284.964 139.674L280.989 129.905H282.564L285.68 137.762H285.141L288.063 129.905H289.587L284.636 143.042H283.179Z" fill="#F96868"/>
<rect x="116.5" y="171.5" width="347" height="48" rx="24" stroke="#9C9C9C"/>
<path d="M235.667 201.253C234.78 201.253 233.98 201.098 233.267 200.789C232.56 200.481 231.976 200.04 231.516 199.467C231.061 198.889 230.772 198.204 230.648 197.413L232.754 197.093C232.933 197.811 233.301 198.367 233.857 198.76C234.418 199.153 235.064 199.349 235.794 199.349C236.226 199.349 236.633 199.282 237.015 199.147C237.396 199.013 237.705 198.816 237.941 198.558C238.182 198.3 238.303 197.982 238.303 197.606C238.303 197.438 238.275 197.284 238.219 197.143C238.163 196.997 238.079 196.868 237.966 196.756C237.86 196.644 237.719 196.542 237.545 196.453C237.377 196.357 237.18 196.276 236.956 196.208L233.823 195.282C233.554 195.204 233.262 195.1 232.947 194.971C232.639 194.836 232.344 194.653 232.063 194.423C231.788 194.187 231.561 193.89 231.381 193.531C231.207 193.166 231.12 192.716 231.12 192.183C231.12 191.403 231.316 190.749 231.709 190.221C232.108 189.688 232.641 189.289 233.309 189.025C233.983 188.761 234.73 188.632 235.549 188.638C236.38 188.644 237.121 188.787 237.773 189.067C238.424 189.342 238.968 189.744 239.406 190.272C239.844 190.799 240.153 191.436 240.333 192.183L238.152 192.562C238.062 192.135 237.888 191.773 237.629 191.476C237.377 191.173 237.065 190.942 236.695 190.785C236.33 190.628 235.94 190.544 235.524 190.533C235.12 190.527 234.744 190.589 234.396 190.718C234.053 190.841 233.775 191.021 233.562 191.257C233.354 191.493 233.251 191.768 233.251 192.082C233.251 192.38 233.34 192.624 233.52 192.815C233.7 193 233.921 193.149 234.185 193.261C234.455 193.368 234.727 193.458 235.002 193.531L237.175 194.137C237.472 194.215 237.806 194.322 238.177 194.457C238.547 194.592 238.904 194.78 239.246 195.021C239.589 195.262 239.869 195.58 240.088 195.973C240.313 196.366 240.425 196.865 240.425 197.472C240.425 198.1 240.293 198.653 240.029 199.131C239.771 199.602 239.42 199.995 238.977 200.309C238.533 200.624 238.025 200.86 237.453 201.017C236.886 201.174 236.291 201.253 235.667 201.253ZM242.416 201V188.621H244.446V201H242.416ZM250.985 201.253C250.076 201.253 249.281 201.048 248.602 200.638C247.923 200.228 247.395 199.664 247.019 198.945C246.648 198.221 246.463 197.39 246.463 196.453C246.463 195.498 246.654 194.662 247.036 193.943C247.418 193.225 247.948 192.663 248.627 192.259C249.307 191.855 250.093 191.653 250.985 191.653C251.9 191.653 252.698 191.858 253.377 192.267C254.056 192.677 254.584 193.244 254.96 193.968C255.336 194.687 255.524 195.515 255.524 196.453C255.524 197.396 255.333 198.229 254.952 198.954C254.575 199.672 254.048 200.236 253.368 200.646C252.689 201.051 251.895 201.253 250.985 201.253ZM250.985 199.349C251.794 199.349 252.394 199.08 252.787 198.541C253.18 198.002 253.377 197.306 253.377 196.453C253.377 195.571 253.178 194.869 252.779 194.347C252.38 193.82 251.782 193.556 250.985 193.556C250.441 193.556 249.992 193.679 249.638 193.926C249.29 194.168 249.032 194.507 248.863 194.945C248.695 195.378 248.611 195.88 248.611 196.453C248.611 197.334 248.81 198.039 249.208 198.566C249.613 199.088 250.205 199.349 250.985 199.349ZM259.51 201L256.209 191.905H258.238L260.529 198.499L262.811 191.905H264.849L261.548 201H259.51ZM270.166 201.253C269.245 201.253 268.437 201.053 267.74 200.655C267.044 200.256 266.5 199.703 266.107 198.996C265.719 198.288 265.526 197.474 265.526 196.554C265.526 195.56 265.717 194.698 266.098 193.968C266.48 193.233 267.011 192.663 267.69 192.259C268.369 191.855 269.155 191.653 270.048 191.653C270.991 191.653 271.791 191.874 272.448 192.318C273.11 192.756 273.601 193.376 273.921 194.179C274.241 194.982 274.362 195.928 274.284 197.017H272.271V196.276C272.265 195.288 272.091 194.566 271.749 194.112C271.406 193.657 270.867 193.429 270.132 193.429C269.301 193.429 268.684 193.688 268.279 194.204C267.875 194.715 267.673 195.465 267.673 196.453C267.673 197.373 267.875 198.086 268.279 198.592C268.684 199.097 269.273 199.349 270.048 199.349C270.547 199.349 270.977 199.24 271.336 199.021C271.701 198.796 271.982 198.474 272.178 198.053L274.183 198.659C273.834 199.479 273.295 200.116 272.566 200.571C271.841 201.025 271.041 201.253 270.166 201.253ZM267.033 197.017V195.484H273.29V197.017H267.033ZM276.146 201L276.163 188.874H278.217V196.284L281.544 191.905H284.078L280.55 196.453L284.381 201H281.695L278.217 196.621V201H276.146ZM285.393 190.524V188.663H287.423V190.524H285.393ZM285.393 201V191.905H287.423V201H285.393ZM296.236 201V196.621C296.236 196.335 296.216 196.018 296.177 195.669C296.138 195.321 296.045 194.987 295.899 194.667C295.759 194.342 295.545 194.075 295.259 193.867C294.978 193.66 294.597 193.556 294.114 193.556C293.856 193.556 293.6 193.598 293.348 193.682C293.095 193.766 292.865 193.912 292.657 194.12C292.455 194.322 292.292 194.603 292.169 194.962C292.045 195.316 291.983 195.771 291.983 196.326L290.779 195.813C290.779 195.038 290.928 194.336 291.225 193.707C291.529 193.079 291.972 192.579 292.556 192.208C293.14 191.832 293.858 191.644 294.712 191.644C295.385 191.644 295.941 191.756 296.379 191.981C296.817 192.206 297.165 192.492 297.423 192.84C297.682 193.188 297.872 193.559 297.996 193.952C298.119 194.345 298.198 194.718 298.232 195.072C298.271 195.42 298.291 195.703 298.291 195.922V201H296.236ZM289.929 201V191.905H291.739V194.726H291.983V201H289.929ZM299.646 201V200.722L304.463 193.682H300.134V191.905H307.621V192.192L302.821 199.223H307.419V201H299.646ZM313.957 201.253C313.07 201.253 312.27 201.098 311.557 200.789C310.849 200.481 310.266 200.04 309.805 199.467C309.351 198.889 309.061 198.204 308.938 197.413L311.043 197.093C311.223 197.811 311.591 198.367 312.146 198.76C312.708 199.153 313.353 199.349 314.083 199.349C314.515 199.349 314.922 199.282 315.304 199.147C315.686 199.013 315.995 198.816 316.231 198.558C316.472 198.3 316.593 197.982 316.593 197.606C316.593 197.438 316.565 197.284 316.508 197.143C316.452 196.997 316.368 196.868 316.256 196.756C316.149 196.644 316.009 196.542 315.835 196.453C315.666 196.357 315.47 196.276 315.245 196.208L312.113 195.282C311.843 195.204 311.551 195.1 311.237 194.971C310.928 194.836 310.633 194.653 310.353 194.423C310.078 194.187 309.85 193.89 309.671 193.531C309.496 193.166 309.409 192.716 309.409 192.183C309.409 191.403 309.606 190.749 309.999 190.221C310.398 189.688 310.931 189.289 311.599 189.025C312.273 188.761 313.019 188.632 313.839 188.638C314.67 188.644 315.411 188.787 316.062 189.067C316.713 189.342 317.258 189.744 317.696 190.272C318.134 190.799 318.442 191.436 318.622 192.183L316.441 192.562C316.351 192.135 316.177 191.773 315.919 191.476C315.666 191.173 315.355 190.942 314.984 190.785C314.619 190.628 314.229 190.544 313.814 190.533C313.409 190.527 313.033 190.589 312.685 190.718C312.343 190.841 312.065 191.021 311.852 191.257C311.644 191.493 311.54 191.768 311.54 192.082C311.54 192.38 311.63 192.624 311.809 192.815C311.989 193 312.211 193.149 312.475 193.261C312.744 193.368 313.016 193.458 313.292 193.531L315.464 194.137C315.762 194.215 316.096 194.322 316.466 194.457C316.837 194.592 317.193 194.78 317.536 195.021C317.878 195.262 318.159 195.58 318.378 195.973C318.602 196.366 318.715 196.865 318.715 197.472C318.715 198.1 318.583 198.653 318.319 199.131C318.061 199.602 317.71 199.995 317.266 200.309C316.823 200.624 316.315 200.86 315.742 201.017C315.175 201.174 314.58 201.253 313.957 201.253ZM326.828 201V196.621C326.828 196.335 326.808 196.018 326.769 195.669C326.73 195.321 326.637 194.987 326.491 194.667C326.351 194.342 326.138 194.075 325.851 193.867C325.57 193.66 325.189 193.556 324.706 193.556C324.448 193.556 324.192 193.598 323.94 193.682C323.687 193.766 323.457 193.912 323.249 194.12C323.047 194.322 322.884 194.603 322.761 194.962C322.637 195.316 322.575 195.771 322.575 196.326L321.371 195.813C321.371 195.038 321.52 194.336 321.818 193.707C322.121 193.079 322.564 192.579 323.148 192.208C323.732 191.832 324.45 191.644 325.304 191.644C325.978 191.644 326.533 191.756 326.971 191.981C327.409 192.206 327.757 192.492 328.015 192.84C328.274 193.188 328.465 193.559 328.588 193.952C328.712 194.345 328.79 194.718 328.824 195.072C328.863 195.42 328.883 195.703 328.883 195.922V201H326.828ZM320.521 201V188.874H322.331V195.257H322.575V201H320.521ZM335.097 201.253C334.188 201.253 333.393 201.048 332.714 200.638C332.035 200.228 331.507 199.664 331.131 198.945C330.76 198.221 330.575 197.39 330.575 196.453C330.575 195.498 330.766 194.662 331.148 193.943C331.529 193.225 332.06 192.663 332.739 192.259C333.419 191.855 334.204 191.653 335.097 191.653C336.012 191.653 336.809 191.858 337.489 192.267C338.168 192.677 338.696 193.244 339.072 193.968C339.448 194.687 339.636 195.515 339.636 196.453C339.636 197.396 339.445 198.229 339.063 198.954C338.687 199.672 338.16 200.236 337.48 200.646C336.801 201.051 336.007 201.253 335.097 201.253ZM335.097 199.349C335.906 199.349 336.506 199.08 336.899 198.541C337.292 198.002 337.489 197.306 337.489 196.453C337.489 195.571 337.289 194.869 336.891 194.347C336.492 193.82 335.894 193.556 335.097 193.556C334.553 193.556 334.103 193.679 333.75 193.926C333.402 194.168 333.143 194.507 332.975 194.945C332.807 195.378 332.722 195.88 332.722 196.453C332.722 197.334 332.922 198.039 333.32 198.566C333.724 199.088 334.317 199.349 335.097 199.349ZM345.862 201.253C344.975 201.253 344.231 201.042 343.63 200.621C343.03 200.2 342.578 199.627 342.275 198.903C341.971 198.173 341.82 197.356 341.82 196.453C341.82 195.538 341.971 194.718 342.275 193.994C342.578 193.269 343.021 192.7 343.605 192.284C344.195 191.863 344.922 191.653 345.786 191.653C346.645 191.653 347.389 191.863 348.018 192.284C348.652 192.7 349.143 193.269 349.491 193.994C349.84 194.712 350.014 195.532 350.014 196.453C350.014 197.362 349.842 198.179 349.5 198.903C349.157 199.627 348.675 200.2 348.051 200.621C347.428 201.042 346.698 201.253 345.862 201.253ZM341.475 205.042V191.905H343.268V198.288H343.521V205.042H341.475ZM345.55 199.434C346.078 199.434 346.513 199.302 346.856 199.038C347.198 198.774 347.451 198.418 347.614 197.968C347.782 197.514 347.866 197.008 347.866 196.453C347.866 195.902 347.782 195.403 347.614 194.954C347.445 194.499 347.184 194.14 346.83 193.876C346.477 193.606 346.028 193.472 345.483 193.472C344.967 193.472 344.545 193.598 344.22 193.851C343.894 194.098 343.653 194.446 343.496 194.895C343.344 195.338 343.268 195.858 343.268 196.453C343.268 197.042 343.344 197.561 343.496 198.011C343.653 198.46 343.897 198.811 344.228 199.063C344.565 199.31 345.006 199.434 345.55 199.434Z" fill="#232027"/>
<circle cx="442.5" cy="37.5" r="19" stroke="#9C9C9C"/>
<defs>
<filter id="filter0_i_322_321" x="0" y="0" width="481" height="244" filterUnits="userSpaceOnUse" color-interpolation-filters="sRGB">
<feFlood flood-opacity="0" result="BackgroundImageFix"/>
<feBlend mode="normal" in="SourceGraphic" in2="BackgroundImageFix" result="shape"/>
<feColorMatrix in="SourceAlpha" type="matrix" values="0 0 0 0 0 0 0 0 0 0 0 0 0 0 0 0 0 0 127 0" result="hardAlpha"/>
<feOffset dy="4"/>
<feGaussianBlur stdDeviation="4.7"/>
<feComposite in2="hardAlpha" operator="arithmetic" k2="-1" k3="1"/>
<feColorMatrix type="matrix" values="0 0 0 0 0 0 0 0 0 0 0 0 0 0 0 0 0 0 0.29 0"/>
<feBlend mode="normal" in2="shape" result="effect1_innerShadow_322_321"/>
</filter>
<linearGradient id="paint0_linear_322_321" x1="290.5" y1="0" x2="290.5" y2="240" gradientUnits="userSpaceOnUse">
<stop stop-color="white"/>
<stop offset="1" stop-color="#E3E4E6"/>
</linearGradient>
</defs>
</svg>
