<svg width="497" height="255" viewBox="0 0 497 255" fill="none" xmlns="http://www.w3.org/2000/svg">
<g filter="url(#filter0_dd_300_438)">
<g clip-path="url(#clip0_300_438)">
<path d="M209.703 1.29883C225.206 1.29883 237.773 13.8663 237.773 29.369V103.755C228.471 103.755 220.931 111.295 220.931 120.597C220.931 129.899 228.471 137.439 237.773 137.439V213.229C237.773 228.731 225.206 241.299 209.703 241.299H35.6678C20.1651 241.299 7.59766 228.731 7.59766 213.229V137.439C16.8993 137.439 24.4398 129.899 24.4398 120.597C24.4398 111.295 16.8993 103.755 7.59766 103.755V29.369C7.59766 13.8663 20.1651 1.29883 35.6678 1.29883H209.703Z" fill="#F96868"/>
<path d="M69.0254 193.254H48.8149V185.24C48.8149 183.873 49.0909 182.755 49.6429 181.885C50.1856 181.006 50.8827 180.355 51.7342 179.934C52.5856 179.504 53.4652 179.289 54.3728 179.289C55.4862 179.289 56.4312 179.555 57.2078 180.089C57.9845 180.613 58.5084 181.328 58.7798 182.236H58.078C58.3681 180.964 58.9716 180 59.8885 179.345C60.8055 178.68 61.8488 178.348 63.0184 178.348C64.216 178.348 65.264 178.578 66.1622 179.036C67.0605 179.495 67.7622 180.178 68.2675 181.085C68.7728 181.983 69.0254 183.097 69.0254 184.426V193.254ZM65.8394 189.829V184.847C65.8394 184.257 65.7225 183.728 65.4885 183.261C65.2453 182.793 64.9084 182.428 64.478 182.166C64.0383 181.895 63.519 181.759 62.9201 181.759C62.3774 181.759 61.8909 181.876 61.4605 182.11C61.0301 182.344 60.6885 182.685 60.4359 183.134C60.1739 183.583 60.0429 184.121 60.0429 184.748V189.829H65.8394ZM56.885 189.829V185.282C56.885 184.795 56.7915 184.36 56.6043 183.976C56.4172 183.593 56.1412 183.289 55.7763 183.064C55.4114 182.84 54.9622 182.727 54.4289 182.727C53.7271 182.727 53.1423 182.952 52.6745 183.401C52.2067 183.85 51.9728 184.477 51.9728 185.282V189.829H56.885ZM69.0254 175.573H48.8149V172.191H55.8745V167.222C55.8745 167.035 55.8839 166.783 55.9026 166.465C55.9119 166.146 55.94 165.856 55.9868 165.594C56.1646 164.434 56.5529 163.475 57.1517 162.717C57.7505 161.95 58.5084 161.384 59.4254 161.019C60.333 160.645 61.3388 160.458 62.4429 160.458C63.5564 160.458 64.5716 160.645 65.4885 161.019C66.3962 161.384 67.1494 161.95 67.7482 162.717C68.347 163.475 68.7353 164.434 68.9131 165.594C68.9505 165.856 68.9786 166.146 68.9973 166.465C69.016 166.773 69.0254 167.026 69.0254 167.222V175.573ZM65.8535 172.191V167.363C65.8535 167.166 65.8441 166.956 65.8254 166.731C65.8067 166.497 65.7739 166.277 65.7271 166.072C65.5868 165.52 65.3388 165.084 64.9833 164.766C64.6277 164.439 64.2254 164.21 63.7763 164.079C63.3178 163.938 62.8733 163.868 62.4429 163.868C62.0125 163.868 61.5728 163.938 61.1236 164.079C60.6745 164.21 60.2722 164.439 59.9166 164.766C59.5611 165.084 59.3131 165.52 59.1728 166.072C59.1166 166.277 59.0792 166.497 59.0605 166.731C59.0418 166.956 59.0324 167.166 59.0324 167.363V172.191H65.8535ZM69.0254 158.436H48.8149V155.054H69.0254V158.436ZM69.0254 134.924V138.348H54.7798L69.0254 147.724V151.148H48.8149V147.724H63.0605L48.8149 138.348V134.924H69.0254ZM69.0254 131H48.8149V117.948H51.9868V127.618H69.0254V131ZM69.0254 115.704H48.8149V107.353C48.8149 107.157 48.8242 106.904 48.8429 106.595C48.8523 106.287 48.8804 106.001 48.9271 105.739C49.1049 104.57 49.4932 103.606 50.0921 102.848C50.6909 102.081 51.4488 101.515 52.3657 101.15C53.2733 100.776 54.2839 100.588 55.3973 100.588C56.5014 100.588 57.5119 100.776 58.4289 101.15C59.3365 101.524 60.0897 102.095 60.6885 102.862C61.2874 103.62 61.6757 104.579 61.8535 105.739C61.8909 106.001 61.919 106.291 61.9377 106.61C61.9564 106.918 61.9657 107.166 61.9657 107.353V112.322H69.0254V115.704ZM58.8078 112.322V107.494C58.8078 107.307 58.7985 107.096 58.7798 106.862C58.7611 106.628 58.7236 106.413 58.6675 106.217C58.5271 105.655 58.2792 105.215 57.9236 104.897C57.5681 104.57 57.1657 104.341 56.7166 104.21C56.2675 104.069 55.8277 103.999 55.3973 103.999C54.9669 103.999 54.5271 104.069 54.078 104.21C53.6195 104.341 53.2125 104.57 52.857 104.897C52.5014 105.215 52.2535 105.655 52.1131 106.217C52.057 106.413 52.0242 106.628 52.0149 106.862C51.9961 107.096 51.9868 107.307 51.9868 107.494V112.322H58.8078ZM69.0254 97.8047H48.8149V94.4222H55.8745V89.4538C55.8745 89.2667 55.8839 89.014 55.9026 88.6959C55.9119 88.3778 55.94 88.0877 55.9868 87.8257C56.1646 86.6655 56.5529 85.7064 57.1517 84.9485C57.7505 84.1813 58.5084 83.6152 59.4254 83.2503C60.333 82.876 61.3388 82.6889 62.4429 82.6889C63.5564 82.6889 64.5716 82.876 65.4885 83.2503C66.3962 83.6152 67.1494 84.1813 67.7482 84.9485C68.347 85.7064 68.7353 86.6655 68.9131 87.8257C68.9505 88.0877 68.9786 88.3778 68.9973 88.6959C69.016 89.0047 69.0254 89.2573 69.0254 89.4538V97.8047ZM65.8535 94.4222V89.5942C65.8535 89.3977 65.8441 89.1871 65.8254 88.9626C65.8067 88.7287 65.7739 88.5088 65.7271 88.3029C65.5868 87.7509 65.3388 87.3158 64.9833 86.9977C64.6277 86.6702 64.2254 86.4409 63.7763 86.31C63.3178 86.1696 62.8733 86.0994 62.4429 86.0994C62.0125 86.0994 61.5728 86.1696 61.1236 86.31C60.6745 86.4409 60.2722 86.6702 59.9166 86.9977C59.5611 87.3158 59.3131 87.7509 59.1728 88.3029C59.1166 88.5088 59.0792 88.7287 59.0605 88.9626C59.0418 89.1871 59.0324 89.3977 59.0324 89.5942V94.4222H65.8535ZM69.0254 80.6678H48.8149V77.2854H69.0254V80.6678ZM69.0254 73.3797H48.8149V69.9972H65.8535V63.7516H48.8149V60.3692H65.8535V54.1095H48.8149V50.7411H69.0254L69.0254 73.3797Z" fill="white"/>
<path d="M109.053 2H466.947C479.35 2 489.404 12.054 489.404 24.4561V219.544C489.404 231.946 479.35 242 466.947 242H109.053V2Z" fill="white"/>
<path d="M132.113 47.1443C131.131 47.1443 130.276 47.0003 129.549 46.7121C128.822 46.4239 128.213 46.0505 127.722 45.5921C127.237 45.127 126.867 44.6325 126.612 44.1086L128.4 42.9493C128.557 43.3357 128.793 43.6992 129.107 44.0398C129.428 44.3804 129.841 44.6587 130.345 44.8749C130.856 45.0845 131.475 45.1893 132.202 45.1893C132.929 45.1893 133.528 45.0812 134 44.865C134.471 44.6424 134.822 44.3476 135.051 43.9808C135.287 43.6075 135.405 43.1883 135.405 42.7233C135.405 42.1797 135.261 41.7605 134.972 41.4657C134.691 41.1645 134.314 40.9549 133.843 40.837C133.371 40.7125 132.86 40.6405 132.31 40.6208C131.851 40.6077 131.521 40.5979 131.318 40.5914C131.115 40.5783 130.977 40.5717 130.905 40.5717C130.84 40.5717 130.777 40.5717 130.718 40.5717V38.6265C130.79 38.6265 130.915 38.6265 131.092 38.6265C131.275 38.6265 131.465 38.6265 131.662 38.6265C131.858 38.6199 132.019 38.6134 132.143 38.6068C132.955 38.5675 133.61 38.3677 134.108 38.0075C134.612 37.6473 134.864 37.1364 134.864 36.4749C134.864 35.8134 134.619 35.2927 134.128 34.9128C133.643 34.5329 133.004 34.3429 132.212 34.3429C131.459 34.3429 130.81 34.5165 130.266 34.8636C129.723 35.2042 129.304 35.6267 129.009 36.131L127.496 34.7065C127.968 34.0515 128.613 33.5046 129.431 33.0657C130.25 32.6269 131.197 32.4075 132.271 32.4075C132.88 32.4075 133.469 32.4894 134.039 32.6531C134.609 32.8103 135.12 33.0526 135.572 33.3801C136.024 33.7076 136.381 34.1235 136.643 34.6279C136.911 35.1256 137.045 35.7184 137.045 36.4061C137.045 37.0938 136.905 37.716 136.623 38.2728C136.348 38.8295 135.978 39.2716 135.513 39.5991C136.161 39.8414 136.669 40.2246 137.036 40.7486C137.402 41.266 137.586 41.9275 137.586 42.7331C137.586 43.637 137.347 44.4197 136.869 45.0812C136.397 45.7362 135.749 46.2438 134.923 46.604C134.105 46.9642 133.168 47.1443 132.113 47.1443ZM142.681 47.1443C141.896 47.1443 141.237 47.0003 140.707 46.7121C140.176 46.4173 139.773 46.0309 139.498 45.5528C139.23 45.0681 139.096 44.5376 139.096 43.9612C139.096 43.4241 139.19 42.9525 139.38 42.5465C139.57 42.1404 139.852 41.7965 140.225 41.5149C140.599 41.2267 141.057 40.9942 141.601 40.8173C142.072 40.6798 142.606 40.5586 143.202 40.4538C143.798 40.349 144.424 40.2508 145.079 40.1591C145.74 40.0674 146.395 39.9757 147.044 39.884L146.297 40.2966C146.31 39.4648 146.133 38.8491 145.766 38.4496C145.406 38.0435 144.784 37.8405 143.9 37.8405C143.343 37.8405 142.832 37.9715 142.367 38.2335C141.902 38.4889 141.578 38.9146 141.394 39.5107L139.479 38.9212C139.741 38.0108 140.238 37.287 140.972 36.75C141.712 36.2129 142.695 35.9443 143.919 35.9443C144.869 35.9443 145.694 36.1081 146.395 36.4356C147.103 36.7565 147.62 37.2674 147.947 37.9682C148.118 38.3153 148.223 38.6821 148.262 39.0686C148.301 39.455 148.321 39.8709 148.321 40.3163V46.8496H146.503V44.4229L146.857 44.7373C146.418 45.5495 145.858 46.1553 145.177 46.5549C144.502 46.9479 143.67 47.1443 142.681 47.1443ZM143.045 45.4643C143.628 45.4643 144.129 45.3628 144.548 45.1598C144.967 44.9502 145.305 44.6849 145.56 44.364C145.816 44.0431 145.983 43.709 146.061 43.3619C146.172 43.0475 146.235 42.6938 146.248 42.3008C146.267 41.9079 146.277 41.5935 146.277 41.3577L146.945 41.6033C146.297 41.7015 145.707 41.79 145.177 41.8686C144.646 41.9472 144.165 42.0257 143.733 42.1043C143.307 42.1764 142.927 42.2648 142.593 42.3696C142.311 42.4679 142.059 42.5857 141.837 42.7233C141.62 42.8608 141.447 43.0279 141.316 43.2243C141.191 43.4208 141.129 43.6599 141.129 43.9415C141.129 44.2166 141.198 44.4721 141.336 44.7079C141.473 44.9371 141.683 45.1205 141.964 45.258C142.246 45.3956 142.606 45.4643 143.045 45.4643ZM157.15 46.8496V43.1556C156.79 43.339 156.367 43.4896 155.882 43.6075C155.398 43.7188 154.887 43.7745 154.35 43.7745C153.263 43.7745 152.388 43.5322 151.727 43.0475C151.072 42.5563 150.646 41.8489 150.449 40.9254C150.397 40.6503 150.358 40.3687 150.332 40.0805C150.305 39.7857 150.289 39.5172 150.282 39.2749C150.282 39.0325 150.282 38.8524 150.282 38.7345V36.2391H152.365V38.7345C152.365 38.9048 152.372 39.1308 152.385 39.4124C152.398 39.6875 152.434 39.956 152.493 40.218C152.617 40.8075 152.866 41.2463 153.24 41.5345C153.613 41.8162 154.14 41.957 154.821 41.957C155.313 41.957 155.755 41.8948 156.148 41.7703C156.547 41.6393 156.881 41.4723 157.15 41.2693V36.2391H159.223V46.8496H157.15ZM170.922 36.2391V46.8496H168.948V39.4714L163.642 46.8496H161.972V36.2391H163.947V43.47L169.262 36.2391H170.922ZM178.207 47.1443C177.12 47.1443 176.196 46.902 175.436 46.4173C174.677 45.9327 174.094 45.2679 173.688 44.4229C173.288 43.578 173.085 42.6185 173.079 41.5443C173.085 40.4505 173.295 39.4845 173.707 38.6461C174.12 37.8012 174.709 37.1397 175.476 36.6615C176.242 36.1834 177.162 35.9443 178.236 35.9443C179.396 35.9443 180.385 36.2325 181.203 36.8089C182.029 37.3853 182.572 38.1745 182.834 39.1766L180.791 39.7661C180.588 39.1701 180.254 38.7083 179.789 38.3808C179.33 38.0468 178.803 37.8798 178.207 37.8798C177.532 37.8798 176.979 38.0403 176.547 38.3612C176.114 38.6756 175.793 39.1079 175.584 39.658C175.374 40.2082 175.266 40.837 175.26 41.5443C175.266 42.6381 175.515 43.5224 176.006 44.197C176.504 44.8716 177.238 45.2089 178.207 45.2089C178.868 45.2089 179.402 45.0583 179.808 44.757C180.221 44.4491 180.535 44.0103 180.752 43.4405L182.834 43.9317C182.487 44.9666 181.914 45.7624 181.115 46.3191C180.316 46.8693 179.347 47.1443 178.207 47.1443ZM183.565 46.8496V45.1107C183.958 45.1827 184.256 45.1729 184.46 45.0812C184.669 44.9829 184.823 44.8061 184.921 44.5507C185.026 44.2952 185.114 43.9645 185.187 43.5584C185.298 42.9624 185.393 42.2845 185.471 41.5247C185.557 40.7584 185.632 39.9298 185.697 39.0391C185.763 38.1483 185.822 37.215 185.874 36.2391H193.498V46.8496H191.435V38.1745H187.721C187.682 38.6919 187.636 39.2421 187.584 39.825C187.538 40.4014 187.485 40.9745 187.427 41.5443C187.368 42.1142 187.305 42.648 187.24 43.1457C187.174 43.6435 187.106 44.0693 187.034 44.4229C186.903 45.1303 186.709 45.6936 186.454 46.1128C186.205 46.5254 185.851 46.7907 185.393 46.9086C184.934 47.033 184.325 47.0134 183.565 46.8496ZM200.959 47.1443C199.904 47.1443 198.978 46.9151 198.179 46.4566C197.386 45.9916 196.767 45.3465 196.322 44.5212C195.883 43.6894 195.663 42.7266 195.663 41.6328C195.663 40.4735 195.88 39.4681 196.312 38.6166C196.751 37.7652 197.36 37.1069 198.139 36.6419C198.919 36.1769 199.826 35.9443 200.861 35.9443C201.941 35.9443 202.862 36.1965 203.621 36.7008C204.381 37.1986 204.948 37.9093 205.321 38.8328C205.701 39.7563 205.852 40.8534 205.773 42.124H203.72V41.3773C203.707 40.146 203.471 39.2356 203.012 38.6461C202.56 38.0566 201.869 37.7619 200.939 37.7619C199.911 37.7619 199.138 38.0861 198.621 38.7345C198.103 39.3829 197.845 40.3196 197.845 41.5443C197.845 42.7102 198.103 43.6141 198.621 44.2559C199.138 44.8912 199.885 45.2089 200.861 45.2089C201.503 45.2089 202.056 45.0648 202.521 44.7766C202.993 44.4819 203.359 44.0627 203.621 43.5191L205.635 44.1577C205.223 45.1074 204.597 45.8442 203.759 46.3682C202.921 46.8856 201.987 47.1443 200.959 47.1443ZM197.176 42.124V40.5226H204.751V42.124H197.176ZM207.967 46.8496V36.2391H210.021V40.5717H215.198V36.2391H217.252V46.8496H215.198V42.5072H210.021V46.8496H207.967ZM228.949 36.2391V46.8496H226.974V39.4714L221.669 46.8496H219.999V36.2391H221.973V43.47L227.288 36.2391H228.949ZM236.4 47.1443C235.346 47.1443 234.419 46.9151 233.62 46.4566C232.827 45.9916 232.208 45.3465 231.763 44.5212C231.324 43.6894 231.105 42.7266 231.105 41.6328C231.105 40.4735 231.321 39.4681 231.753 38.6166C232.192 37.7652 232.801 37.1069 233.581 36.6419C234.36 36.1769 235.267 35.9443 236.302 35.9443C237.383 35.9443 238.303 36.1965 239.063 36.7008C239.822 37.1986 240.389 37.9093 240.762 38.8328C241.142 39.7563 241.293 40.8534 241.214 42.124H239.161V41.3773C239.148 40.146 238.912 39.2356 238.454 38.6461C238.002 38.0566 237.311 37.7619 236.381 37.7619C235.352 37.7619 234.579 38.0861 234.062 38.7345C233.545 39.3829 233.286 40.3196 233.286 41.5443C233.286 42.7102 233.545 43.6141 234.062 44.2559C234.579 44.8912 235.326 45.2089 236.302 45.2089C236.944 45.2089 237.497 45.0648 237.962 44.7766C238.434 44.4819 238.801 44.0627 239.063 43.5191L241.077 44.1577C240.664 45.1074 240.039 45.8442 239.2 46.3682C238.362 46.8856 237.429 47.1443 236.4 47.1443ZM232.618 42.124V40.5226H240.193V42.124H232.618ZM253.345 46.8496V44.3836H246.959V42.4384L251.557 32.7022H253.905L249.307 42.4384H253.345V38.6068H255.428V42.4384H256.833V44.3836H255.428V46.8496H253.345ZM264.124 47.1443C263.161 47.1443 262.309 46.9348 261.569 46.5156C260.829 46.0898 260.246 45.5069 259.82 44.7668C259.401 44.0267 259.192 43.1752 259.192 42.2124V37.3394C259.192 36.3766 259.401 35.5252 259.82 34.785C260.246 34.0449 260.829 33.4653 261.569 33.0461C262.309 32.6204 263.161 32.4075 264.124 32.4075C265.086 32.4075 265.938 32.6204 266.678 33.0461C267.418 33.4653 267.998 34.0449 268.417 34.785C268.843 35.5252 269.055 36.3766 269.055 37.3394V42.2124C269.055 43.1752 268.843 44.0267 268.417 44.7668C267.998 45.5069 267.418 46.0898 266.678 46.5156C265.938 46.9348 265.086 47.1443 264.124 47.1443ZM264.124 45.1794C264.647 45.1794 265.122 45.055 265.548 44.8061C265.98 44.5507 266.324 44.2101 266.58 43.7843C266.835 43.3521 266.963 42.8707 266.963 42.3401V37.1921C266.963 36.6681 266.835 36.1932 266.58 35.7675C266.324 35.3352 265.98 34.9946 265.548 34.7457C265.122 34.4903 264.647 34.3626 264.124 34.3626C263.6 34.3626 263.121 34.4903 262.689 34.7457C262.263 34.9946 261.923 35.3352 261.667 35.7675C261.412 36.1932 261.284 36.6681 261.284 37.1921V42.3401C261.284 42.8707 261.412 43.3521 261.667 43.7843C261.923 44.2101 262.263 44.5507 262.689 44.8061C263.121 45.055 263.6 45.1794 264.124 45.1794ZM271.798 41.5935V39.8152H278.489C278.594 39.8152 278.722 39.8119 278.872 39.8054C279.029 39.7923 279.196 39.7596 279.373 39.7072C279.976 39.5565 280.415 39.2585 280.69 38.8131C280.971 38.3677 281.112 37.8536 281.112 37.2707C281.112 36.9104 281.053 36.5567 280.935 36.2096C280.824 35.8559 280.641 35.5481 280.385 35.2861C280.136 35.0176 279.799 34.8342 279.373 34.7359C279.209 34.6901 279.042 34.6639 278.872 34.6573C278.702 34.6442 278.574 34.6377 278.489 34.6377H274.638V32.7022H278.568C278.646 32.7022 278.784 32.7055 278.98 32.7121C279.183 32.7186 279.406 32.7415 279.648 32.7808C280.441 32.9053 281.099 33.1738 281.623 33.5865C282.154 33.9991 282.55 34.5198 282.812 35.1486C283.074 35.7708 283.205 36.4618 283.205 37.2215C283.205 38.3677 282.907 39.3273 282.311 40.1001C281.715 40.8665 280.827 41.338 279.648 41.5149C279.406 41.5542 279.183 41.5771 278.98 41.5836C278.784 41.5902 278.646 41.5935 278.568 41.5935H271.798ZM271.798 44.7668V43.1163H279.923V44.7668H271.798ZM273.243 46.8496V32.7022H275.296V46.8496H273.243ZM289.097 46.8496V36.2391H291.15V40.5717H296.328V36.2391H298.381V46.8496H296.328V42.5072H291.15V46.8496H289.097ZM304.134 47.1443C303.348 47.1443 302.69 47.0003 302.16 46.7121C301.629 46.4173 301.226 46.0309 300.951 45.5528C300.683 45.0681 300.548 44.5376 300.548 43.9612C300.548 43.4241 300.643 42.9525 300.833 42.5465C301.023 42.1404 301.305 41.7965 301.678 41.5149C302.052 41.2267 302.51 40.9942 303.054 40.8173C303.525 40.6798 304.059 40.5586 304.655 40.4538C305.251 40.349 305.877 40.2508 306.532 40.1591C307.193 40.0674 307.848 39.9757 308.496 39.884L307.75 40.2966C307.763 39.4648 307.586 38.8491 307.219 38.4496C306.859 38.0435 306.237 37.8405 305.353 37.8405C304.796 37.8405 304.285 37.9715 303.82 38.2335C303.355 38.4889 303.031 38.9146 302.847 39.5107L300.932 38.9212C301.194 38.0108 301.691 37.287 302.425 36.75C303.165 36.2129 304.147 35.9443 305.372 35.9443C306.322 35.9443 307.147 36.1081 307.848 36.4356C308.555 36.7565 309.073 37.2674 309.4 37.9682C309.571 38.3153 309.675 38.6821 309.715 39.0686C309.754 39.455 309.774 39.8709 309.774 40.3163V46.8496H307.956V44.4229L308.31 44.7373C307.871 45.5495 307.311 46.1553 306.63 46.5549C305.955 46.9479 305.123 47.1443 304.134 47.1443ZM304.498 45.4643C305.081 45.4643 305.582 45.3628 306.001 45.1598C306.42 44.9502 306.757 44.6849 307.013 44.364C307.268 44.0431 307.435 43.709 307.514 43.3619C307.625 43.0475 307.688 42.6938 307.701 42.3008C307.72 41.9079 307.73 41.5935 307.73 41.3577L308.398 41.6033C307.75 41.7015 307.16 41.79 306.63 41.8686C306.099 41.9472 305.618 42.0257 305.186 42.1043C304.76 42.1764 304.38 42.2648 304.046 42.3696C303.764 42.4679 303.512 42.5857 303.289 42.7233C303.073 42.8608 302.9 43.0279 302.769 43.2243C302.644 43.4208 302.582 43.6599 302.582 43.9415C302.582 44.2166 302.651 44.4721 302.788 44.7079C302.926 44.9371 303.136 45.1205 303.417 45.258C303.699 45.3956 304.059 45.4643 304.498 45.4643ZM320.621 47.1542C319.612 47.1476 318.754 46.9282 318.047 46.4959C317.339 46.0636 316.786 45.4414 316.386 44.6293C315.993 43.8105 315.764 42.8248 315.698 41.6721C315.666 41.1153 315.669 40.4997 315.708 39.825C315.748 39.1439 315.82 38.4856 315.924 37.8503C316.036 37.215 316.177 36.6845 316.347 36.2587C316.537 35.7872 316.796 35.3549 317.123 34.9619C317.45 34.5624 317.811 34.2283 318.204 33.9598C318.623 33.6716 319.088 33.4489 319.599 33.2917C320.11 33.128 320.643 33.0003 321.2 32.9086C321.763 32.8169 322.33 32.7383 322.9 32.6728C323.476 32.6007 324.036 32.5123 324.58 32.4075L324.776 34.2447C324.416 34.3298 323.99 34.3986 323.499 34.451C323.014 34.5034 322.51 34.5624 321.986 34.6279C321.469 34.6934 320.974 34.785 320.503 34.9029C320.031 35.0208 319.622 35.1879 319.275 35.404C318.783 35.7053 318.407 36.1441 318.145 36.7205C317.889 37.2969 317.735 37.9224 317.683 38.597C318.089 37.9813 318.607 37.5392 319.235 37.2707C319.864 36.9956 320.516 36.858 321.19 36.858C322.134 36.858 322.946 37.0807 323.627 37.5261C324.315 37.9715 324.842 38.5773 325.209 39.3436C325.575 40.11 325.759 40.9778 325.759 41.9472C325.759 42.9951 325.543 43.9121 325.11 44.698C324.685 45.4774 324.085 46.0866 323.312 46.5254C322.54 46.9577 321.642 47.1673 320.621 47.1542ZM320.729 45.2187C321.672 45.2187 322.382 44.9273 322.861 44.3443C323.345 43.7614 323.588 42.9853 323.588 42.0159C323.588 41.0204 323.339 40.2377 322.841 39.6679C322.343 39.098 321.639 38.8131 320.729 38.8131C319.805 38.8131 319.098 39.098 318.607 39.6679C318.122 40.2377 317.88 41.0204 317.88 42.0159C317.88 43.0246 318.125 43.8105 318.616 44.3738C319.108 44.9371 319.812 45.2187 320.729 45.2187ZM330.922 47.1443C330.136 47.1443 329.477 47.0003 328.947 46.7121C328.416 46.4173 328.014 46.0309 327.738 45.5528C327.47 45.0681 327.336 44.5376 327.336 43.9612C327.336 43.4241 327.431 42.9525 327.621 42.5465C327.811 42.1404 328.092 41.7965 328.465 41.5149C328.839 41.2267 329.297 40.9942 329.841 40.8173C330.312 40.6798 330.846 40.5586 331.442 40.4538C332.038 40.349 332.664 40.2508 333.319 40.1591C333.98 40.0674 334.635 39.9757 335.284 39.884L334.537 40.2966C334.55 39.4648 334.373 38.8491 334.007 38.4496C333.646 38.0435 333.024 37.8405 332.14 37.8405C331.583 37.8405 331.072 37.9715 330.607 38.2335C330.142 38.4889 329.818 38.9146 329.635 39.5107L327.719 38.9212C327.981 38.0108 328.479 37.287 329.212 36.75C329.952 36.2129 330.935 35.9443 332.16 35.9443C333.109 35.9443 333.934 36.1081 334.635 36.4356C335.343 36.7565 335.86 37.2674 336.188 37.9682C336.358 38.3153 336.463 38.6821 336.502 39.0686C336.541 39.455 336.561 39.8709 336.561 40.3163V46.8496H334.743V44.4229L335.097 44.7373C334.658 45.5495 334.098 46.1553 333.417 46.5549C332.742 46.9479 331.911 47.1443 330.922 47.1443ZM331.285 45.4643C331.868 45.4643 332.369 45.3628 332.788 45.1598C333.207 44.9502 333.545 44.6849 333.8 44.364C334.056 44.0431 334.223 43.709 334.301 43.3619C334.413 43.0475 334.475 42.6938 334.488 42.3008C334.508 41.9079 334.517 41.5935 334.517 41.3577L335.185 41.6033C334.537 41.7015 333.948 41.79 333.417 41.8686C332.887 41.9472 332.405 42.0257 331.973 42.1043C331.547 42.1764 331.167 42.2648 330.833 42.3696C330.552 42.4679 330.299 42.5857 330.077 42.7233C329.861 42.8608 329.687 43.0279 329.556 43.2243C329.432 43.4208 329.369 43.6599 329.369 43.9415C329.369 44.2166 329.438 44.4721 329.576 44.7079C329.713 44.9371 329.923 45.1205 330.204 45.258C330.486 45.3956 330.846 45.4643 331.285 45.4643ZM338.13 46.8496V45.1107C338.523 45.1827 338.821 45.1729 339.024 45.0812C339.233 44.9829 339.387 44.8061 339.485 44.5507C339.59 44.2952 339.679 43.9645 339.751 43.5584C339.862 42.9624 339.957 42.2845 340.036 41.5247C340.121 40.7584 340.196 39.9298 340.262 39.0391C340.327 38.1483 340.386 37.215 340.438 36.2391H348.062V46.8496H345.999V38.1745H342.285C342.246 38.6919 342.2 39.2421 342.148 39.825C342.102 40.4014 342.05 40.9745 341.991 41.5443C341.932 42.1142 341.869 42.648 341.804 43.1457C341.739 43.6435 341.67 44.0693 341.598 44.4229C341.467 45.1303 341.273 45.6936 341.018 46.1128C340.769 46.5254 340.415 46.7907 339.957 46.9086C339.499 47.033 338.889 47.0134 338.13 46.8496ZM353.814 47.1443C353.028 47.1443 352.369 47.0003 351.839 46.7121C351.308 46.4173 350.906 46.0309 350.63 45.5528C350.362 45.0681 350.228 44.5376 350.228 43.9612C350.228 43.4241 350.323 42.9525 350.513 42.5465C350.702 42.1404 350.984 41.7965 351.357 41.5149C351.731 41.2267 352.189 40.9942 352.733 40.8173C353.204 40.6798 353.738 40.5586 354.334 40.4538C354.93 40.349 355.556 40.2508 356.211 40.1591C356.872 40.0674 357.527 39.9757 358.176 39.884L357.429 40.2966C357.442 39.4648 357.265 38.8491 356.899 38.4496C356.538 38.0435 355.916 37.8405 355.032 37.8405C354.475 37.8405 353.964 37.9715 353.499 38.2335C353.034 38.4889 352.71 38.9146 352.527 39.5107L350.611 38.9212C350.873 38.0108 351.371 37.287 352.104 36.75C352.844 36.2129 353.827 35.9443 355.052 35.9443C356.001 35.9443 356.826 36.1081 357.527 36.4356C358.235 36.7565 358.752 37.2674 359.08 37.9682C359.25 38.3153 359.355 38.6821 359.394 39.0686C359.433 39.455 359.453 39.8709 359.453 40.3163V46.8496H357.635V44.4229L357.989 44.7373C357.55 45.5495 356.99 46.1553 356.309 46.5549C355.634 46.9479 354.803 47.1443 353.814 47.1443ZM354.177 45.4643C354.76 45.4643 355.261 45.3628 355.68 45.1598C356.099 44.9502 356.437 44.6849 356.692 44.364C356.948 44.0431 357.115 43.709 357.193 43.3619C357.305 43.0475 357.367 42.6938 357.38 42.3008C357.4 41.9079 357.409 41.5935 357.409 41.3577L358.077 41.6033C357.429 41.7015 356.84 41.79 356.309 41.8686C355.779 41.9472 355.297 42.0257 354.865 42.1043C354.439 42.1764 354.059 42.2648 353.725 42.3696C353.444 42.4679 353.191 42.5857 352.969 42.7233C352.753 42.8608 352.579 43.0279 352.448 43.2243C352.324 43.4208 352.261 43.6599 352.261 43.9415C352.261 44.2166 352.33 44.4721 352.468 44.7079C352.605 44.9371 352.815 45.1205 353.096 45.258C353.378 45.3956 353.738 45.4643 354.177 45.4643ZM361.994 46.8496V36.2391H364.048V40.5717H369.225V36.2391H371.278V46.8496H369.225V42.5072H364.048V46.8496H361.994ZM378.574 47.1443C377.487 47.1443 376.564 46.902 375.804 46.4173C375.044 45.9327 374.461 45.2679 374.055 44.4229C373.655 43.578 373.452 42.6185 373.446 41.5443C373.452 40.4505 373.662 39.4845 374.075 38.6461C374.487 37.8012 375.077 37.1397 375.843 36.6615C376.609 36.1834 377.53 35.9443 378.604 35.9443C379.763 35.9443 380.752 36.2325 381.571 36.8089C382.396 37.3853 382.94 38.1745 383.202 39.1766L381.158 39.7661C380.955 39.1701 380.621 38.7083 380.156 38.3808C379.698 38.0468 379.17 37.8798 378.574 37.8798C377.9 37.8798 377.346 38.0403 376.914 38.3612C376.482 38.6756 376.161 39.1079 375.951 39.658C375.742 40.2082 375.633 40.837 375.627 41.5443C375.633 42.6381 375.882 43.5224 376.374 44.197C376.871 44.8716 377.605 45.2089 378.574 45.2089C379.236 45.2089 379.77 45.0583 380.176 44.757C380.588 44.4491 380.903 44.0103 381.119 43.4405L383.202 43.9317C382.855 44.9666 382.281 45.7624 381.482 46.3191C380.683 46.8693 379.714 47.1443 378.574 47.1443Z" fill="#5B5760"/>
<path d="M127.663 83.8496V65.6601H134.876C136.105 65.6601 137.111 65.9086 137.895 66.4054C138.686 66.8938 139.271 67.5212 139.65 68.2875C140.038 69.0538 140.231 69.8454 140.231 70.6622C140.231 71.6643 139.991 72.5149 139.511 73.2138C139.04 73.9128 138.396 74.3843 137.579 74.6286V73.997C138.724 74.258 139.591 74.8012 140.181 75.6265C140.779 76.4517 141.078 77.3907 141.078 78.4433C141.078 79.5212 140.871 80.4643 140.459 81.2728C140.046 82.0812 139.431 82.7128 138.615 83.1675C137.806 83.6222 136.804 83.8496 135.608 83.8496H127.663ZM130.745 80.9822H135.229C135.76 80.9822 136.236 80.877 136.657 80.6665C137.078 80.4475 137.406 80.1443 137.642 79.757C137.886 79.3612 138.008 78.8938 138.008 78.3549C138.008 77.8665 137.903 77.4286 137.692 77.0412C137.482 76.6538 137.175 76.3465 136.77 76.1191C136.366 75.8833 135.882 75.7654 135.318 75.7654H130.745V80.9822ZM130.745 72.9233H134.838C135.276 72.9233 135.667 72.8391 136.012 72.6707C136.358 72.5022 136.631 72.2538 136.833 71.9254C137.036 71.597 137.137 71.1928 137.137 70.7128C137.137 70.0812 136.935 69.5549 136.53 69.1338C136.126 68.7128 135.562 68.5022 134.838 68.5022H130.745V72.9233ZM143.575 83.8496V65.6601H146.619V72.0138H151.091C151.259 72.0138 151.487 72.0222 151.773 72.0391C152.059 72.0475 152.32 72.0728 152.556 72.1149C153.6 72.2749 154.464 72.6243 155.146 73.1633C155.836 73.7022 156.346 74.3843 156.674 75.2096C157.011 76.0265 157.179 76.9317 157.179 77.9254C157.179 78.9275 157.011 79.8412 156.674 80.6665C156.346 81.4833 155.836 82.1612 155.146 82.7001C154.464 83.2391 153.6 83.5886 152.556 83.7486C152.32 83.7822 152.059 83.8075 151.773 83.8243C151.495 83.8412 151.268 83.8496 151.091 83.8496H143.575ZM146.619 80.9949H150.965C151.142 80.9949 151.331 80.9865 151.533 80.9696C151.744 80.9528 151.942 80.9233 152.127 80.8812C152.624 80.7549 153.015 80.5317 153.302 80.2117C153.596 79.8917 153.803 79.5296 153.92 79.1254C154.047 78.7128 154.11 78.3128 154.11 77.9254C154.11 77.538 154.047 77.1422 153.92 76.738C153.803 76.3338 153.596 75.9717 153.302 75.6517C153.015 75.3317 152.624 75.1086 152.127 74.9822C151.942 74.9317 151.744 74.898 151.533 74.8812C151.331 74.8643 151.142 74.8559 150.965 74.8559H146.619V80.9949ZM158.998 83.8496V65.6601H162.043V83.8496H158.998ZM180.16 83.8496H177.078V71.0286L168.64 83.8496H165.558V65.6601H168.64V78.4812L177.078 65.6601H180.16V83.8496ZM183.691 83.8496V65.6601H195.438V68.5149H186.735V83.8496H183.691ZM197.457 83.8496V65.6601H204.973C205.15 65.6601 205.377 65.6686 205.655 65.6854C205.933 65.6938 206.19 65.7191 206.426 65.7612C207.478 65.9212 208.346 66.2707 209.028 66.8096C209.718 67.3486 210.228 68.0307 210.556 68.8559C210.893 69.6728 211.062 70.5822 211.062 71.5843C211.062 72.578 210.893 73.4875 210.556 74.3128C210.219 75.1296 209.706 75.8075 209.015 76.3465C208.333 76.8854 207.47 77.2349 206.426 77.3949C206.19 77.4286 205.929 77.4538 205.643 77.4707C205.365 77.4875 205.142 77.4959 204.973 77.4959H200.502V83.8496H197.457ZM200.502 74.6538H204.847C205.015 74.6538 205.205 74.6454 205.415 74.6286C205.626 74.6117 205.819 74.578 205.996 74.5275C206.502 74.4012 206.897 74.178 207.184 73.858C207.478 73.538 207.685 73.1759 207.803 72.7717C207.929 72.3675 207.992 71.9717 207.992 71.5843C207.992 71.197 207.929 70.8012 207.803 70.397C207.685 69.9843 207.478 69.618 207.184 69.298C206.897 68.978 206.502 68.7549 205.996 68.6286C205.819 68.578 205.626 68.5486 205.415 68.5401C205.205 68.5233 205.015 68.5149 204.847 68.5149H200.502V74.6538ZM213.567 83.8496V65.6601H216.611V72.0138H221.083C221.251 72.0138 221.479 72.0222 221.765 72.0391C222.051 72.0475 222.312 72.0728 222.548 72.1149C223.592 72.2749 224.455 72.6243 225.137 73.1633C225.828 73.7022 226.337 74.3843 226.666 75.2096C227.003 76.0265 227.171 76.9317 227.171 77.9254C227.171 78.9275 227.003 79.8412 226.666 80.6665C226.337 81.4833 225.828 82.1612 225.137 82.7001C224.455 83.2391 223.592 83.5886 222.548 83.7486C222.312 83.7822 222.051 83.8075 221.765 83.8243C221.487 83.8412 221.26 83.8496 221.083 83.8496H213.567ZM216.611 80.9949H220.956C221.133 80.9949 221.323 80.9865 221.525 80.9696C221.735 80.9528 221.933 80.9233 222.119 80.8812C222.615 80.7549 223.007 80.5317 223.293 80.2117C223.588 79.8917 223.794 79.5296 223.912 79.1254C224.039 78.7128 224.102 78.3128 224.102 77.9254C224.102 77.538 224.039 77.1422 223.912 76.738C223.794 76.3338 223.588 75.9717 223.293 75.6517C223.007 75.3317 222.615 75.1086 222.119 74.9822C221.933 74.9317 221.735 74.898 221.525 74.8812C221.323 74.8643 221.133 74.8559 220.956 74.8559H216.611V80.9949ZM228.99 83.8496V65.6601H232.034V83.8496H228.99ZM235.549 83.8496V65.6601H238.594V80.9949H244.215V65.6601H247.259V80.9949H252.893V65.6601H255.924V83.8496H235.549ZM272.067 83.8496V80.8433H264.008V78.0012L269.831 65.6601H273.305L267.482 78.0012H272.067V73.2643H275.149V78.0012H276.854V80.8433H275.149V83.8496H272.067ZM286.427 84.2286C285.138 84.2286 284.001 83.9549 283.016 83.4075C282.031 82.8517 281.26 82.0812 280.704 81.0959C280.157 80.1107 279.883 78.9738 279.883 77.6854V71.8243C279.883 70.5359 280.157 69.3991 280.704 68.4138C281.26 67.4286 282.031 66.6622 283.016 66.1149C284.001 65.5591 285.138 65.2812 286.427 65.2812C287.715 65.2812 288.848 65.5591 289.824 66.1149C290.81 66.6622 291.58 67.4286 292.136 68.4138C292.692 69.3991 292.97 70.5359 292.97 71.8243V77.6854C292.97 78.9738 292.692 80.1107 292.136 81.0959C291.58 82.0812 290.81 82.8517 289.824 83.4075C288.848 83.9549 287.715 84.2286 286.427 84.2286ZM286.427 81.3359C287.067 81.3359 287.648 81.1843 288.17 80.8812C288.692 80.5696 289.104 80.157 289.408 79.6433C289.711 79.1212 289.862 78.5401 289.862 77.9001V71.597C289.862 70.9486 289.711 70.3675 289.408 69.8538C289.104 69.3317 288.692 68.9191 288.17 68.6159C287.648 68.3043 287.067 68.1486 286.427 68.1486C285.787 68.1486 285.205 68.3043 284.683 68.6159C284.161 68.9191 283.749 69.3317 283.445 69.8538C283.142 70.3675 282.991 70.9486 282.991 71.597V77.9001C282.991 78.5401 283.142 79.1212 283.445 79.6433C283.749 80.157 284.161 80.5696 284.683 80.8812C285.205 81.1843 285.787 81.3359 286.427 81.3359ZM296.512 77.2307V74.6286H305.076C305.211 74.6286 305.375 74.6243 305.568 74.6159C305.771 74.5991 305.994 74.557 306.238 74.4896C306.937 74.2959 307.442 73.9465 307.754 73.4412C308.065 72.9275 308.221 72.3296 308.221 71.6475C308.221 71.2349 308.158 70.8222 308.032 70.4096C307.914 69.9886 307.707 69.618 307.413 69.298C307.126 68.978 306.735 68.7549 306.238 68.6286C306.019 68.5696 305.796 68.5359 305.568 68.5275C305.35 68.5191 305.185 68.5149 305.076 68.5149H300.314V65.6601H305.202C305.295 65.6601 305.476 65.6643 305.745 65.6728C306.023 65.6812 306.331 65.7107 306.667 65.7612C307.712 65.9212 308.575 66.2707 309.257 66.8096C309.947 67.3486 310.457 68.0307 310.785 68.8559C311.122 69.6728 311.291 70.5738 311.291 71.5591C311.291 73.0665 310.907 74.3128 310.141 75.298C309.375 76.2833 308.217 76.8938 306.667 77.1296C306.331 77.1717 306.023 77.2012 305.745 77.218C305.476 77.2265 305.295 77.2307 305.202 77.2307H296.512ZM296.512 81.3738V78.9865H307.286V81.3738H296.512ZM298.318 83.8496V65.6601H301.362V83.8496H298.318Z" fill="#232027"/>
<rect x="428.35" y="37.5943" width="43.5088" height="43.5088" rx="21.7544" fill="white"/>
<rect x="428.35" y="37.5943" width="43.5088" height="43.5088" rx="21.7544" stroke="#ECE7F8" stroke-width="1.40351"/>
<path d="M132.059 120.717C130.852 120.717 129.827 120.451 128.985 119.917C128.143 119.384 127.5 118.643 127.057 117.694C126.619 116.746 126.4 115.648 126.4 114.402C126.4 113.155 126.619 112.058 127.057 111.109C127.5 110.16 128.143 109.419 128.985 108.886C129.827 108.353 130.852 108.086 132.059 108.086C133.462 108.086 134.616 108.442 135.52 109.155C136.429 109.868 137.055 110.828 137.398 112.035L135.873 112.44C135.626 111.536 135.186 110.823 134.551 110.301C133.917 109.779 133.086 109.517 132.059 109.517C131.155 109.517 130.403 109.722 129.802 110.132C129.201 110.542 128.749 111.115 128.446 111.85C128.143 112.58 127.989 113.43 127.983 114.402C127.977 115.367 128.126 116.218 128.429 116.953C128.732 117.683 129.187 118.256 129.793 118.671C130.4 119.081 131.155 119.286 132.059 119.286C133.086 119.286 133.917 119.025 134.551 118.503C135.186 117.975 135.626 117.262 135.873 116.364L137.398 116.768C137.055 117.969 136.429 118.929 135.52 119.648C134.616 120.361 133.462 120.717 132.059 120.717ZM141.653 120.465V112.734H138.487V111.37H146.318V112.734H143.152V120.465H141.653ZM151.622 120.717C150.718 120.717 149.937 120.513 149.28 120.103C148.629 119.693 148.127 119.126 147.773 118.402C147.419 117.677 147.243 116.847 147.243 115.909C147.243 114.955 147.422 114.118 147.782 113.4C148.141 112.681 148.649 112.122 149.306 111.724C149.963 111.32 150.734 111.117 151.622 111.117C152.531 111.117 153.314 111.322 153.971 111.732C154.628 112.136 155.13 112.701 155.478 113.425C155.832 114.143 156.009 114.972 156.009 115.909C156.009 116.858 155.832 117.694 155.478 118.419C155.125 119.137 154.619 119.701 153.963 120.111C153.306 120.515 152.525 120.717 151.622 120.717ZM151.622 119.294C152.565 119.294 153.266 118.98 153.727 118.351C154.187 117.722 154.417 116.908 154.417 115.909C154.417 114.882 154.184 114.065 153.718 113.459C153.252 112.847 152.553 112.541 151.622 112.541C150.987 112.541 150.465 112.684 150.055 112.97C149.645 113.256 149.339 113.652 149.137 114.157C148.935 114.663 148.834 115.247 148.834 115.909C148.834 116.931 149.07 117.75 149.542 118.368C150.013 118.986 150.706 119.294 151.622 119.294ZM165.307 111.37V120.465H163.859V113.762L159.092 120.465H157.855V111.37H159.303V117.981L164.078 111.37H165.307ZM167.657 120.465V111.37H168.946L172.398 118.427L175.851 111.37H177.139V120.465H175.691V114.494L172.794 120.465H172.002L169.106 114.494V120.465H167.657ZM183.365 120.717C182.461 120.717 181.681 120.513 181.024 120.103C180.373 119.693 179.87 119.126 179.517 118.402C179.163 117.677 178.986 116.847 178.986 115.909C178.986 114.955 179.166 114.118 179.525 113.4C179.884 112.681 180.392 112.122 181.049 111.724C181.706 111.32 182.478 111.117 183.365 111.117C184.274 111.117 185.058 111.322 185.714 111.732C186.371 112.136 186.874 112.701 187.222 113.425C187.575 114.143 187.752 114.972 187.752 115.909C187.752 116.858 187.575 117.694 187.222 118.419C186.868 119.137 186.363 119.701 185.706 120.111C185.049 120.515 184.269 120.717 183.365 120.717ZM183.365 119.294C184.308 119.294 185.01 118.98 185.47 118.351C185.931 117.722 186.161 116.908 186.161 115.909C186.161 114.882 185.928 114.065 185.462 113.459C184.996 112.847 184.297 112.541 183.365 112.541C182.731 112.541 182.208 112.684 181.799 112.97C181.389 113.256 181.083 113.652 180.881 114.157C180.679 114.663 180.578 115.247 180.578 115.909C180.578 116.931 180.813 117.75 181.285 118.368C181.757 118.986 182.45 119.294 183.365 119.294ZM193.438 120.717C192.517 120.717 191.734 120.513 191.088 120.103C190.448 119.687 189.96 119.117 189.623 118.393C189.286 117.669 189.112 116.844 189.101 115.917C189.112 114.969 189.289 114.135 189.632 113.416C189.98 112.692 190.477 112.128 191.122 111.724C191.768 111.32 192.545 111.117 193.455 111.117C194.415 111.117 195.24 111.353 195.931 111.825C196.627 112.296 197.093 112.942 197.328 113.762L195.846 114.208C195.656 113.68 195.344 113.27 194.912 112.979C194.485 112.687 193.994 112.541 193.438 112.541C192.815 112.541 192.301 112.687 191.897 112.979C191.493 113.265 191.192 113.663 190.996 114.174C190.799 114.68 190.698 115.261 190.693 115.917C190.704 116.928 190.937 117.745 191.392 118.368C191.852 118.986 192.534 119.294 193.438 119.294C194.033 119.294 194.527 119.16 194.92 118.89C195.313 118.615 195.611 118.219 195.813 117.703L197.328 118.099C197.014 118.946 196.523 119.595 195.855 120.044C195.187 120.493 194.381 120.717 193.438 120.717ZM201.291 120.465V112.734H198.125V111.37H205.956V112.734H202.79V120.465H201.291ZM207.55 120.465L207.542 111.37H209.049V114.663H211.012C211.275 114.663 211.545 114.668 211.82 114.68C212.095 114.691 212.334 114.716 212.536 114.755C213.007 114.845 213.42 115.002 213.774 115.227C214.127 115.452 214.402 115.757 214.599 116.145C214.795 116.527 214.894 117.001 214.894 117.568C214.894 118.354 214.689 118.977 214.279 119.437C213.875 119.892 213.344 120.195 212.687 120.347C212.463 120.397 212.204 120.431 211.913 120.448C211.626 120.459 211.354 120.465 211.096 120.465H207.55ZM209.049 119.227H211.121C211.289 119.227 211.477 119.221 211.685 119.21C211.893 119.199 212.078 119.171 212.241 119.126C212.527 119.042 212.783 118.876 213.007 118.629C213.237 118.382 213.353 118.028 213.353 117.568C213.353 117.102 213.24 116.743 213.016 116.49C212.797 116.237 212.508 116.072 212.148 115.993C211.986 115.954 211.814 115.929 211.635 115.917C211.455 115.906 211.284 115.901 211.121 115.901H209.049V119.227ZM220.108 120.465V111.37H223.982C224.212 111.37 224.459 111.384 224.723 111.412C224.992 111.435 225.236 111.477 225.455 111.539C225.944 111.668 226.345 111.934 226.659 112.339C226.979 112.737 227.139 113.242 227.139 113.854C227.139 114.197 227.086 114.494 226.979 114.747C226.878 115 226.732 115.219 226.542 115.404C226.457 115.488 226.365 115.564 226.264 115.631C226.163 115.699 226.062 115.752 225.96 115.791C226.157 115.825 226.356 115.901 226.558 116.019C226.878 116.193 227.128 116.437 227.308 116.751C227.493 117.066 227.586 117.467 227.586 117.955C227.586 118.573 227.437 119.084 227.139 119.488C226.842 119.887 226.432 120.162 225.91 120.313C225.691 120.375 225.45 120.417 225.186 120.44C224.922 120.456 224.666 120.465 224.419 120.465H220.108ZM221.624 119.244H224.335C224.453 119.244 224.593 119.233 224.756 119.21C224.925 119.188 225.073 119.16 225.203 119.126C225.494 119.042 225.705 118.884 225.834 118.654C225.969 118.424 226.036 118.174 226.036 117.905C226.036 117.546 225.935 117.254 225.733 117.029C225.537 116.804 225.276 116.664 224.95 116.608C224.832 116.574 224.703 116.555 224.563 116.549C224.428 116.543 224.307 116.541 224.2 116.541H221.624V119.244ZM221.624 115.303H223.88C224.038 115.303 224.203 115.294 224.377 115.277C224.551 115.255 224.703 115.219 224.832 115.168C225.09 115.073 225.278 114.915 225.396 114.696C225.52 114.472 225.582 114.228 225.582 113.964C225.582 113.672 225.514 113.416 225.379 113.197C225.25 112.973 225.051 112.819 224.782 112.734C224.602 112.667 224.4 112.63 224.175 112.625C223.956 112.614 223.816 112.608 223.754 112.608H221.624V115.303ZM233.454 120.717C232.601 120.717 231.882 120.507 231.298 120.086C230.715 119.659 230.271 119.084 229.968 118.36C229.67 117.63 229.522 116.813 229.522 115.909C229.522 114.994 229.67 114.174 229.968 113.45C230.271 112.726 230.715 112.156 231.298 111.741C231.888 111.325 232.609 111.117 233.463 111.117C234.305 111.117 235.029 111.328 235.635 111.749C236.247 112.164 236.716 112.734 237.042 113.459C237.367 114.183 237.53 115 237.53 115.909C237.53 116.819 237.367 117.635 237.042 118.36C236.716 119.084 236.247 119.659 235.635 120.086C235.029 120.507 234.302 120.717 233.454 120.717ZM229.269 124.507V111.37H230.608V118.065H230.776V124.507H229.269ZM233.269 119.345C233.87 119.345 234.367 119.193 234.76 118.89C235.153 118.587 235.447 118.177 235.644 117.661C235.84 117.139 235.938 116.555 235.938 115.909C235.938 115.269 235.84 114.691 235.644 114.174C235.453 113.658 235.155 113.248 234.751 112.945C234.353 112.642 233.844 112.49 233.227 112.49C232.637 112.49 232.149 112.636 231.762 112.928C231.374 113.214 231.085 113.616 230.894 114.132C230.703 114.643 230.608 115.235 230.608 115.909C230.608 116.572 230.701 117.164 230.886 117.686C231.077 118.202 231.369 118.609 231.762 118.907C232.155 119.199 232.657 119.345 233.269 119.345ZM241.961 120.717C241.282 120.717 240.712 120.594 240.252 120.347C239.797 120.094 239.452 119.763 239.216 119.353C238.986 118.943 238.871 118.494 238.871 118.006C238.871 117.529 238.961 117.116 239.14 116.768C239.326 116.414 239.584 116.122 239.915 115.892C240.246 115.656 240.642 115.471 241.102 115.336C241.535 115.219 242.018 115.117 242.551 115.033C243.09 114.943 243.634 114.862 244.185 114.789C244.735 114.716 245.248 114.646 245.726 114.579L245.187 114.89C245.203 114.082 245.041 113.484 244.698 113.096C244.361 112.709 243.778 112.515 242.947 112.515C242.396 112.515 241.914 112.642 241.498 112.894C241.088 113.141 240.799 113.546 240.631 114.107L239.208 113.677C239.427 112.88 239.85 112.254 240.479 111.8C241.108 111.345 241.936 111.117 242.963 111.117C243.789 111.117 244.496 111.266 245.086 111.564C245.681 111.856 246.107 112.299 246.366 112.894C246.495 113.175 246.576 113.481 246.61 113.812C246.643 114.138 246.66 114.48 246.66 114.84V120.465H245.33V118.284L245.641 118.486C245.299 119.221 244.819 119.777 244.201 120.153C243.589 120.529 242.843 120.717 241.961 120.717ZM242.189 119.463C242.728 119.463 243.194 119.367 243.587 119.176C243.985 118.98 244.305 118.724 244.547 118.41C244.788 118.09 244.945 117.742 245.018 117.366C245.102 117.085 245.147 116.774 245.153 116.431C245.164 116.083 245.17 115.816 245.17 115.631L245.692 115.859C245.203 115.926 244.723 115.99 244.252 116.052C243.78 116.114 243.334 116.181 242.913 116.254C242.492 116.322 242.113 116.403 241.776 116.499C241.529 116.577 241.296 116.678 241.077 116.802C240.864 116.925 240.69 117.085 240.555 117.282C240.426 117.473 240.361 117.711 240.361 117.997C240.361 118.244 240.423 118.48 240.547 118.705C240.676 118.929 240.872 119.112 241.136 119.252C241.406 119.393 241.756 119.463 242.189 119.463ZM259.022 122.149V120.465H248.841V111.37H250.29V119.101H253.422V111.37H254.871V119.101H257.995V111.37H259.443V119.101H260.521V122.149H259.022ZM265.817 120.717C264.925 120.717 264.144 120.521 263.476 120.128C262.814 119.729 262.297 119.176 261.927 118.469C261.556 117.756 261.371 116.925 261.371 115.976C261.371 114.983 261.553 114.124 261.918 113.4C262.283 112.67 262.791 112.108 263.442 111.715C264.099 111.317 264.868 111.117 265.75 111.117C266.665 111.117 267.442 111.328 268.082 111.749C268.728 112.17 269.211 112.771 269.531 113.551C269.856 114.332 269.997 115.261 269.952 116.339H268.436V115.8C268.419 114.682 268.192 113.849 267.754 113.299C267.316 112.743 266.665 112.465 265.8 112.465C264.874 112.465 264.169 112.762 263.687 113.357C263.204 113.953 262.962 114.806 262.962 115.917C262.962 116.99 263.204 117.821 263.687 118.41C264.169 119 264.857 119.294 265.75 119.294C266.351 119.294 266.873 119.157 267.316 118.882C267.76 118.607 268.108 118.211 268.36 117.694L269.8 118.191C269.447 118.994 268.913 119.617 268.2 120.061C267.493 120.499 266.699 120.717 265.817 120.717ZM262.457 116.339V115.134H269.177V116.339H262.457ZM271.818 120.465V111.37H273.317V115.202H278.1V111.37H279.599V120.465H278.1V116.625H273.317V120.465H271.818ZM289.403 111.37V120.465H287.954V113.762L283.188 120.465H281.95V111.37H283.398V117.981L288.173 111.37H289.403ZM297.378 120.465V117.172H295.416C295.186 117.172 294.93 117.164 294.649 117.147C294.374 117.124 294.116 117.094 293.875 117.054C293.218 116.931 292.662 116.642 292.207 116.187C291.758 115.732 291.534 115.103 291.534 114.301C291.534 113.52 291.744 112.894 292.165 112.423C292.592 111.946 293.117 111.637 293.74 111.496C294.021 111.429 294.304 111.393 294.59 111.387C294.882 111.376 295.129 111.37 295.332 111.37H298.877L298.885 120.465H297.378ZM291.256 120.465L293.673 116.76H295.289L292.873 120.465H291.256ZM295.306 115.934H297.378V112.608H295.306C295.177 112.608 295.006 112.614 294.793 112.625C294.585 112.636 294.386 112.67 294.195 112.726C294.015 112.776 293.838 112.869 293.664 113.004C293.496 113.139 293.355 113.313 293.243 113.526C293.131 113.739 293.075 113.992 293.075 114.284C293.075 114.705 293.193 115.047 293.428 115.311C293.664 115.569 293.95 115.743 294.287 115.833C294.473 115.878 294.655 115.906 294.835 115.917C295.02 115.929 295.177 115.934 295.306 115.934ZM306.737 120.465V109.997L304.454 111.379V109.703L306.737 108.339H308.261V120.465H306.737ZM315.558 120.717C314.772 120.717 314.07 120.541 313.452 120.187C312.84 119.828 312.355 119.342 311.995 118.73C311.642 118.113 311.465 117.411 311.465 116.625V112.179C311.465 111.393 311.642 110.691 311.995 110.073C312.355 109.456 312.84 108.97 313.452 108.616C314.07 108.263 314.772 108.086 315.558 108.086C316.344 108.086 317.045 108.263 317.663 108.616C318.28 108.97 318.766 109.456 319.12 110.073C319.473 110.691 319.65 111.393 319.65 112.179V116.625C319.65 117.411 319.473 118.113 319.12 118.73C318.766 119.342 318.28 119.828 317.663 120.187C317.045 120.541 316.344 120.717 315.558 120.717ZM315.558 119.277C316.035 119.277 316.467 119.162 316.854 118.932C317.242 118.702 317.551 118.393 317.781 118.006C318.011 117.613 318.126 117.181 318.126 116.709V112.086C318.126 111.609 318.011 111.176 317.781 110.789C317.551 110.402 317.242 110.093 316.854 109.863C316.467 109.633 316.035 109.517 315.558 109.517C315.086 109.517 314.654 109.633 314.261 109.863C313.873 110.093 313.565 110.402 313.334 110.789C313.104 111.176 312.989 111.609 312.989 112.086V116.709C312.989 117.181 313.104 117.613 313.334 118.006C313.565 118.393 313.873 118.702 314.261 118.932C314.654 119.162 315.086 119.277 315.558 119.277ZM322.008 115.875V114.553H327.759C327.855 114.553 327.967 114.548 328.096 114.536C328.231 114.525 328.371 114.503 328.517 114.469C329.079 114.334 329.494 114.056 329.763 113.635C330.033 113.214 330.168 112.732 330.168 112.187C330.168 111.839 330.112 111.502 329.999 111.176C329.887 110.851 329.707 110.567 329.46 110.326C329.219 110.084 328.905 109.922 328.517 109.837C328.382 109.798 328.242 109.776 328.096 109.77C327.956 109.764 327.843 109.762 327.759 109.762H324.349V108.339H327.81C327.894 108.339 328.015 108.341 328.172 108.347C328.335 108.353 328.512 108.372 328.702 108.406C329.359 108.507 329.909 108.732 330.353 109.08C330.802 109.428 331.139 109.866 331.363 110.393C331.588 110.921 331.7 111.508 331.7 112.153C331.7 113.113 331.448 113.924 330.942 114.587C330.437 115.244 329.691 115.651 328.702 115.808C328.512 115.836 328.335 115.856 328.172 115.867C328.015 115.873 327.894 115.875 327.81 115.875H322.008ZM322.008 118.545V117.307H328.745V118.545H322.008ZM323.271 120.465V108.339H324.77V120.465H323.271ZM337.03 120.465V118.814H338.681V120.465H337.03Z" fill="#393540"/>
<path d="M128.219 143.048L127.116 142.248L128.421 140.606L126.4 140.016L126.821 138.72L128.791 139.452L128.716 137.339H130.08L130.004 139.452L131.975 138.72L132.396 140.016L130.375 140.606L131.671 142.248L130.568 143.048L129.398 141.313L128.219 143.048ZM143.946 149.465H142.43V139.983L136.106 149.465H134.59V137.339H136.106V146.812L142.43 137.339H143.946V149.465ZM150.132 149.717C149.211 149.717 148.428 149.513 147.783 149.103C147.143 148.687 146.654 148.117 146.317 147.393C145.98 146.669 145.806 145.844 145.795 144.917C145.806 143.969 145.983 143.135 146.326 142.416C146.674 141.692 147.171 141.128 147.816 140.724C148.462 140.32 149.239 140.117 150.149 140.117C151.109 140.117 151.934 140.353 152.625 140.825C153.321 141.296 153.787 141.942 154.023 142.762L152.54 143.208C152.35 142.68 152.038 142.27 151.606 141.979C151.179 141.687 150.688 141.541 150.132 141.541C149.509 141.541 148.995 141.687 148.591 141.979C148.187 142.265 147.886 142.663 147.69 143.174C147.493 143.68 147.392 144.261 147.387 144.917C147.398 145.928 147.631 146.745 148.086 147.368C148.546 147.986 149.228 148.294 150.132 148.294C150.727 148.294 151.221 148.16 151.614 147.89C152.007 147.615 152.305 147.219 152.507 146.703L154.023 147.099C153.708 147.946 153.217 148.595 152.549 149.044C151.881 149.493 151.075 149.717 150.132 149.717ZM155.733 149.465V140.37H163.185V149.465H161.687V141.793H157.232V149.465H155.733ZM165.544 149.465L165.535 140.37H167.043V143.663H168.432C168.696 143.663 168.966 143.668 169.241 143.68C169.516 143.691 169.754 143.716 169.957 143.755C170.428 143.851 170.841 144.011 171.194 144.235C171.548 144.46 171.823 144.763 172.02 145.145C172.216 145.527 172.314 146.001 172.314 146.568C172.314 147.354 172.109 147.977 171.7 148.437C171.295 148.892 170.765 149.195 170.108 149.347C169.884 149.397 169.625 149.431 169.333 149.448C169.047 149.459 168.775 149.465 168.517 149.465H165.544ZM167.043 148.227H168.542C168.71 148.227 168.898 148.221 169.106 148.21C169.314 148.199 169.499 148.171 169.662 148.126C169.948 148.042 170.204 147.876 170.428 147.629C170.658 147.382 170.773 147.028 170.773 146.568C170.773 146.102 170.661 145.743 170.437 145.49C170.218 145.237 169.928 145.072 169.569 144.993C169.406 144.954 169.235 144.929 169.055 144.917C168.876 144.906 168.705 144.901 168.542 144.901H167.043V148.227ZM173.359 149.465V140.37H174.858V149.465H173.359ZM179.63 149.465V141.734H176.464V140.37H184.295V141.734H181.129V149.465H179.63ZM188.178 149.717C187.499 149.717 186.929 149.594 186.469 149.347C186.014 149.094 185.669 148.763 185.433 148.353C185.203 147.943 185.088 147.494 185.088 147.006C185.088 146.529 185.178 146.116 185.357 145.768C185.543 145.414 185.801 145.122 186.132 144.892C186.463 144.656 186.859 144.471 187.32 144.336C187.752 144.219 188.235 144.117 188.768 144.033C189.307 143.943 189.851 143.862 190.402 143.789C190.952 143.716 191.466 143.646 191.943 143.579L191.404 143.89C191.421 143.082 191.258 142.484 190.915 142.096C190.578 141.709 189.995 141.515 189.164 141.515C188.614 141.515 188.131 141.642 187.715 141.894C187.306 142.141 187.016 142.546 186.848 143.107L185.425 142.677C185.644 141.88 186.068 141.254 186.696 140.8C187.325 140.345 188.153 140.117 189.181 140.117C190.006 140.117 190.713 140.266 191.303 140.564C191.898 140.856 192.324 141.299 192.583 141.894C192.712 142.175 192.793 142.481 192.827 142.812C192.861 143.138 192.877 143.48 192.877 143.84V149.465H191.547V147.284L191.858 147.486C191.516 148.221 191.036 148.777 190.418 149.153C189.807 149.529 189.06 149.717 188.178 149.717ZM188.406 148.463C188.945 148.463 189.411 148.367 189.804 148.176C190.202 147.98 190.522 147.724 190.764 147.41C191.005 147.09 191.162 146.742 191.235 146.366C191.32 146.085 191.364 145.774 191.37 145.431C191.381 145.083 191.387 144.816 191.387 144.631L191.909 144.859C191.421 144.926 190.941 144.99 190.469 145.052C189.997 145.114 189.551 145.181 189.13 145.254C188.709 145.322 188.33 145.403 187.993 145.499C187.746 145.577 187.513 145.678 187.294 145.802C187.081 145.925 186.907 146.085 186.772 146.282C186.643 146.473 186.578 146.711 186.578 146.997C186.578 147.244 186.64 147.48 186.764 147.705C186.893 147.929 187.089 148.112 187.353 148.252C187.623 148.393 187.974 148.463 188.406 148.463ZM198.983 139.309C198.562 139.309 198.177 139.205 197.829 138.997C197.481 138.79 197.203 138.515 196.995 138.172C196.788 137.824 196.684 137.437 196.684 137.01H197.896C197.896 137.308 198.003 137.563 198.216 137.776C198.43 137.99 198.685 138.096 198.983 138.096C199.286 138.096 199.541 137.99 199.749 137.776C199.962 137.563 200.069 137.308 200.069 137.01H201.282C201.282 137.437 201.178 137.824 200.97 138.172C200.768 138.515 200.49 138.79 200.136 138.997C199.788 139.205 199.404 139.309 198.983 139.309ZM202.511 140.37V149.465H201.063V142.762L196.296 149.465H195.058V140.37H196.507V146.981L201.282 140.37H202.511ZM212.073 149.717C211.152 149.717 210.369 149.513 209.723 149.103C209.083 148.687 208.595 148.117 208.258 147.393C207.921 146.669 207.747 145.844 207.736 144.917C207.747 143.969 207.924 143.135 208.267 142.416C208.615 141.692 209.111 141.128 209.757 140.724C210.403 140.32 211.18 140.117 212.09 140.117C213.05 140.117 213.875 140.353 214.565 140.825C215.262 141.296 215.728 141.942 215.963 142.762L214.481 143.208C214.29 142.68 213.979 142.27 213.547 141.979C213.12 141.687 212.629 141.541 212.073 141.541C211.45 141.541 210.936 141.687 210.532 141.979C210.128 142.265 209.827 142.663 209.631 143.174C209.434 143.68 209.333 144.261 209.328 144.917C209.339 145.928 209.572 146.745 210.027 147.368C210.487 147.986 211.169 148.294 212.073 148.294C212.668 148.294 213.162 148.16 213.555 147.89C213.948 147.615 214.245 147.219 214.448 146.703L215.963 147.099C215.649 147.946 215.158 148.595 214.49 149.044C213.822 149.493 213.016 149.717 212.073 149.717ZM217.674 149.465V140.37H221.547C221.777 140.37 222.024 140.384 222.288 140.412C222.558 140.435 222.802 140.477 223.021 140.539C223.509 140.668 223.911 140.934 224.225 141.339C224.545 141.737 224.705 142.242 224.705 142.854C224.705 143.197 224.652 143.494 224.545 143.747C224.444 144 224.298 144.219 224.107 144.404C224.023 144.488 223.93 144.564 223.829 144.631C223.728 144.699 223.627 144.752 223.526 144.791C223.723 144.825 223.922 144.901 224.124 145.019C224.444 145.193 224.694 145.437 224.874 145.751C225.059 146.066 225.152 146.467 225.152 146.955C225.152 147.573 225.003 148.084 224.705 148.488C224.408 148.887 223.998 149.162 223.476 149.313C223.257 149.375 223.015 149.417 222.752 149.44C222.488 149.456 222.232 149.465 221.985 149.465H217.674ZM219.189 148.244H221.901C222.019 148.244 222.159 148.233 222.322 148.21C222.49 148.188 222.639 148.16 222.768 148.126C223.06 148.042 223.271 147.884 223.4 147.654C223.535 147.424 223.602 147.174 223.602 146.905C223.602 146.546 223.501 146.254 223.299 146.029C223.102 145.804 222.841 145.664 222.516 145.608C222.398 145.574 222.269 145.555 222.128 145.549C221.994 145.543 221.873 145.541 221.766 145.541H219.189V148.244ZM219.189 144.303H221.446C221.603 144.303 221.769 144.294 221.943 144.277C222.117 144.255 222.269 144.219 222.398 144.168C222.656 144.073 222.844 143.915 222.962 143.696C223.086 143.472 223.147 143.228 223.147 142.964C223.147 142.672 223.08 142.416 222.945 142.197C222.816 141.973 222.617 141.819 222.347 141.734C222.168 141.667 221.966 141.63 221.741 141.625C221.522 141.614 221.382 141.608 221.32 141.608H219.189V144.303ZM230.717 149.717C229.813 149.717 229.033 149.513 228.376 149.103C227.725 148.693 227.222 148.126 226.868 147.402C226.515 146.677 226.338 145.847 226.338 144.909C226.338 143.955 226.518 143.118 226.877 142.4C227.236 141.681 227.744 141.122 228.401 140.724C229.058 140.32 229.83 140.117 230.717 140.117C231.626 140.117 232.41 140.322 233.066 140.732C233.723 141.136 234.226 141.701 234.574 142.425C234.927 143.143 235.104 143.972 235.104 144.909C235.104 145.858 234.927 146.694 234.574 147.419C234.22 148.137 233.715 148.701 233.058 149.111C232.401 149.515 231.621 149.717 230.717 149.717ZM230.717 148.294C231.66 148.294 232.362 147.98 232.822 147.351C233.283 146.722 233.513 145.908 233.513 144.909C233.513 143.882 233.28 143.065 232.814 142.459C232.348 141.847 231.649 141.541 230.717 141.541C230.083 141.541 229.56 141.684 229.151 141.97C228.741 142.256 228.435 142.652 228.233 143.157C228.031 143.663 227.93 144.247 227.93 144.909C227.93 145.931 228.165 146.75 228.637 147.368C229.108 147.986 229.802 148.294 230.717 148.294ZM244.377 149.717C243.603 149.717 242.918 149.552 242.323 149.221C241.733 148.889 241.259 148.421 240.899 147.814C240.54 147.208 240.316 146.492 240.226 145.667H238.449V149.465H236.95V140.37H238.449V144.168H240.217C240.307 143.326 240.534 142.602 240.899 141.995C241.264 141.389 241.744 140.926 242.339 140.606C242.934 140.28 243.619 140.117 244.394 140.117C245.298 140.117 246.076 140.322 246.727 140.732C247.384 141.142 247.886 141.706 248.234 142.425C248.588 143.143 248.765 143.969 248.765 144.901C248.765 145.849 248.585 146.686 248.226 147.41C247.872 148.134 247.367 148.701 246.71 149.111C246.059 149.515 245.281 149.717 244.377 149.717ZM244.352 148.294C245.306 148.294 246.014 147.983 246.474 147.36C246.94 146.731 247.173 145.914 247.173 144.909C247.173 143.876 246.937 143.056 246.466 142.45C246 141.844 245.298 141.541 244.36 141.541C243.457 141.541 242.769 141.841 242.297 142.442C241.826 143.042 241.59 143.862 241.59 144.901C241.59 145.928 241.823 146.75 242.289 147.368C242.76 147.986 243.448 148.294 244.352 148.294ZM255.245 153.507L257.005 148.724L257.03 150.139L253.055 140.37H254.63L257.746 148.227H257.207L260.129 140.37H261.653L256.701 153.507H255.245ZM262.041 151.486V148.227C262.552 148.227 262.917 148.061 263.136 147.73C263.355 147.393 263.532 146.84 263.667 146.071C263.756 145.588 263.829 145.072 263.885 144.522C263.942 143.972 263.989 143.36 264.029 142.686C264.074 142.007 264.116 141.235 264.155 140.37H270.42V148.227H271.304V151.486H269.873V149.465H263.473V151.486H262.041ZM264.349 148.227H268.921V141.608H265.511C265.494 142.007 265.471 142.425 265.443 142.863C265.415 143.295 265.382 143.727 265.342 144.16C265.309 144.592 265.267 145.002 265.216 145.389C265.171 145.771 265.118 146.113 265.056 146.416C264.983 146.837 264.899 147.194 264.803 147.486C264.708 147.778 264.556 148.025 264.349 148.227ZM275.58 149.717C274.901 149.717 274.331 149.594 273.87 149.347C273.416 149.094 273.07 148.763 272.835 148.353C272.604 147.943 272.489 147.494 272.489 147.006C272.489 146.529 272.579 146.116 272.759 145.768C272.944 145.414 273.202 145.122 273.533 144.892C273.865 144.656 274.261 144.471 274.721 144.336C275.153 144.219 275.636 144.117 276.169 144.033C276.708 143.943 277.253 143.862 277.803 143.789C278.353 143.716 278.867 143.646 279.344 143.579L278.805 143.89C278.822 143.082 278.659 142.484 278.317 142.096C277.98 141.709 277.396 141.515 276.565 141.515C276.015 141.515 275.532 141.642 275.117 141.894C274.707 142.141 274.418 142.546 274.249 143.107L272.826 142.677C273.045 141.88 273.469 141.254 274.098 140.8C274.726 140.345 275.555 140.117 276.582 140.117C277.407 140.117 278.115 140.266 278.704 140.564C279.299 140.856 279.726 141.299 279.984 141.894C280.113 142.175 280.195 142.481 280.228 142.812C280.262 143.138 280.279 143.48 280.279 143.84V149.465H278.948V147.284L279.26 147.486C278.917 148.221 278.437 148.777 277.82 149.153C277.208 149.529 276.461 149.717 275.58 149.717ZM275.807 148.463C276.346 148.463 276.812 148.367 277.205 148.176C277.604 147.98 277.924 147.724 278.165 147.41C278.406 147.09 278.564 146.742 278.637 146.366C278.721 146.085 278.766 145.774 278.771 145.431C278.783 145.083 278.788 144.816 278.788 144.631L279.31 144.859C278.822 144.926 278.342 144.99 277.87 145.052C277.399 145.114 276.952 145.181 276.531 145.254C276.11 145.322 275.731 145.403 275.395 145.499C275.148 145.577 274.915 145.678 274.696 145.802C274.482 145.925 274.308 146.085 274.173 146.282C274.044 146.473 273.98 146.711 273.98 146.997C273.98 147.244 274.042 147.48 274.165 147.705C274.294 147.929 274.491 148.112 274.755 148.252C275.024 148.393 275.375 148.463 275.807 148.463ZM287.942 149.465V146.189C287.639 146.341 287.271 146.47 286.839 146.576C286.412 146.683 285.955 146.736 285.466 146.736C284.54 146.736 283.793 146.529 283.226 146.113C282.659 145.698 282.289 145.1 282.115 144.32C282.064 144.084 282.028 143.84 282.005 143.587C281.988 143.334 281.977 143.104 281.971 142.896C281.966 142.689 281.963 142.537 281.963 142.442V140.37H283.479V142.442C283.479 142.604 283.484 142.807 283.496 143.048C283.507 143.284 283.535 143.514 283.58 143.739C283.692 144.294 283.925 144.713 284.279 144.993C284.638 145.274 285.143 145.414 285.795 145.414C286.232 145.414 286.637 145.358 287.007 145.246C287.378 145.134 287.689 144.985 287.942 144.8V140.37H289.449V149.465H287.942ZM293.073 153.507L294.833 148.724L294.859 150.139L290.884 140.37H292.459L295.575 148.227H295.036L297.958 140.37H299.482L294.53 153.507H293.073Z" fill="#F96868"/>
<rect x="125.193" y="178.615" width="348.07" height="47.2456" rx="23.1579" fill="white"/>
<rect x="125.193" y="178.615" width="348.07" height="47.2456" rx="23.1579" stroke="#ECE7F8" stroke-width="1.40351"/>
<path d="M244.396 207.991C243.509 207.991 242.709 207.837 241.996 207.528C241.289 207.219 240.705 206.778 240.244 206.206C239.79 205.627 239.5 204.942 239.377 204.151L241.482 203.831C241.662 204.55 242.03 205.105 242.585 205.498C243.147 205.891 243.792 206.088 244.522 206.088C244.954 206.088 245.361 206.02 245.743 205.886C246.125 205.751 246.434 205.554 246.67 205.296C246.911 205.038 247.032 204.721 247.032 204.345C247.032 204.176 247.004 204.022 246.947 203.881C246.891 203.735 246.807 203.606 246.695 203.494C246.588 203.382 246.448 203.281 246.274 203.191C246.105 203.095 245.909 203.014 245.684 202.947L242.552 202.02C242.282 201.942 241.99 201.838 241.676 201.709C241.367 201.574 241.072 201.392 240.792 201.161C240.517 200.926 240.289 200.628 240.11 200.269C239.936 199.904 239.849 199.455 239.849 198.921C239.849 198.141 240.045 197.487 240.438 196.959C240.837 196.426 241.37 196.027 242.038 195.764C242.712 195.5 243.458 195.371 244.278 195.376C245.109 195.382 245.85 195.525 246.501 195.806C247.152 196.081 247.697 196.482 248.135 197.01C248.573 197.538 248.881 198.175 249.061 198.921L246.88 199.3C246.79 198.874 246.616 198.512 246.358 198.214C246.105 197.911 245.794 197.681 245.423 197.524C245.058 197.366 244.668 197.282 244.253 197.271C243.849 197.265 243.472 197.327 243.124 197.456C242.782 197.58 242.504 197.759 242.291 197.995C242.083 198.231 241.979 198.506 241.979 198.82C241.979 199.118 242.069 199.362 242.249 199.553C242.428 199.738 242.65 199.887 242.914 199.999C243.183 200.106 243.456 200.196 243.731 200.269L245.903 200.875C246.201 200.954 246.535 201.06 246.905 201.195C247.276 201.33 247.632 201.518 247.975 201.759C248.317 202.001 248.598 202.318 248.817 202.711C249.041 203.104 249.154 203.604 249.154 204.21C249.154 204.839 249.022 205.392 248.758 205.869C248.5 206.34 248.149 206.733 247.705 207.048C247.262 207.362 246.754 207.598 246.181 207.755C245.614 207.912 245.019 207.991 244.396 207.991ZM251.145 207.738V195.359H253.174V207.738H251.145ZM259.714 207.991C258.804 207.991 258.01 207.786 257.331 207.376C256.651 206.966 256.124 206.402 255.747 205.684C255.377 204.959 255.192 204.128 255.192 203.191C255.192 202.237 255.383 201.4 255.764 200.681C256.146 199.963 256.677 199.401 257.356 198.997C258.035 198.593 258.821 198.391 259.714 198.391C260.629 198.391 261.426 198.596 262.105 199.006C262.785 199.415 263.312 199.982 263.689 200.707C264.065 201.425 264.253 202.253 264.253 203.191C264.253 204.134 264.062 204.968 263.68 205.692C263.304 206.411 262.776 206.975 262.097 207.385C261.418 207.789 260.623 207.991 259.714 207.991ZM259.714 206.088C260.522 206.088 261.123 205.818 261.516 205.279C261.909 204.74 262.105 204.044 262.105 203.191C262.105 202.31 261.906 201.608 261.507 201.086C261.109 200.558 260.511 200.294 259.714 200.294C259.169 200.294 258.72 200.418 258.366 200.665C258.018 200.906 257.76 201.246 257.592 201.684C257.423 202.116 257.339 202.618 257.339 203.191C257.339 204.072 257.538 204.777 257.937 205.305C258.341 205.827 258.933 206.088 259.714 206.088ZM268.238 207.738L264.937 198.644H266.967L269.257 205.237L271.539 198.644H273.577L270.276 207.738H268.238ZM278.894 207.991C277.973 207.991 277.165 207.792 276.469 207.393C275.773 206.994 275.228 206.441 274.835 205.734C274.448 205.027 274.254 204.213 274.254 203.292C274.254 202.298 274.445 201.437 274.827 200.707C275.209 199.971 275.739 199.401 276.418 198.997C277.098 198.593 277.884 198.391 278.776 198.391C279.719 198.391 280.519 198.613 281.176 199.056C281.839 199.494 282.33 200.114 282.65 200.917C282.97 201.72 283.091 202.666 283.012 203.755H280.999V203.014C280.994 202.026 280.82 201.305 280.477 200.85C280.135 200.395 279.596 200.168 278.86 200.168C278.03 200.168 277.412 200.426 277.008 200.942C276.604 201.453 276.402 202.203 276.402 203.191C276.402 204.112 276.604 204.825 277.008 205.33C277.412 205.835 278.002 206.088 278.776 206.088C279.276 206.088 279.705 205.978 280.065 205.759C280.43 205.535 280.71 205.212 280.907 204.791L282.911 205.397C282.563 206.217 282.024 206.854 281.294 207.309C280.57 207.764 279.77 207.991 278.894 207.991ZM275.762 203.755V202.222H282.018V203.755H275.762ZM284.874 207.738L284.891 195.612H286.946V203.022L290.272 198.644H292.807L289.278 203.191L293.11 207.738H290.424L286.946 203.359V207.738H284.874ZM294.122 197.262V195.401H296.151V197.262H294.122ZM294.122 207.738V198.644H296.151V207.738H294.122ZM304.964 207.738V203.359C304.964 203.073 304.945 202.756 304.905 202.408C304.866 202.06 304.774 201.726 304.628 201.406C304.487 201.08 304.274 200.813 303.988 200.606C303.707 200.398 303.325 200.294 302.842 200.294C302.584 200.294 302.329 200.336 302.076 200.42C301.823 200.505 301.593 200.651 301.385 200.858C301.183 201.06 301.021 201.341 300.897 201.7C300.774 202.054 300.712 202.509 300.712 203.065L299.508 202.551C299.508 201.776 299.656 201.074 299.954 200.446C300.257 199.817 300.701 199.317 301.284 198.947C301.868 198.571 302.587 198.382 303.44 198.382C304.114 198.382 304.67 198.495 305.108 198.719C305.545 198.944 305.894 199.23 306.152 199.578C306.41 199.926 306.601 200.297 306.724 200.69C306.848 201.083 306.927 201.456 306.96 201.81C307 202.158 307.019 202.441 307.019 202.66V207.738H304.964ZM298.657 207.738V198.644H300.468V201.465H300.712V207.738H298.657ZM308.375 207.738V207.46L313.191 200.42H308.863V198.644H316.349V198.93L311.549 205.961H316.147V207.738H308.375ZM322.685 207.991C321.798 207.991 320.998 207.837 320.285 207.528C319.578 207.219 318.994 206.778 318.534 206.206C318.079 205.627 317.79 204.942 317.666 204.151L319.772 203.831C319.951 204.55 320.319 205.105 320.875 205.498C321.436 205.891 322.082 206.088 322.812 206.088C323.244 206.088 323.651 206.02 324.033 205.886C324.414 205.751 324.723 205.554 324.959 205.296C325.2 205.038 325.321 204.721 325.321 204.345C325.321 204.176 325.293 204.022 325.237 203.881C325.181 203.735 325.097 203.606 324.984 203.494C324.878 203.382 324.737 203.281 324.563 203.191C324.395 203.095 324.198 203.014 323.974 202.947L320.841 202.02C320.572 201.942 320.28 201.838 319.965 201.709C319.657 201.574 319.362 201.392 319.081 201.161C318.806 200.926 318.579 200.628 318.399 200.269C318.225 199.904 318.138 199.455 318.138 198.921C318.138 198.141 318.334 197.487 318.727 196.959C319.126 196.426 319.659 196.027 320.327 195.764C321.001 195.5 321.748 195.371 322.567 195.376C323.398 195.382 324.139 195.525 324.791 195.806C325.442 196.081 325.986 196.482 326.424 197.01C326.862 197.538 327.171 198.175 327.351 198.921L325.17 199.3C325.08 198.874 324.906 198.512 324.647 198.214C324.395 197.911 324.083 197.681 323.713 197.524C323.348 197.366 322.958 197.282 322.542 197.271C322.138 197.265 321.762 197.327 321.414 197.456C321.071 197.58 320.793 197.759 320.58 197.995C320.372 198.231 320.269 198.506 320.269 198.82C320.269 199.118 320.358 199.362 320.538 199.553C320.718 199.738 320.939 199.887 321.203 199.999C321.473 200.106 321.745 200.196 322.02 200.269L324.193 200.875C324.49 200.954 324.824 201.06 325.195 201.195C325.565 201.33 325.922 201.518 326.264 201.759C326.607 202.001 326.887 202.318 327.106 202.711C327.331 203.104 327.443 203.604 327.443 204.21C327.443 204.839 327.311 205.392 327.047 205.869C326.789 206.34 326.438 206.733 325.995 207.048C325.551 207.362 325.043 207.598 324.471 207.755C323.904 207.912 323.309 207.991 322.685 207.991ZM335.557 207.738V203.359C335.557 203.073 335.537 202.756 335.498 202.408C335.458 202.06 335.366 201.726 335.22 201.406C335.079 201.08 334.866 200.813 334.58 200.606C334.299 200.398 333.917 200.294 333.434 200.294C333.176 200.294 332.921 200.336 332.668 200.42C332.415 200.505 332.185 200.651 331.978 200.858C331.775 201.06 331.613 201.341 331.489 201.7C331.366 202.054 331.304 202.509 331.304 203.065L330.1 202.551C330.1 201.776 330.248 201.074 330.546 200.446C330.849 199.817 331.293 199.317 331.877 198.947C332.46 198.571 333.179 198.382 334.032 198.382C334.706 198.382 335.262 198.495 335.7 198.719C336.138 198.944 336.486 199.23 336.744 199.578C337.002 199.926 337.193 200.297 337.317 200.69C337.44 201.083 337.519 201.456 337.552 201.81C337.592 202.158 337.611 202.441 337.611 202.66V207.738H335.557ZM329.249 207.738V195.612H331.06V201.995H331.304V207.738H329.249ZM343.826 207.991C342.916 207.991 342.122 207.786 341.442 207.376C340.763 206.966 340.235 206.402 339.859 205.684C339.489 204.959 339.304 204.128 339.304 203.191C339.304 202.237 339.494 201.4 339.876 200.681C340.258 199.963 340.788 199.401 341.468 198.997C342.147 198.593 342.933 198.391 343.826 198.391C344.741 198.391 345.538 198.596 346.217 199.006C346.897 199.415 347.424 199.982 347.8 200.707C348.177 201.425 348.365 202.253 348.365 203.191C348.365 204.134 348.174 204.968 347.792 205.692C347.416 206.411 346.888 206.975 346.209 207.385C345.529 207.789 344.735 207.991 343.826 207.991ZM343.826 206.088C344.634 206.088 345.235 205.818 345.628 205.279C346.021 204.74 346.217 204.044 346.217 203.191C346.217 202.31 346.018 201.608 345.619 201.086C345.221 200.558 344.623 200.294 343.826 200.294C343.281 200.294 342.832 200.418 342.478 200.665C342.13 200.906 341.872 201.246 341.704 201.684C341.535 202.116 341.451 202.618 341.451 203.191C341.451 204.072 341.65 204.777 342.049 205.305C342.453 205.827 343.045 206.088 343.826 206.088ZM354.59 207.991C353.703 207.991 352.96 207.78 352.359 207.359C351.758 206.938 351.306 206.366 351.003 205.641C350.7 204.912 350.548 204.095 350.548 203.191C350.548 202.276 350.7 201.456 351.003 200.732C351.306 200.008 351.75 199.438 352.334 199.022C352.923 198.601 353.65 198.391 354.515 198.391C355.374 198.391 356.118 198.601 356.746 199.022C357.381 199.438 357.872 200.008 358.22 200.732C358.568 201.451 358.742 202.27 358.742 203.191C358.742 204.1 358.571 204.917 358.228 205.641C357.886 206.366 357.403 206.938 356.78 207.359C356.157 207.78 355.427 207.991 354.59 207.991ZM350.203 211.78V198.644H351.997V205.027H352.249V211.78H350.203ZM354.279 206.172C354.807 206.172 355.242 206.04 355.584 205.776C355.927 205.512 356.179 205.156 356.342 204.707C356.51 204.252 356.595 203.747 356.595 203.191C356.595 202.641 356.51 202.141 356.342 201.692C356.174 201.237 355.913 200.878 355.559 200.614C355.205 200.345 354.756 200.21 354.212 200.21C353.695 200.21 353.274 200.336 352.948 200.589C352.623 200.836 352.381 201.184 352.224 201.633C352.073 202.077 351.997 202.596 351.997 203.191C351.997 203.78 352.073 204.3 352.224 204.749C352.381 205.198 352.626 205.549 352.957 205.801C353.294 206.048 353.734 206.172 354.279 206.172Z" fill="#232027"/>
</g>
</g>
<path d="M446.15 62.4H450.5M447.6 59.5V53.99C447.6 53.7203 447.6 53.5854 447.618 53.4738C447.666 53.171 447.808 52.8911 448.025 52.6744C448.242 52.4576 448.521 52.3152 448.824 52.2674C448.934 52.25 449.071 52.25 449.34 52.25H452.675C453.637 52.25 454.559 52.6319 455.239 53.3117C455.918 53.9916 456.3 54.9136 456.3 55.875C456.3 56.8364 455.918 57.7584 455.239 58.4383C454.559 59.1181 453.637 59.5 452.675 59.5H447.6ZM447.6 59.5V66.75M447.6 59.5H446.15" stroke="#413D3D" stroke-width="2" stroke-linecap="round"/>
<path d="M443.25 46.9401C445.453 45.6654 447.955 44.9961 450.5 45C458.508 45 465 51.4917 465 59.5C465 67.5084 458.508 74 450.5 74C442.492 74 436 67.5084 436 59.5C436 56.8596 436.706 54.3815 437.94 52.25" stroke="#413D3D" stroke-width="2" stroke-linecap="round"/>
<defs>
<filter id="filter0_dd_300_438" x="0.982456" y="0.596491" width="495.439" height="254.035" filterUnits="userSpaceOnUse" color-interpolation-filters="sRGB">
<feFlood flood-opacity="0" result="BackgroundImageFix"/>
<feColorMatrix in="SourceAlpha" type="matrix" values="0 0 0 0 0 0 0 0 0 0 0 0 0 0 0 0 0 0 127 0" result="hardAlpha"/>
<feMorphology radius="4.21053" operator="erode" in="SourceAlpha" result="effect1_dropShadow_300_438"/>
<feOffset dy="2.80702"/>
<feGaussianBlur stdDeviation="2.80702"/>
<feColorMatrix type="matrix" values="0 0 0 0 0.137255 0 0 0 0 0.152941 0 0 0 0 0.184314 0 0 0 0.04 0"/>
<feBlend mode="normal" in2="BackgroundImageFix" result="effect1_dropShadow_300_438"/>
<feColorMatrix in="SourceAlpha" type="matrix" values="0 0 0 0 0 0 0 0 0 0 0 0 0 0 0 0 0 0 127 0" result="hardAlpha"/>
<feMorphology radius="4.21053" operator="erode" in="SourceAlpha" result="effect2_dropShadow_300_438"/>
<feOffset dy="5.61404"/>
<feGaussianBlur stdDeviation="5.61404"/>
<feColorMatrix type="matrix" values="0 0 0 0 0.137255 0 0 0 0 0.152941 0 0 0 0 0.184314 0 0 0 0.12 0"/>
<feBlend mode="normal" in2="effect1_dropShadow_300_438" result="effect2_dropShadow_300_438"/>
<feBlend mode="normal" in="SourceGraphic" in2="effect2_dropShadow_300_438" result="shape"/>
</filter>
<clipPath id="clip0_300_438">
<rect x="8" y="2" width="481.404" height="240" rx="28.0702" fill="white"/>
</clipPath>
</defs>
</svg>
