<svg width="481" height="240" viewBox="0 0 481 240" fill="none" xmlns="http://www.w3.org/2000/svg">
<g filter="url(#filter0_i_322_321)">
<path d="M100 0H453C468.464 0 481 12.536 481 28V212C481 227.464 468.464 240 453 240H100V0Z" fill="url(#paint0_linear_322_321)"/>
<path d="M100 240H28C12.536 240 6.44299e-08 227.464 0 212V137.972C0.331049 137.99 0.664424 138 1 138C10.9411 138 19 129.941 19 120C19 110.059 10.9411 102 1 102C0.664442 102 0.331031 102.009 0 102.027V28C1.03088e-06 12.536 12.536 6.44261e-08 28 0H100V240Z" fill="#F96868"/>
<path d="M438.15 40.4H442.5M439.6 37.5V31.99C439.6 31.7203 439.6 31.5854 439.618 31.4738C439.666 31.171 439.808 30.8911 440.025 30.6744C440.242 30.4576 440.521 30.3152 440.824 30.2674C440.934 30.25 441.071 30.25 441.34 30.25H444.675C445.637 30.25 446.559 30.6319 447.239 31.3117C447.918 31.9916 448.3 32.9136 448.3 33.875C448.3 34.8364 447.918 35.7584 447.239 36.4383C446.559 37.1181 445.637 37.5 444.675 37.5H439.6ZM439.6 37.5V44.75M439.6 37.5H438.15" stroke="#413D3D" stroke-width="2" stroke-linecap="round"/>
<path d="M435.25 24.9401C437.453 23.6654 439.955 22.9961 442.5 23C450.508 23 457 29.4917 457 37.5C457 45.5084 450.508 52 442.5 52C434.492 52 428 45.5084 428 37.5C428 34.8596 428.706 32.3815 429.94 30.25" stroke="#413D3D" stroke-width="2" stroke-linecap="round"/>
</g>
<path d="M47.688 187.448C47.96 186.104 48.432 185.088 49.104 184.4C49.76 183.712 50.704 183.368 51.936 183.368H52.032C53.424 183.368 54.48 183.72 55.2 184.424C55.92 185.112 56.4 186.064 56.64 187.28C56.864 188.48 56.992 190.072 57.024 192.056V192.104V193.232L57 204.704H39.24V190.952C39.256 189.096 39.64 187.616 40.392 186.512C41.144 185.408 42.208 184.856 43.584 184.856H43.68C44.72 184.856 45.568 185.072 46.224 185.504C46.88 185.936 47.368 186.584 47.688 187.448ZM44.232 188.84C43.56 188.84 43.08 188.984 42.792 189.272C42.488 189.56 42.304 189.936 42.24 190.4C42.16 190.864 42.12 191.536 42.12 192.416V192.464V200.792H46.344L46.416 194.576V194.816V192.416C46.416 191.52 46.392 190.856 46.344 190.424C46.28 189.976 46.096 189.6 45.792 189.296C45.472 188.992 44.952 188.84 44.232 188.84ZM53.952 191.648C53.952 190.608 53.912 189.832 53.832 189.32C53.752 188.792 53.544 188.376 53.208 188.072C52.856 187.768 52.288 187.616 51.504 187.616C50.752 187.616 50.208 187.768 49.872 188.072C49.536 188.376 49.336 188.792 49.272 189.32C49.192 189.832 49.152 190.608 49.152 191.648V191.672V200.792H53.904C53.904 197.048 53.92 194.36 53.952 192.728V191.648ZM44.712 170.25C44.712 168.73 44.952 167.402 45.432 166.266C45.912 165.13 46.616 164.25 47.544 163.626C48.472 162.986 49.584 162.666 50.88 162.666H50.976C52.16 162.666 53.208 162.986 54.12 163.626C55.032 164.25 55.744 165.138 56.256 166.29C56.752 167.426 57 168.738 57 170.227V181.266H39.24V177.21H44.712V170.298V170.25ZM57 161.49H39.24V157.434H57V161.49ZM54.048 169.77C54.048 168.826 53.776 168.05 53.232 167.442C52.688 166.834 51.88 166.53 50.808 166.53C49.704 166.53 48.912 166.826 48.432 167.418C47.936 168.01 47.688 168.794 47.688 169.77V169.794V177.21H54C54 173.802 54.016 171.554 54.048 170.466V169.77ZM39.24 150.796H52.296L39.24 138.076V134.044H57V138.076H43.92L57 150.796V154.852H39.24V150.796ZM39.24 116.102H42.48V127.406H57V131.462H39.24V116.102ZM39.24 101.472C39.24 99.9843 39.488 98.6723 39.984 97.5363C40.48 96.3843 41.176 95.4963 42.072 94.8723C42.952 94.2323 43.976 93.9123 45.144 93.9123H45.24C47.192 93.9123 48.68 94.4963 49.704 95.6643C50.728 96.8323 51.24 98.5443 51.24 100.8V109.968H57V114.024H39.24V101.472ZM48.072 101.928C48.072 101.016 48.032 100.288 47.952 99.7443C47.856 99.1843 47.608 98.7123 47.208 98.3283C46.792 97.9443 46.152 97.7523 45.288 97.7523C44.376 97.7523 43.712 97.9443 43.296 98.3283C42.864 98.7123 42.6 99.1843 42.504 99.7443C42.408 100.288 42.36 101.016 42.36 101.928V102.864C42.36 103.28 42.368 104 42.384 105.024C42.384 106.048 42.384 107.696 42.384 109.968H48.072V101.952V101.928ZM44.712 80.7896C44.712 79.2696 44.952 77.9416 45.432 76.8056C45.912 75.6696 46.616 74.7896 47.544 74.1656C48.472 73.5256 49.584 73.2056 50.88 73.2056H50.976C52.16 73.2056 53.208 73.5256 54.12 74.1656C55.032 74.7896 55.744 75.6776 56.256 76.8296C56.752 77.9656 57 79.2776 57 80.7656V91.8056H39.24V87.7496H44.712V80.8376V80.7896ZM57 72.0296H39.24V67.9736H57V72.0296ZM54.048 80.3096C54.048 79.3656 53.776 78.5896 53.232 77.9816C52.688 77.3736 51.88 77.0696 50.808 77.0696C49.704 77.0696 48.912 77.3656 48.432 77.9576C47.936 78.5496 47.688 79.3336 47.688 80.3096V80.3336V87.7496H54C54 84.3416 54.016 82.0936 54.048 81.0056V80.3096ZM39.24 65.3915V61.3355V65.3915ZM53.568 48.6875V40.0235H39.24V35.9675H57V65.3915H39.24V61.3355H53.568V52.7195H39.24V48.6875H53.568Z" fill="white"/>
<path d="M122.219 42.2947C121.236 42.2947 120.382 42.1506 119.655 41.8625C118.928 41.5743 118.319 41.2009 117.827 40.7425C117.343 40.2774 116.973 39.7829 116.717 39.2589L118.505 38.0996C118.662 38.4861 118.898 38.8496 119.213 39.1902C119.534 39.5308 119.946 39.8091 120.451 40.0253C120.961 40.2349 121.58 40.3396 122.307 40.3396C123.034 40.3396 123.634 40.2316 124.105 40.0154C124.577 39.7927 124.927 39.498 125.156 39.1312C125.392 38.7579 125.51 38.3387 125.51 37.8737C125.51 37.3301 125.366 36.9109 125.078 36.6161C124.796 36.3149 124.42 36.1053 123.948 35.9874C123.476 35.8629 122.966 35.7909 122.415 35.7712C121.957 35.7581 121.626 35.7483 121.423 35.7418C121.22 35.7287 121.083 35.7221 121.011 35.7221C120.945 35.7221 120.883 35.7221 120.824 35.7221V33.7768C120.896 33.7768 121.02 33.7768 121.197 33.7768C121.381 33.7768 121.571 33.7768 121.767 33.7768C121.964 33.7703 122.124 33.7637 122.248 33.7572C123.061 33.7179 123.716 33.5181 124.213 33.1579C124.718 32.7977 124.97 32.2868 124.97 31.6253C124.97 30.9637 124.724 30.443 124.233 30.0632C123.748 29.6833 123.11 29.4933 122.317 29.4933C121.564 29.4933 120.916 29.6669 120.372 30.014C119.828 30.3546 119.409 30.7771 119.114 31.2814L117.601 29.8568C118.073 29.2019 118.718 28.655 119.537 28.2161C120.356 27.7773 121.302 27.5579 122.376 27.5579C122.985 27.5579 123.575 27.6398 124.145 27.8035C124.714 27.9607 125.225 28.203 125.677 28.5305C126.129 28.858 126.486 29.2739 126.748 29.7782C127.017 30.276 127.151 30.8688 127.151 31.5565C127.151 32.2442 127.01 32.8664 126.728 33.4232C126.453 33.9799 126.083 34.422 125.618 34.7495C126.267 34.9918 126.774 35.375 127.141 35.8989C127.508 36.4164 127.691 37.0779 127.691 37.8835C127.691 38.7874 127.452 39.5701 126.974 40.2316C126.502 40.8865 125.854 41.3942 125.029 41.7544C124.21 42.1146 123.273 42.2947 122.219 42.2947ZM132.787 42.2947C132.001 42.2947 131.343 42.1506 130.812 41.8625C130.282 41.5677 129.879 41.1813 129.604 40.7032C129.335 40.2185 129.201 39.688 129.201 39.1116C129.201 38.5745 129.296 38.1029 129.486 37.6968C129.676 37.2908 129.957 36.9469 130.331 36.6653C130.704 36.3771 131.163 36.1446 131.706 35.9677C132.178 35.8302 132.712 35.709 133.308 35.6042C133.904 35.4994 134.529 35.4012 135.184 35.3095C135.846 35.2178 136.501 35.1261 137.149 35.0344L136.402 35.447C136.415 34.6152 136.239 33.9995 135.872 33.6C135.512 33.1939 134.889 32.9909 134.005 32.9909C133.448 32.9909 132.938 33.1219 132.473 33.3839C132.008 33.6393 131.683 34.065 131.5 34.6611L129.584 34.0716C129.846 33.1612 130.344 32.4374 131.077 31.9004C131.818 31.3633 132.8 31.0947 134.025 31.0947C134.975 31.0947 135.8 31.2585 136.501 31.586C137.208 31.9069 137.725 32.4178 138.053 33.1186C138.223 33.4657 138.328 33.8325 138.367 34.2189C138.407 34.6054 138.426 35.0213 138.426 35.4667V42H136.609V39.5733L136.962 39.8877C136.524 40.6999 135.964 41.3057 135.282 41.7053C134.608 42.0982 133.776 42.2947 132.787 42.2947ZM133.15 40.6147C133.733 40.6147 134.234 40.5132 134.654 40.3102C135.073 40.1006 135.41 39.8353 135.666 39.5144C135.921 39.1935 136.088 38.8594 136.167 38.5123C136.278 38.1979 136.34 37.8442 136.353 37.4512C136.373 37.0582 136.383 36.7439 136.383 36.5081L137.051 36.7537C136.402 36.8519 135.813 36.9404 135.282 37.0189C134.752 37.0975 134.27 37.1761 133.838 37.2547C133.412 37.3268 133.033 37.4152 132.699 37.52C132.417 37.6182 132.165 37.7361 131.942 37.8737C131.726 38.0112 131.552 38.1782 131.421 38.3747C131.297 38.5712 131.235 38.8103 131.235 39.0919C131.235 39.367 131.303 39.6225 131.441 39.8582C131.579 40.0875 131.788 40.2709 132.07 40.4084C132.351 40.546 132.712 40.6147 133.15 40.6147ZM147.255 42V38.306C146.895 38.4894 146.473 38.64 145.988 38.7579C145.503 38.8692 144.992 38.9249 144.455 38.9249C143.368 38.9249 142.494 38.6826 141.832 38.1979C141.177 37.7067 140.751 36.9993 140.555 36.0758C140.503 35.8007 140.463 35.5191 140.437 35.2309C140.411 34.9361 140.394 34.6676 140.388 34.4253C140.388 34.1829 140.388 34.0028 140.388 33.8849V31.3895H142.471V33.8849C142.471 34.0552 142.477 34.2812 142.49 34.5628C142.503 34.8379 142.54 35.1064 142.598 35.3684C142.723 35.9579 142.972 36.3967 143.345 36.6849C143.718 36.9665 144.246 37.1074 144.927 37.1074C145.418 37.1074 145.86 37.0451 146.253 36.9207C146.653 36.7897 146.987 36.6227 147.255 36.4196V31.3895H149.328V42H147.255ZM161.028 31.3895V42H159.053V34.6218L153.748 42H152.078V31.3895H154.053V38.6204L159.368 31.3895H161.028ZM168.312 42.2947C167.225 42.2947 166.302 42.0524 165.542 41.5677C164.782 41.083 164.199 40.4182 163.793 39.5733C163.394 38.7284 163.191 37.7689 163.184 36.6947C163.191 35.6009 163.4 34.6349 163.813 33.7965C164.225 32.9516 164.815 32.2901 165.581 31.8119C166.347 31.3338 167.268 31.0947 168.342 31.0947C169.501 31.0947 170.49 31.3829 171.309 31.9593C172.134 32.5357 172.678 33.3249 172.94 34.327L170.896 34.9165C170.693 34.3205 170.359 33.8587 169.894 33.5312C169.436 33.1972 168.908 33.0302 168.312 33.0302C167.638 33.0302 167.084 33.1906 166.652 33.5116C166.22 33.826 165.899 34.2582 165.689 34.8084C165.48 35.3586 165.372 35.9874 165.365 36.6947C165.372 37.7885 165.62 38.6727 166.112 39.3474C166.609 40.022 167.343 40.3593 168.312 40.3593C168.974 40.3593 169.508 40.2087 169.914 39.9074C170.326 39.5995 170.641 39.1607 170.857 38.5909L172.94 39.0821C172.593 40.117 172.02 40.9127 171.22 41.4695C170.421 42.0196 169.452 42.2947 168.312 42.2947ZM173.671 42V40.2611C174.064 40.3331 174.362 40.3233 174.565 40.2316C174.775 40.1333 174.928 39.9565 175.027 39.7011C175.132 39.4456 175.22 39.1149 175.292 38.7088C175.403 38.1127 175.498 37.4349 175.577 36.6751C175.662 35.9088 175.737 35.0802 175.803 34.1895C175.868 33.2987 175.927 32.3654 175.98 31.3895H183.604V42H181.54V33.3249H177.827C177.787 33.8423 177.742 34.3925 177.689 34.9754C177.643 35.5518 177.591 36.1249 177.532 36.6947C177.473 37.2646 177.411 37.7984 177.345 38.2961C177.28 38.7939 177.211 39.2196 177.139 39.5733C177.008 40.2807 176.815 40.844 176.559 41.2632C176.31 41.6758 175.957 41.9411 175.498 42.0589C175.04 42.1834 174.431 42.1637 173.671 42ZM191.064 42.2947C190.01 42.2947 189.083 42.0655 188.284 41.607C187.492 41.142 186.873 40.4968 186.427 39.6716C185.988 38.8398 185.769 37.877 185.769 36.7832C185.769 35.6239 185.985 34.6185 186.417 33.767C186.856 32.9156 187.465 32.2573 188.245 31.7923C189.024 31.3273 189.931 31.0947 190.966 31.0947C192.047 31.0947 192.967 31.3469 193.727 31.8512C194.487 32.349 195.053 33.0596 195.427 33.9832C195.806 34.9067 195.957 36.0037 195.878 37.2744H193.825V36.5277C193.812 35.2964 193.576 34.386 193.118 33.7965C192.666 33.207 191.975 32.9123 191.045 32.9123C190.016 32.9123 189.244 33.2365 188.726 33.8849C188.209 34.5333 187.95 35.4699 187.95 36.6947C187.95 37.8606 188.209 38.7644 188.726 39.4063C189.244 40.0416 189.99 40.3593 190.966 40.3593C191.608 40.3593 192.161 40.2152 192.627 39.927C193.098 39.6323 193.465 39.2131 193.727 38.6695L195.741 39.3081C195.328 40.2578 194.703 40.9946 193.864 41.5186C193.026 42.036 192.093 42.2947 191.064 42.2947ZM187.282 37.2744V35.673H194.857V37.2744H187.282ZM198.073 42V31.3895H200.126V35.7221H205.304V31.3895H207.357V42H205.304V37.6575H200.126V42H198.073ZM219.054 31.3895V42H217.08V34.6218L211.774 42H210.104V31.3895H212.079V38.6204L217.394 31.3895H219.054ZM226.506 42.2947C225.451 42.2947 224.524 42.0655 223.725 41.607C222.933 41.142 222.314 40.4968 221.869 39.6716C221.43 38.8398 221.21 37.877 221.21 36.7832C221.21 35.6239 221.426 34.6185 221.859 33.767C222.298 32.9156 222.907 32.2573 223.686 31.7923C224.466 31.3273 225.373 31.0947 226.407 31.0947C227.488 31.0947 228.408 31.3469 229.168 31.8512C229.928 32.349 230.495 33.0596 230.868 33.9832C231.248 34.9067 231.398 36.0037 231.32 37.2744H229.266V36.5277C229.253 35.2964 229.018 34.386 228.559 33.7965C228.107 33.207 227.416 32.9123 226.486 32.9123C225.458 32.9123 224.685 33.2365 224.167 33.8849C223.65 34.5333 223.391 35.4699 223.391 36.6947C223.391 37.8606 223.65 38.7644 224.167 39.4063C224.685 40.0416 225.432 40.3593 226.407 40.3593C227.049 40.3593 227.603 40.2152 228.068 39.927C228.539 39.6323 228.906 39.2131 229.168 38.6695L231.182 39.3081C230.77 40.2578 230.144 40.9946 229.306 41.5186C228.467 42.036 227.534 42.2947 226.506 42.2947ZM222.723 37.2744V35.673H230.298V37.2744H222.723ZM241.987 42.2947C241.063 42.2947 240.245 42.1113 239.531 41.7446C238.823 41.3712 238.267 40.8538 237.86 40.1923C237.461 39.5308 237.261 38.7644 237.261 37.8933C237.261 37.0812 237.451 36.3378 237.831 35.6632C238.211 34.9885 238.777 34.458 239.531 34.0716L239.491 34.7789C238.889 34.4056 238.424 33.9406 238.096 33.3839C237.775 32.8206 237.615 32.1918 237.615 31.4975C237.615 30.6919 237.802 29.9944 238.175 29.4049C238.548 28.8154 239.062 28.3602 239.717 28.0393C240.379 27.7184 241.135 27.5579 241.987 27.5579C242.838 27.5579 243.591 27.7184 244.246 28.0393C244.901 28.3602 245.416 28.8154 245.789 29.4049C246.162 29.9944 246.349 30.6919 246.349 31.4975C246.349 32.1918 246.195 32.8173 245.887 33.374C245.579 33.9308 245.108 34.3991 244.472 34.7789L244.443 34.0912C245.19 34.458 245.756 34.982 246.143 35.6632C246.529 36.3378 246.722 37.0812 246.722 37.8933C246.722 38.7644 246.519 39.5308 246.113 40.1923C245.707 40.8538 245.147 41.3712 244.433 41.7446C243.719 42.1113 242.904 42.2947 241.987 42.2947ZM241.987 40.3396C242.747 40.3396 243.362 40.1333 243.834 39.7207C244.305 39.3015 244.541 38.6924 244.541 37.8933C244.541 37.0943 244.305 36.4851 243.834 36.066C243.369 35.6402 242.753 35.4274 241.987 35.4274C241.22 35.4274 240.602 35.6402 240.13 36.066C239.665 36.4851 239.432 37.0943 239.432 37.8933C239.432 38.6924 239.668 39.3015 240.14 39.7207C240.611 40.1333 241.227 40.3396 241.987 40.3396ZM241.987 33.4625C242.635 33.4625 243.159 33.302 243.559 32.9811C243.965 32.6536 244.168 32.1591 244.168 31.4975C244.168 30.836 243.965 30.3415 243.559 30.014C243.159 29.68 242.635 29.513 241.987 29.513C241.338 29.513 240.811 29.68 240.405 30.014C239.999 30.3415 239.796 30.836 239.796 31.4975C239.796 32.1591 239.999 32.6536 240.405 32.9811C240.811 33.302 241.338 33.4625 241.987 33.4625ZM249.278 36.7439V34.9656H255.968C256.073 34.9656 256.201 34.9623 256.352 34.9558C256.509 34.9427 256.676 34.9099 256.853 34.8575C257.455 34.7069 257.894 34.4089 258.169 33.9635C258.451 33.5181 258.592 33.004 258.592 32.4211C258.592 32.0608 258.533 31.7071 258.415 31.36C258.303 31.0063 258.12 30.6985 257.865 30.4365C257.616 30.168 257.278 29.9846 256.853 29.8863C256.689 29.8405 256.522 29.8143 256.352 29.8077C256.181 29.7946 256.054 29.7881 255.968 29.7881H252.117V27.8526H256.047C256.126 27.8526 256.263 27.8559 256.46 27.8625C256.663 27.869 256.885 27.8919 257.128 27.9312C257.92 28.0557 258.578 28.3242 259.102 28.7368C259.633 29.1495 260.029 29.6702 260.291 30.2989C260.553 30.9212 260.684 31.6122 260.684 32.3719C260.684 33.5181 260.386 34.4777 259.79 35.2505C259.194 36.0168 258.307 36.4884 257.128 36.6653C256.885 36.7046 256.663 36.7275 256.46 36.734C256.263 36.7406 256.126 36.7439 256.047 36.7439H249.278ZM249.278 39.9172V38.2667H257.403V39.9172H249.278ZM250.722 42V27.8526H252.775V42H250.722ZM266.576 42V31.3895H268.629V35.7221H273.807V31.3895H275.86V42H273.807V37.6575H268.629V42H266.576ZM281.614 42.2947C280.828 42.2947 280.169 42.1506 279.639 41.8625C279.108 41.5677 278.706 41.1813 278.431 40.7032C278.162 40.2185 278.028 39.688 278.028 39.1116C278.028 38.5745 278.123 38.1029 278.313 37.6968C278.503 37.2908 278.784 36.9469 279.158 36.6653C279.531 36.3771 279.989 36.1446 280.533 35.9677C281.005 35.8302 281.538 35.709 282.134 35.6042C282.73 35.4994 283.356 35.4012 284.011 35.3095C284.672 35.2178 285.327 35.1261 285.976 35.0344L285.229 35.447C285.242 34.6152 285.065 33.9995 284.699 33.6C284.338 33.1939 283.716 32.9909 282.832 32.9909C282.275 32.9909 281.764 33.1219 281.299 33.3839C280.834 33.6393 280.51 34.065 280.327 34.6611L278.411 34.0716C278.673 33.1612 279.171 32.4374 279.904 31.9004C280.644 31.3633 281.627 31.0947 282.852 31.0947C283.801 31.0947 284.627 31.2585 285.327 31.586C286.035 31.9069 286.552 32.4178 286.88 33.1186C287.05 33.4657 287.155 33.8325 287.194 34.2189C287.233 34.6054 287.253 35.0213 287.253 35.4667V42H285.435V39.5733L285.789 39.8877C285.35 40.6999 284.79 41.3057 284.109 41.7053C283.435 42.0982 282.603 42.2947 281.614 42.2947ZM281.977 40.6147C282.56 40.6147 283.061 40.5132 283.48 40.3102C283.9 40.1006 284.237 39.8353 284.492 39.5144C284.748 39.1935 284.915 38.8594 284.993 38.5123C285.105 38.1979 285.167 37.8442 285.18 37.4512C285.2 37.0582 285.209 36.7439 285.209 36.5081L285.878 36.7537C285.229 36.8519 284.64 36.9404 284.109 37.0189C283.579 37.0975 283.097 37.1761 282.665 37.2547C282.239 37.3268 281.859 37.4152 281.525 37.52C281.244 37.6182 280.991 37.7361 280.769 37.8737C280.553 38.0112 280.379 38.1782 280.248 38.3747C280.124 38.5712 280.061 38.8103 280.061 39.0919C280.061 39.367 280.13 39.6225 280.268 39.8582C280.405 40.0875 280.615 40.2709 280.897 40.4084C281.178 40.546 281.538 40.6147 281.977 40.6147ZM298.1 42.3046C297.091 42.298 296.233 42.0786 295.526 41.6463C294.819 41.214 294.265 40.5918 293.866 39.7796C293.473 38.9609 293.243 37.9752 293.178 36.8225C293.145 36.2657 293.148 35.6501 293.188 34.9754C293.227 34.2943 293.299 33.636 293.404 33.0007C293.515 32.3654 293.656 31.8349 293.826 31.4091C294.016 30.9375 294.275 30.5053 294.602 30.1123C294.93 29.7127 295.29 29.3787 295.683 29.1102C296.102 28.822 296.567 28.5993 297.078 28.4421C297.589 28.2784 298.123 28.1506 298.68 28.0589C299.243 27.9673 299.809 27.8887 300.379 27.8232C300.956 27.7511 301.516 27.6627 302.059 27.5579L302.256 29.3951C301.895 29.4802 301.47 29.549 300.979 29.6014C300.494 29.6538 299.99 29.7127 299.466 29.7782C298.948 29.8437 298.454 29.9354 297.982 30.0533C297.51 30.1712 297.101 30.3382 296.754 30.5544C296.263 30.8557 295.886 31.2945 295.624 31.8709C295.369 32.4473 295.215 33.0727 295.162 33.7474C295.568 33.1317 296.086 32.6896 296.715 32.4211C297.343 32.146 297.995 32.0084 298.67 32.0084C299.613 32.0084 300.425 32.2311 301.106 32.6765C301.794 33.1219 302.321 33.7277 302.688 34.494C303.055 35.2604 303.238 36.1282 303.238 37.0975C303.238 38.1455 303.022 39.0625 302.59 39.8484C302.164 40.6278 301.565 41.237 300.792 41.6758C300.019 42.1081 299.122 42.3177 298.1 42.3046ZM298.208 40.3691C299.151 40.3691 299.862 40.0777 300.34 39.4947C300.825 38.9118 301.067 38.1357 301.067 37.1663C301.067 36.1708 300.818 35.3881 300.32 34.8182C299.822 34.2484 299.118 33.9635 298.208 33.9635C297.284 33.9635 296.577 34.2484 296.086 34.8182C295.601 35.3881 295.359 36.1708 295.359 37.1663C295.359 38.175 295.604 38.9609 296.096 39.5242C296.587 40.0875 297.291 40.3691 298.208 40.3691ZM308.401 42.2947C307.615 42.2947 306.957 42.1506 306.426 41.8625C305.896 41.5677 305.493 41.1813 305.218 40.7032C304.949 40.2185 304.815 39.688 304.815 39.1116C304.815 38.5745 304.91 38.1029 305.1 37.6968C305.29 37.2908 305.572 36.9469 305.945 36.6653C306.318 36.3771 306.777 36.1446 307.32 35.9677C307.792 35.8302 308.326 35.709 308.922 35.6042C309.518 35.4994 310.143 35.4012 310.798 35.3095C311.46 35.2178 312.115 35.1261 312.763 35.0344L312.016 35.447C312.03 34.6152 311.853 33.9995 311.486 33.6C311.126 33.1939 310.503 32.9909 309.619 32.9909C309.063 32.9909 308.552 33.1219 308.087 33.3839C307.622 33.6393 307.297 34.065 307.114 34.6611L305.198 34.0716C305.46 33.1612 305.958 32.4374 306.692 31.9004C307.432 31.3633 308.414 31.0947 309.639 31.0947C310.589 31.0947 311.414 31.2585 312.115 31.586C312.822 31.9069 313.339 32.4178 313.667 33.1186C313.837 33.4657 313.942 33.8325 313.981 34.2189C314.021 34.6054 314.04 35.0213 314.04 35.4667V42H312.223V39.5733L312.576 39.8877C312.138 40.6999 311.578 41.3057 310.896 41.7053C310.222 42.0982 309.39 42.2947 308.401 42.2947ZM308.764 40.6147C309.347 40.6147 309.848 40.5132 310.268 40.3102C310.687 40.1006 311.024 39.8353 311.28 39.5144C311.535 39.1935 311.702 38.8594 311.781 38.5123C311.892 38.1979 311.954 37.8442 311.967 37.4512C311.987 37.0582 311.997 36.7439 311.997 36.5081L312.665 36.7537C312.016 36.8519 311.427 36.9404 310.896 37.0189C310.366 37.0975 309.884 37.1761 309.452 37.2547C309.026 37.3268 308.647 37.4152 308.313 37.52C308.031 37.6182 307.779 37.7361 307.556 37.8737C307.34 38.0112 307.166 38.1782 307.035 38.3747C306.911 38.5712 306.849 38.8103 306.849 39.0919C306.849 39.367 306.917 39.6225 307.055 39.8582C307.193 40.0875 307.402 40.2709 307.684 40.4084C307.965 40.546 308.326 40.6147 308.764 40.6147ZM315.609 42V40.2611C316.002 40.3331 316.3 40.3233 316.503 40.2316C316.713 40.1333 316.867 39.9565 316.965 39.7011C317.07 39.4456 317.158 39.1149 317.23 38.7088C317.341 38.1127 317.436 37.4349 317.515 36.6751C317.6 35.9088 317.675 35.0802 317.741 34.1895C317.806 33.2987 317.865 32.3654 317.918 31.3895H325.542V42H323.478V33.3249H319.765C319.725 33.8423 319.68 34.3925 319.627 34.9754C319.581 35.5518 319.529 36.1249 319.47 36.6947C319.411 37.2646 319.349 37.7984 319.283 38.2961C319.218 38.7939 319.149 39.2196 319.077 39.5733C318.946 40.2807 318.753 40.844 318.497 41.2632C318.249 41.6758 317.895 41.9411 317.436 42.0589C316.978 42.1834 316.369 42.1637 315.609 42ZM331.293 42.2947C330.507 42.2947 329.849 42.1506 329.318 41.8625C328.788 41.5677 328.385 41.1813 328.11 40.7032C327.841 40.2185 327.707 39.688 327.707 39.1116C327.707 38.5745 327.802 38.1029 327.992 37.6968C328.182 37.2908 328.464 36.9469 328.837 36.6653C329.21 36.3771 329.669 36.1446 330.212 35.9677C330.684 35.8302 331.218 35.709 331.814 35.6042C332.41 35.4994 333.035 35.4012 333.69 35.3095C334.352 35.2178 335.007 35.1261 335.655 35.0344L334.908 35.447C334.922 34.6152 334.745 33.9995 334.378 33.6C334.018 33.1939 333.395 32.9909 332.511 32.9909C331.955 32.9909 331.444 33.1219 330.979 33.3839C330.514 33.6393 330.189 34.065 330.006 34.6611L328.09 34.0716C328.352 33.1612 328.85 32.4374 329.584 31.9004C330.324 31.3633 331.306 31.0947 332.531 31.0947C333.481 31.0947 334.306 31.2585 335.007 31.586C335.714 31.9069 336.231 32.4178 336.559 33.1186C336.729 33.4657 336.834 33.8325 336.873 34.2189C336.913 34.6054 336.932 35.0213 336.932 35.4667V42H335.115V39.5733L335.468 39.8877C335.03 40.6999 334.47 41.3057 333.788 41.7053C333.114 42.0982 332.282 42.2947 331.293 42.2947ZM331.656 40.6147C332.239 40.6147 332.74 40.5132 333.16 40.3102C333.579 40.1006 333.916 39.8353 334.172 39.5144C334.427 39.1935 334.594 38.8594 334.673 38.5123C334.784 38.1979 334.846 37.8442 334.859 37.4512C334.879 37.0582 334.889 36.7439 334.889 36.5081L335.557 36.7537C334.908 36.8519 334.319 36.9404 333.788 37.0189C333.258 37.0975 332.776 37.1761 332.344 37.2547C331.918 37.3268 331.539 37.4152 331.205 37.52C330.923 37.6182 330.671 37.7361 330.448 37.8737C330.232 38.0112 330.058 38.1782 329.927 38.3747C329.803 38.5712 329.741 38.8103 329.741 39.0919C329.741 39.367 329.809 39.6225 329.947 39.8582C330.085 40.0875 330.294 40.2709 330.576 40.4084C330.857 40.546 331.218 40.6147 331.656 40.6147ZM339.474 42V31.3895H341.527V35.7221H346.704V31.3895H348.758V42H346.704V37.6575H341.527V42H339.474ZM356.054 42.2947C354.966 42.2947 354.043 42.0524 353.283 41.5677C352.523 41.083 351.94 40.4182 351.534 39.5733C351.135 38.7284 350.932 37.7689 350.925 36.6947C350.932 35.6009 351.141 34.6349 351.554 33.7965C351.967 32.9516 352.556 32.2901 353.322 31.8119C354.089 31.3338 355.009 31.0947 356.083 31.0947C357.242 31.0947 358.231 31.3829 359.05 31.9593C359.875 32.5357 360.419 33.3249 360.681 34.327L358.637 34.9165C358.434 34.3205 358.1 33.8587 357.635 33.5312C357.177 33.1972 356.65 33.0302 356.054 33.0302C355.379 33.0302 354.826 33.1906 354.393 33.5116C353.961 33.826 353.64 34.2582 353.43 34.8084C353.221 35.3586 353.113 35.9874 353.106 36.6947C353.113 37.7885 353.362 38.6727 353.853 39.3474C354.351 40.022 355.084 40.3593 356.054 40.3593C356.715 40.3593 357.249 40.2087 357.655 39.9074C358.068 39.5995 358.382 39.1607 358.598 38.5909L360.681 39.0821C360.334 40.117 359.761 40.9127 358.962 41.4695C358.163 42.0196 357.193 42.2947 356.054 42.2947Z" fill="#5B5760"/>
<path d="M117.768 79V60.8105H124.981C126.211 60.8105 127.217 61.0589 128 61.5558C128.792 62.0442 129.377 62.6716 129.756 63.4379C130.143 64.2042 130.337 64.9958 130.337 65.8126C130.337 66.8147 130.097 67.6653 129.617 68.3642C129.145 69.0632 128.501 69.5347 127.684 69.7789V69.1474C128.829 69.4084 129.697 69.9516 130.286 70.7768C130.884 71.6021 131.183 72.5411 131.183 73.5937C131.183 74.6716 130.977 75.6147 130.564 76.4232C130.152 77.2316 129.537 77.8632 128.72 78.3179C127.912 78.7726 126.909 79 125.714 79H117.768ZM120.851 76.1326H125.335C125.865 76.1326 126.341 76.0274 126.762 75.8168C127.183 75.5979 127.512 75.2947 127.747 74.9074C127.992 74.5116 128.114 74.0442 128.114 73.5053C128.114 73.0168 128.008 72.5789 127.798 72.1916C127.587 71.8042 127.28 71.4968 126.876 71.2695C126.472 71.0337 125.987 70.9158 125.423 70.9158H120.851V76.1326ZM120.851 68.0737H124.943C125.381 68.0737 125.773 67.9895 126.118 67.8211C126.463 67.6526 126.737 67.4042 126.939 67.0758C127.141 66.7474 127.242 66.3432 127.242 65.8632C127.242 65.2316 127.04 64.7053 126.636 64.2842C126.232 63.8632 125.667 63.6526 124.943 63.6526H120.851V68.0737ZM133.681 79V60.8105H136.725V67.1642H141.196C141.365 67.1642 141.592 67.1726 141.879 67.1895C142.165 67.1979 142.426 67.2232 142.662 67.2653C143.706 67.4253 144.569 67.7747 145.251 68.3137C145.942 68.8526 146.451 69.5347 146.78 70.36C147.116 71.1768 147.285 72.0821 147.285 73.0758C147.285 74.0779 147.116 74.9916 146.78 75.8168C146.451 76.6337 145.942 77.3116 145.251 77.8505C144.569 78.3895 143.706 78.7389 142.662 78.8989C142.426 78.9326 142.165 78.9579 141.879 78.9747C141.601 78.9916 141.373 79 141.196 79H133.681ZM136.725 76.1453H141.07C141.247 76.1453 141.436 76.1368 141.639 76.12C141.849 76.1032 142.047 76.0737 142.232 76.0316C142.729 75.9053 143.121 75.6821 143.407 75.3621C143.702 75.0421 143.908 74.68 144.026 74.2758C144.152 73.8632 144.215 73.4632 144.215 73.0758C144.215 72.6884 144.152 72.2926 144.026 71.8884C143.908 71.4842 143.702 71.1221 143.407 70.8021C143.121 70.4821 142.729 70.2589 142.232 70.1326C142.047 70.0821 141.849 70.0484 141.639 70.0316C141.436 70.0147 141.247 70.0063 141.07 70.0063H136.725V76.1453ZM149.104 79V60.8105H152.148V79H149.104ZM170.265 79H167.183V66.1789L158.745 79H155.663V60.8105H158.745V73.6316L167.183 60.8105H170.265V79ZM173.796 79V60.8105H185.544V63.6653H176.841V79H173.796ZM187.563 79V60.8105H195.079C195.255 60.8105 195.483 60.8189 195.761 60.8358C196.039 60.8442 196.295 60.8695 196.531 60.9116C197.584 61.0716 198.451 61.4211 199.133 61.96C199.824 62.4989 200.333 63.1811 200.662 64.0063C200.999 64.8232 201.167 65.7326 201.167 66.7347C201.167 67.7284 200.999 68.6379 200.662 69.4632C200.325 70.28 199.811 70.9579 199.121 71.4968C198.439 72.0358 197.575 72.3853 196.531 72.5453C196.295 72.5789 196.034 72.6042 195.748 72.6211C195.47 72.6379 195.247 72.6463 195.079 72.6463H190.607V79H187.563ZM190.607 69.8042H194.952C195.121 69.8042 195.31 69.7958 195.521 69.7789C195.731 69.7621 195.925 69.7284 196.102 69.6779C196.607 69.5516 197.003 69.3284 197.289 69.0084C197.584 68.6884 197.79 68.3263 197.908 67.9221C198.034 67.5179 198.098 67.1221 198.098 66.7347C198.098 66.3474 198.034 65.9516 197.908 65.5474C197.79 65.1347 197.584 64.7684 197.289 64.4484C197.003 64.1284 196.607 63.9053 196.102 63.7789C195.925 63.7284 195.731 63.6989 195.521 63.6905C195.31 63.6737 195.121 63.6653 194.952 63.6653H190.607V69.8042ZM203.672 79V60.8105H206.717V67.1642H211.188C211.357 67.1642 211.584 67.1726 211.87 67.1895C212.157 67.1979 212.418 67.2232 212.653 67.2653C213.698 67.4253 214.561 67.7747 215.243 68.3137C215.933 68.8526 216.443 69.5347 216.771 70.36C217.108 71.1768 217.277 72.0821 217.277 73.0758C217.277 74.0779 217.108 74.9916 216.771 75.8168C216.443 76.6337 215.933 77.3116 215.243 77.8505C214.561 78.3895 213.698 78.7389 212.653 78.8989C212.418 78.9326 212.157 78.9579 211.87 78.9747C211.592 78.9916 211.365 79 211.188 79H203.672ZM206.717 76.1453H211.062C211.239 76.1453 211.428 76.1368 211.63 76.12C211.841 76.1032 212.039 76.0737 212.224 76.0316C212.721 75.9053 213.112 75.6821 213.399 75.3621C213.693 75.0421 213.9 74.68 214.018 74.2758C214.144 73.8632 214.207 73.4632 214.207 73.0758C214.207 72.6884 214.144 72.2926 214.018 71.8884C213.9 71.4842 213.693 71.1221 213.399 70.8021C213.112 70.4821 212.721 70.2589 212.224 70.1326C212.039 70.0821 211.841 70.0484 211.63 70.0316C211.428 70.0147 211.239 70.0063 211.062 70.0063H206.717V76.1453ZM219.096 79V60.8105H222.14V79H219.096ZM225.655 79V60.8105H228.699V76.1453H234.32V60.8105H237.364V76.1453H242.998V60.8105H246.03V79H225.655ZM260.568 79.3789C259.364 79.3789 258.295 79.1347 257.36 78.6463C256.425 78.1579 255.692 77.48 255.162 76.6126C254.631 75.7453 254.366 74.7516 254.366 73.6316C254.366 72.6295 254.598 71.6989 255.061 70.84C255.524 69.9811 256.202 69.2947 257.095 68.7811L257.031 69.7537C256.332 69.2232 255.789 68.6126 255.402 67.9221C255.023 67.2232 254.833 66.44 254.833 65.5726C254.833 64.5284 255.078 63.6232 255.566 62.8568C256.063 62.0905 256.741 61.4968 257.6 61.0758C258.459 60.6463 259.448 60.4316 260.568 60.4316C261.688 60.4316 262.678 60.6463 263.537 61.0758C264.404 61.4968 265.082 62.0905 265.57 62.8568C266.067 63.6232 266.316 64.5284 266.316 65.5726C266.316 66.44 266.13 67.2189 265.76 67.9095C265.398 68.6 264.846 69.2232 264.105 69.7789L264.092 68.7937C264.968 69.2905 265.638 69.9726 266.101 70.84C266.572 71.6989 266.808 72.6295 266.808 73.6316C266.808 74.7516 266.539 75.7453 266 76.6126C265.469 77.48 264.732 78.1579 263.789 78.6463C262.855 79.1347 261.781 79.3789 260.568 79.3789ZM260.568 76.5116C261.461 76.5116 262.185 76.2674 262.741 75.7789C263.305 75.2905 263.587 74.5747 263.587 73.6316C263.587 72.6884 263.309 71.9726 262.753 71.4842C262.198 70.9874 261.469 70.7389 260.568 70.7389C259.676 70.7389 258.956 70.9874 258.408 71.4842C257.861 71.9726 257.587 72.6884 257.587 73.6316C257.587 74.5747 257.861 75.2905 258.408 75.7789C258.956 76.2674 259.676 76.5116 260.568 76.5116ZM260.568 67.8463C261.318 67.8463 261.924 67.6611 262.387 67.2905C262.859 66.9116 263.095 66.3389 263.095 65.5726C263.095 64.8063 262.859 64.2379 262.387 63.8674C261.924 63.4884 261.318 63.2989 260.568 63.2989C259.827 63.2989 259.221 63.4884 258.749 63.8674C258.286 64.2379 258.055 64.8063 258.055 65.5726C258.055 66.3389 258.286 66.9116 258.749 67.2905C259.221 67.6611 259.827 67.8463 260.568 67.8463ZM270.087 72.3811V69.7789H278.652C278.786 69.7789 278.951 69.7747 279.144 69.7663C279.346 69.7495 279.57 69.7074 279.814 69.64C280.513 69.4463 281.018 69.0968 281.33 68.5916C281.641 68.0779 281.797 67.48 281.797 66.7979C281.797 66.3853 281.734 65.9726 281.607 65.56C281.49 65.1389 281.283 64.7684 280.989 64.4484C280.702 64.1284 280.311 63.9053 279.814 63.7789C279.595 63.72 279.372 63.6863 279.144 63.6779C278.925 63.6695 278.761 63.6653 278.652 63.6653H273.89V60.8105H278.778C278.871 60.8105 279.052 60.8147 279.321 60.8232C279.599 60.8316 279.906 60.8611 280.243 60.9116C281.287 61.0716 282.151 61.4211 282.833 61.96C283.523 62.4989 284.033 63.1811 284.361 64.0063C284.698 64.8232 284.866 65.7242 284.866 66.7095C284.866 68.2168 284.483 69.4632 283.717 70.4484C282.951 71.4337 281.793 72.0442 280.243 72.28C279.906 72.3221 279.599 72.3516 279.321 72.3684C279.052 72.3768 278.871 72.3811 278.778 72.3811H270.087ZM270.087 76.5242V74.1368H280.862V76.5242H270.087ZM271.894 79V60.8105H274.938V79H271.894Z" fill="#232027"/>
<path d="M122.164 110.253C120.957 110.253 119.933 109.986 119.091 109.453C118.248 108.919 117.606 108.178 117.162 107.229C116.724 106.281 116.505 105.183 116.505 103.937C116.505 102.691 116.724 101.593 117.162 100.644C117.606 99.6954 118.248 98.9544 119.091 98.4211C119.933 97.8877 120.957 97.6211 122.164 97.6211C123.568 97.6211 124.721 97.9775 125.625 98.6905C126.535 99.4035 127.161 100.364 127.503 101.571L125.979 101.975C125.732 101.071 125.291 100.358 124.657 99.8358C124.022 99.3137 123.192 99.0526 122.164 99.0526C121.26 99.0526 120.508 99.2575 119.907 99.6674C119.307 100.077 118.855 100.65 118.552 101.385C118.248 102.115 118.094 102.966 118.088 103.937C118.083 104.902 118.232 105.753 118.535 106.488C118.838 107.218 119.293 107.791 119.899 108.206C120.505 108.616 121.26 108.821 122.164 108.821C123.192 108.821 124.022 108.56 124.657 108.038C125.291 107.51 125.732 106.797 125.979 105.899L127.503 106.303C127.161 107.505 126.535 108.465 125.625 109.183C124.721 109.896 123.568 110.253 122.164 110.253ZM131.758 110V102.269H128.592V100.905H136.424V102.269H133.257V110H131.758ZM141.727 110.253C140.823 110.253 140.043 110.048 139.386 109.638C138.735 109.228 138.232 108.661 137.879 107.937C137.525 107.213 137.348 106.382 137.348 105.444C137.348 104.49 137.528 103.653 137.887 102.935C138.246 102.216 138.754 101.658 139.411 101.259C140.068 100.855 140.84 100.653 141.727 100.653C142.636 100.653 143.42 100.858 144.076 101.267C144.733 101.672 145.236 102.236 145.584 102.96C145.938 103.679 146.114 104.507 146.114 105.444C146.114 106.393 145.938 107.229 145.584 107.954C145.23 108.672 144.725 109.236 144.068 109.646C143.411 110.051 142.631 110.253 141.727 110.253ZM141.727 108.829C142.67 108.829 143.372 108.515 143.832 107.886C144.293 107.258 144.523 106.444 144.523 105.444C144.523 104.417 144.29 103.6 143.824 102.994C143.358 102.382 142.659 102.076 141.727 102.076C141.093 102.076 140.57 102.219 140.161 102.505C139.751 102.792 139.445 103.187 139.243 103.693C139.041 104.198 138.94 104.782 138.94 105.444C138.94 106.466 139.175 107.286 139.647 107.903C140.119 108.521 140.812 108.829 141.727 108.829ZM155.413 100.905V110H153.964V103.297L149.198 110H147.96V100.905H149.408V107.516L154.183 100.905H155.413ZM157.763 110V100.905H159.051L162.504 107.962L165.956 100.905H167.245V110H165.796V104.029L162.899 110H162.108L159.211 104.029V110H157.763ZM173.47 110.253C172.567 110.253 171.786 110.048 171.129 109.638C170.478 109.228 169.976 108.661 169.622 107.937C169.268 107.213 169.091 106.382 169.091 105.444C169.091 104.49 169.271 103.653 169.63 102.935C169.99 102.216 170.498 101.658 171.155 101.259C171.811 100.855 172.583 100.653 173.47 100.653C174.38 100.653 175.163 100.858 175.82 101.267C176.477 101.672 176.979 102.236 177.327 102.96C177.681 103.679 177.858 104.507 177.858 105.444C177.858 106.393 177.681 107.229 177.327 107.954C176.974 108.672 176.468 109.236 175.811 109.646C175.155 110.051 174.374 110.253 173.47 110.253ZM173.47 108.829C174.414 108.829 175.115 108.515 175.576 107.886C176.036 107.258 176.266 106.444 176.266 105.444C176.266 104.417 176.033 103.6 175.567 102.994C175.101 102.382 174.402 102.076 173.47 102.076C172.836 102.076 172.314 102.219 171.904 102.505C171.494 102.792 171.188 103.187 170.986 103.693C170.784 104.198 170.683 104.782 170.683 105.444C170.683 106.466 170.919 107.286 171.39 107.903C171.862 108.521 172.555 108.829 173.47 108.829ZM183.543 110.253C182.623 110.253 181.84 110.048 181.194 109.638C180.554 109.222 180.066 108.653 179.729 107.928C179.392 107.204 179.218 106.379 179.207 105.453C179.218 104.504 179.395 103.67 179.737 102.952C180.085 102.227 180.582 101.663 181.228 101.259C181.873 100.855 182.651 100.653 183.56 100.653C184.52 100.653 185.346 100.888 186.036 101.36C186.732 101.832 187.198 102.477 187.434 103.297L185.952 103.743C185.761 103.215 185.449 102.806 185.017 102.514C184.59 102.222 184.099 102.076 183.543 102.076C182.92 102.076 182.407 102.222 182.002 102.514C181.598 102.8 181.298 103.199 181.101 103.709C180.905 104.215 180.804 104.796 180.798 105.453C180.809 106.463 181.042 107.28 181.497 107.903C181.957 108.521 182.64 108.829 183.543 108.829C184.139 108.829 184.633 108.695 185.026 108.425C185.419 108.15 185.716 107.754 185.918 107.238L187.434 107.634C187.12 108.481 186.628 109.13 185.96 109.579C185.292 110.028 184.487 110.253 183.543 110.253ZM191.397 110V102.269H188.23V100.905H196.062V102.269H192.896V110H191.397ZM197.656 110L197.648 100.905H199.155V104.198H201.117C201.381 104.198 201.65 104.204 201.925 104.215C202.2 104.226 202.439 104.251 202.641 104.291C203.113 104.38 203.525 104.538 203.879 104.762C204.233 104.987 204.508 105.293 204.704 105.68C204.901 106.062 204.999 106.536 204.999 107.103C204.999 107.889 204.794 108.512 204.384 108.973C203.98 109.427 203.45 109.731 202.793 109.882C202.568 109.933 202.31 109.966 202.018 109.983C201.732 109.994 201.459 110 201.201 110H197.656ZM199.155 108.762H201.226C201.395 108.762 201.583 108.756 201.791 108.745C201.998 108.734 202.184 108.706 202.346 108.661C202.633 108.577 202.888 108.411 203.113 108.164C203.343 107.917 203.458 107.564 203.458 107.103C203.458 106.637 203.346 106.278 203.121 106.025C202.902 105.773 202.613 105.607 202.254 105.528C202.091 105.489 201.92 105.464 201.74 105.453C201.56 105.441 201.389 105.436 201.226 105.436H199.155V108.762ZM210.213 110V100.905H214.087C214.317 100.905 214.564 100.919 214.828 100.947C215.098 100.97 215.342 101.012 215.561 101.074C216.049 101.203 216.45 101.469 216.765 101.874C217.085 102.272 217.245 102.778 217.245 103.389C217.245 103.732 217.192 104.029 217.085 104.282C216.984 104.535 216.838 104.754 216.647 104.939C216.563 105.023 216.47 105.099 216.369 105.166C216.268 105.234 216.167 105.287 216.066 105.326C216.262 105.36 216.462 105.436 216.664 105.554C216.984 105.728 217.234 105.972 217.413 106.286C217.599 106.601 217.691 107.002 217.691 107.491C217.691 108.108 217.542 108.619 217.245 109.023C216.947 109.422 216.538 109.697 216.015 109.848C215.796 109.91 215.555 109.952 215.291 109.975C215.027 109.992 214.772 110 214.525 110H210.213ZM211.729 108.779H214.441C214.559 108.779 214.699 108.768 214.862 108.745C215.03 108.723 215.179 108.695 215.308 108.661C215.6 108.577 215.81 108.42 215.94 108.189C216.074 107.959 216.142 107.709 216.142 107.44C216.142 107.081 216.041 106.789 215.839 106.564C215.642 106.34 215.381 106.199 215.055 106.143C214.938 106.109 214.808 106.09 214.668 106.084C214.533 106.079 214.413 106.076 214.306 106.076H211.729V108.779ZM211.729 104.838H213.986C214.143 104.838 214.309 104.829 214.483 104.813C214.657 104.79 214.808 104.754 214.938 104.703C215.196 104.608 215.384 104.451 215.502 104.232C215.625 104.007 215.687 103.763 215.687 103.499C215.687 103.207 215.62 102.952 215.485 102.733C215.356 102.508 215.156 102.354 214.887 102.269C214.707 102.202 214.505 102.166 214.281 102.16C214.062 102.149 213.921 102.143 213.86 102.143H211.729V104.838ZM223.56 110.253C222.706 110.253 221.988 110.042 221.404 109.621C220.82 109.194 220.377 108.619 220.073 107.895C219.776 107.165 219.627 106.348 219.627 105.444C219.627 104.529 219.776 103.709 220.073 102.985C220.377 102.261 220.82 101.691 221.404 101.276C221.993 100.86 222.715 100.653 223.568 100.653C224.41 100.653 225.134 100.863 225.741 101.284C226.353 101.7 226.821 102.269 227.147 102.994C227.473 103.718 227.636 104.535 227.636 105.444C227.636 106.354 227.473 107.171 227.147 107.895C226.821 108.619 226.353 109.194 225.741 109.621C225.134 110.042 224.407 110.253 223.56 110.253ZM219.374 114.042V100.905H220.713V107.6H220.882V114.042H219.374ZM223.374 108.88C223.975 108.88 224.472 108.728 224.865 108.425C225.258 108.122 225.553 107.712 225.749 107.196C225.946 106.674 226.044 106.09 226.044 105.444C226.044 104.804 225.946 104.226 225.749 103.709C225.558 103.193 225.261 102.783 224.857 102.48C224.458 102.177 223.95 102.025 223.332 102.025C222.743 102.025 222.254 102.171 221.867 102.463C221.48 102.749 221.191 103.151 221 103.667C220.809 104.178 220.713 104.771 220.713 105.444C220.713 106.107 220.806 106.699 220.991 107.221C221.182 107.738 221.474 108.145 221.867 108.442C222.26 108.734 222.763 108.88 223.374 108.88ZM232.067 110.253C231.388 110.253 230.818 110.129 230.357 109.882C229.903 109.629 229.557 109.298 229.322 108.888C229.091 108.479 228.976 108.029 228.976 107.541C228.976 107.064 229.066 106.651 229.246 106.303C229.431 105.949 229.689 105.658 230.021 105.427C230.352 105.192 230.748 105.006 231.208 104.872C231.64 104.754 232.123 104.653 232.656 104.568C233.195 104.479 233.74 104.397 234.29 104.324C234.84 104.251 235.354 104.181 235.831 104.114L235.292 104.425C235.309 103.617 235.146 103.019 234.804 102.632C234.467 102.244 233.883 102.051 233.052 102.051C232.502 102.051 232.019 102.177 231.604 102.429C231.194 102.676 230.905 103.081 230.736 103.642L229.313 103.213C229.532 102.415 229.956 101.789 230.585 101.335C231.214 100.88 232.042 100.653 233.069 100.653C233.894 100.653 234.602 100.801 235.191 101.099C235.786 101.391 236.213 101.834 236.471 102.429C236.6 102.71 236.682 103.016 236.715 103.347C236.749 103.673 236.766 104.015 236.766 104.375V110H235.435V107.819L235.747 108.021C235.404 108.756 234.924 109.312 234.307 109.688C233.695 110.065 232.948 110.253 232.067 110.253ZM232.294 108.998C232.833 108.998 233.299 108.902 233.692 108.712C234.091 108.515 234.411 108.26 234.652 107.945C234.894 107.625 235.051 107.277 235.124 106.901C235.208 106.62 235.253 106.309 235.258 105.966C235.27 105.618 235.275 105.352 235.275 105.166L235.797 105.394C235.309 105.461 234.829 105.526 234.357 105.587C233.886 105.649 233.439 105.716 233.018 105.789C232.597 105.857 232.218 105.938 231.882 106.034C231.635 106.112 231.402 106.213 231.183 106.337C230.969 106.46 230.795 106.62 230.661 106.817C230.531 107.008 230.467 107.246 230.467 107.533C230.467 107.78 230.529 108.015 230.652 108.24C230.781 108.465 230.978 108.647 231.242 108.787C231.511 108.928 231.862 108.998 232.294 108.998ZM249.128 111.684V110H238.947V100.905H240.395V108.636H243.528V100.905H244.976V108.636H248.101V100.905H249.549V108.636H250.627V111.684H249.128ZM255.923 110.253C255.03 110.253 254.25 110.056 253.582 109.663C252.919 109.265 252.403 108.712 252.032 108.004C251.662 107.291 251.476 106.46 251.476 105.512C251.476 104.518 251.659 103.659 252.024 102.935C252.389 102.205 252.897 101.644 253.548 101.251C254.205 100.852 254.974 100.653 255.855 100.653C256.77 100.653 257.548 100.863 258.188 101.284C258.834 101.705 259.316 102.306 259.636 103.086C259.962 103.867 260.102 104.796 260.057 105.874H258.542V105.335C258.525 104.218 258.297 103.384 257.859 102.834C257.422 102.278 256.77 102 255.906 102C254.979 102 254.275 102.298 253.792 102.893C253.309 103.488 253.068 104.341 253.068 105.453C253.068 106.525 253.309 107.356 253.792 107.945C254.275 108.535 254.963 108.829 255.855 108.829C256.456 108.829 256.978 108.692 257.422 108.417C257.865 108.142 258.213 107.746 258.466 107.229L259.906 107.726C259.552 108.529 259.019 109.152 258.306 109.596C257.598 110.034 256.804 110.253 255.923 110.253ZM252.563 105.874V104.669H259.283V105.874H252.563ZM261.924 110V100.905H263.423V104.737H268.206V100.905H269.705V110H268.206V106.16H263.423V110H261.924ZM279.508 100.905V110H278.06V103.297L273.293 110H272.055V100.905H273.504V107.516L278.279 100.905H279.508ZM287.483 110V106.707H285.521C285.291 106.707 285.036 106.699 284.755 106.682C284.48 106.66 284.222 106.629 283.98 106.589C283.323 106.466 282.768 106.177 282.313 105.722C281.864 105.267 281.639 104.639 281.639 103.836C281.639 103.055 281.85 102.429 282.271 101.958C282.697 101.481 283.222 101.172 283.845 101.032C284.126 100.964 284.41 100.928 284.696 100.922C284.988 100.911 285.235 100.905 285.437 100.905H288.982L288.991 110H287.483ZM281.361 110L283.778 106.295H285.395L282.978 110H281.361ZM285.412 105.469H287.483V102.143H285.412C285.283 102.143 285.111 102.149 284.898 102.16C284.69 102.171 284.491 102.205 284.3 102.261C284.12 102.312 283.944 102.404 283.77 102.539C283.601 102.674 283.461 102.848 283.349 103.061C283.236 103.274 283.18 103.527 283.18 103.819C283.18 104.24 283.298 104.582 283.534 104.846C283.77 105.105 284.056 105.279 284.393 105.368C284.578 105.413 284.76 105.441 284.94 105.453C285.125 105.464 285.283 105.469 285.412 105.469ZM296.842 110V99.5326L294.56 100.914V99.2379L296.842 97.8737H298.366V110H296.842ZM305.663 110.253C304.877 110.253 304.175 110.076 303.558 109.722C302.946 109.363 302.46 108.877 302.101 108.265C301.747 107.648 301.57 106.946 301.57 106.16V101.714C301.57 100.928 301.747 100.226 302.101 99.6084C302.46 98.9909 302.946 98.5053 303.558 98.1516C304.175 97.7979 304.877 97.6211 305.663 97.6211C306.449 97.6211 307.151 97.7979 307.768 98.1516C308.386 98.5053 308.871 98.9909 309.225 99.6084C309.579 100.226 309.756 100.928 309.756 101.714V106.16C309.756 106.946 309.579 107.648 309.225 108.265C308.871 108.877 308.386 109.363 307.768 109.722C307.151 110.076 306.449 110.253 305.663 110.253ZM305.663 108.813C306.14 108.813 306.573 108.698 306.96 108.467C307.347 108.237 307.656 107.928 307.886 107.541C308.116 107.148 308.231 106.716 308.231 106.244V101.621C308.231 101.144 308.116 100.712 307.886 100.324C307.656 99.9368 307.347 99.6281 306.96 99.3979C306.573 99.1677 306.14 99.0526 305.663 99.0526C305.191 99.0526 304.759 99.1677 304.366 99.3979C303.979 99.6281 303.67 99.9368 303.44 100.324C303.21 100.712 303.095 101.144 303.095 101.621V106.244C303.095 106.716 303.21 107.148 303.44 107.541C303.67 107.928 303.979 108.237 304.366 108.467C304.759 108.698 305.191 108.813 305.663 108.813ZM312.113 105.411V104.088H317.865C317.96 104.088 318.072 104.083 318.202 104.072C318.336 104.06 318.477 104.038 318.623 104.004C319.184 103.869 319.599 103.592 319.869 103.171C320.138 102.749 320.273 102.267 320.273 101.722C320.273 101.374 320.217 101.037 320.105 100.712C319.992 100.386 319.813 100.102 319.566 99.8611C319.324 99.6196 319.01 99.4568 318.623 99.3726C318.488 99.3333 318.348 99.3109 318.202 99.3053C318.061 99.2996 317.949 99.2968 317.865 99.2968H314.454V97.8737H317.915C317.999 97.8737 318.12 97.8765 318.277 97.8821C318.44 97.8877 318.617 97.9074 318.808 97.9411C319.465 98.0421 320.015 98.2667 320.458 98.6147C320.908 98.9628 321.244 99.4007 321.469 99.9284C321.694 100.456 321.806 101.043 321.806 101.688C321.806 102.648 321.553 103.46 321.048 104.122C320.543 104.779 319.796 105.186 318.808 105.343C318.617 105.371 318.44 105.391 318.277 105.402C318.12 105.408 317.999 105.411 317.915 105.411H312.113ZM312.113 108.08V106.842H318.85V108.08H312.113ZM313.376 110V97.8737H314.875V110H313.376ZM327.136 110V108.349H328.786V110H327.136Z" fill="#393540"/>
<path d="M118.324 132.583L117.221 131.783L118.526 130.141L116.505 129.552L116.926 128.255L118.897 128.987L118.821 126.874H120.185L120.109 128.987L122.08 128.255L122.501 129.552L120.48 130.141L121.777 131.783L120.674 132.583L119.503 130.848L118.324 132.583ZM134.051 139H132.535V129.518L126.211 139H124.695V126.874H126.211V136.347L132.535 126.874H134.051V139ZM140.238 139.253C139.317 139.253 138.534 139.048 137.888 138.638C137.248 138.222 136.76 137.653 136.423 136.928C136.086 136.204 135.912 135.379 135.901 134.453C135.912 133.504 136.089 132.67 136.431 131.952C136.779 131.227 137.276 130.663 137.922 130.259C138.567 129.855 139.345 129.653 140.254 129.653C141.214 129.653 142.04 129.888 142.73 130.36C143.426 130.832 143.892 131.477 144.128 132.297L142.646 132.743C142.455 132.215 142.143 131.806 141.711 131.514C141.285 131.222 140.793 131.076 140.238 131.076C139.614 131.076 139.101 131.222 138.696 131.514C138.292 131.8 137.992 132.199 137.795 132.709C137.599 133.215 137.498 133.796 137.492 134.453C137.503 135.463 137.736 136.28 138.191 136.903C138.652 137.521 139.334 137.829 140.238 137.829C140.833 137.829 141.327 137.695 141.72 137.425C142.113 137.15 142.41 136.754 142.612 136.238L144.128 136.634C143.814 137.481 143.322 138.13 142.654 138.579C141.986 139.028 141.181 139.253 140.238 139.253ZM145.838 139V129.905H153.291V139H151.792V131.328H147.337V139H145.838ZM155.649 139L155.641 129.905H157.148V133.198H158.538C158.802 133.198 159.071 133.204 159.346 133.215C159.621 133.226 159.86 133.251 160.062 133.291C160.534 133.386 160.946 133.546 161.3 133.771C161.654 133.995 161.929 134.298 162.125 134.68C162.322 135.062 162.42 135.536 162.42 136.103C162.42 136.889 162.215 137.512 161.805 137.973C161.401 138.427 160.87 138.731 160.214 138.882C159.989 138.933 159.731 138.966 159.439 138.983C159.153 138.994 158.88 139 158.622 139H155.649ZM157.148 137.762H158.647C158.816 137.762 159.004 137.756 159.211 137.745C159.419 137.734 159.604 137.706 159.767 137.661C160.054 137.577 160.309 137.411 160.534 137.164C160.764 136.917 160.879 136.564 160.879 136.103C160.879 135.637 160.767 135.278 160.542 135.025C160.323 134.773 160.034 134.607 159.675 134.528C159.512 134.489 159.341 134.464 159.161 134.453C158.981 134.441 158.81 134.436 158.647 134.436H157.148V137.762ZM163.464 139V129.905H164.963V139H163.464ZM169.735 139V131.269H166.569V129.905H174.401V131.269H171.234V139H169.735ZM178.284 139.253C177.605 139.253 177.035 139.129 176.574 138.882C176.12 138.629 175.774 138.298 175.539 137.888C175.309 137.479 175.193 137.029 175.193 136.541C175.193 136.064 175.283 135.651 175.463 135.303C175.648 134.949 175.906 134.658 176.238 134.427C176.569 134.192 176.965 134.006 177.425 133.872C177.857 133.754 178.34 133.653 178.873 133.568C179.412 133.479 179.957 133.397 180.507 133.324C181.057 133.251 181.571 133.181 182.048 133.114L181.509 133.425C181.526 132.617 181.363 132.019 181.021 131.632C180.684 131.244 180.1 131.051 179.269 131.051C178.719 131.051 178.236 131.177 177.821 131.429C177.411 131.676 177.122 132.081 176.953 132.642L175.53 132.213C175.749 131.415 176.173 130.789 176.802 130.335C177.431 129.88 178.259 129.653 179.286 129.653C180.111 129.653 180.819 129.801 181.408 130.099C182.003 130.391 182.43 130.834 182.688 131.429C182.817 131.71 182.899 132.016 182.932 132.347C182.966 132.673 182.983 133.015 182.983 133.375V139H181.652V136.819L181.964 137.021C181.621 137.756 181.141 138.312 180.524 138.688C179.912 139.065 179.165 139.253 178.284 139.253ZM178.511 137.998C179.05 137.998 179.516 137.902 179.909 137.712C180.308 137.515 180.628 137.26 180.869 136.945C181.111 136.625 181.268 136.277 181.341 135.901C181.425 135.62 181.47 135.309 181.476 134.966C181.487 134.618 181.492 134.352 181.492 134.166L182.014 134.394C181.526 134.461 181.046 134.526 180.574 134.587C180.103 134.649 179.657 134.716 179.236 134.789C178.814 134.857 178.436 134.938 178.099 135.034C177.852 135.112 177.619 135.213 177.4 135.337C177.186 135.46 177.012 135.62 176.878 135.817C176.749 136.008 176.684 136.246 176.684 136.533C176.684 136.78 176.746 137.015 176.869 137.24C176.998 137.465 177.195 137.647 177.459 137.787C177.728 137.928 178.079 137.998 178.511 137.998ZM189.088 128.844C188.667 128.844 188.283 128.74 187.934 128.533C187.586 128.325 187.309 128.05 187.101 127.707C186.893 127.359 186.789 126.972 186.789 126.545H188.002C188.002 126.843 188.109 127.098 188.322 127.312C188.535 127.525 188.791 127.632 189.088 127.632C189.391 127.632 189.647 127.525 189.854 127.312C190.068 127.098 190.174 126.843 190.174 126.545H191.387C191.387 126.972 191.283 127.359 191.076 127.707C190.873 128.05 190.596 128.325 190.242 128.533C189.894 128.74 189.509 128.844 189.088 128.844ZM192.617 129.905V139H191.168V132.297L186.402 139H185.164V129.905H186.612V136.516L191.387 129.905H192.617ZM202.178 139.253C201.258 139.253 200.474 139.048 199.829 138.638C199.189 138.222 198.7 137.653 198.364 136.928C198.027 136.204 197.853 135.379 197.841 134.453C197.853 133.504 198.03 132.67 198.372 131.952C198.72 131.227 199.217 130.663 199.863 130.259C200.508 129.855 201.286 129.653 202.195 129.653C203.155 129.653 203.98 129.888 204.671 130.36C205.367 130.832 205.833 131.477 206.069 132.297L204.587 132.743C204.396 132.215 204.084 131.806 203.652 131.514C203.225 131.222 202.734 131.076 202.178 131.076C201.555 131.076 201.041 131.222 200.637 131.514C200.233 131.8 199.933 132.199 199.736 132.709C199.54 133.215 199.439 133.796 199.433 134.453C199.444 135.463 199.677 136.28 200.132 136.903C200.592 137.521 201.274 137.829 202.178 137.829C202.773 137.829 203.267 137.695 203.66 137.425C204.053 137.15 204.351 136.754 204.553 136.238L206.069 136.634C205.754 137.481 205.263 138.13 204.595 138.579C203.927 139.028 203.121 139.253 202.178 139.253ZM207.779 139V129.905H211.653C211.883 129.905 212.13 129.919 212.394 129.947C212.663 129.97 212.908 130.012 213.126 130.074C213.615 130.203 214.016 130.469 214.331 130.874C214.651 131.272 214.811 131.778 214.811 132.389C214.811 132.732 214.757 133.029 214.651 133.282C214.55 133.535 214.404 133.754 214.213 133.939C214.129 134.023 214.036 134.099 213.935 134.166C213.834 134.234 213.733 134.287 213.632 134.326C213.828 134.36 214.028 134.436 214.23 134.554C214.55 134.728 214.799 134.972 214.979 135.286C215.164 135.601 215.257 136.002 215.257 136.491C215.257 137.108 215.108 137.619 214.811 138.023C214.513 138.422 214.103 138.697 213.581 138.848C213.362 138.91 213.121 138.952 212.857 138.975C212.593 138.992 212.338 139 212.091 139H207.779ZM209.295 137.779H212.006C212.124 137.779 212.265 137.768 212.428 137.745C212.596 137.723 212.745 137.695 212.874 137.661C213.166 137.577 213.376 137.42 213.505 137.189C213.64 136.959 213.708 136.709 213.708 136.44C213.708 136.081 213.606 135.789 213.404 135.564C213.208 135.34 212.947 135.199 212.621 135.143C212.503 135.109 212.374 135.09 212.234 135.084C212.099 135.079 211.978 135.076 211.872 135.076H209.295V137.779ZM209.295 133.838H211.552C211.709 133.838 211.875 133.829 212.049 133.813C212.223 133.79 212.374 133.754 212.503 133.703C212.762 133.608 212.95 133.451 213.068 133.232C213.191 133.007 213.253 132.763 213.253 132.499C213.253 132.207 213.185 131.952 213.051 131.733C212.922 131.508 212.722 131.354 212.453 131.269C212.273 131.202 212.071 131.166 211.846 131.16C211.628 131.149 211.487 131.143 211.425 131.143H209.295V133.838ZM220.822 139.253C219.919 139.253 219.138 139.048 218.481 138.638C217.83 138.228 217.328 137.661 216.974 136.937C216.62 136.213 216.443 135.382 216.443 134.444C216.443 133.49 216.623 132.653 216.982 131.935C217.342 131.216 217.85 130.658 218.507 130.259C219.163 129.855 219.935 129.653 220.822 129.653C221.732 129.653 222.515 129.858 223.172 130.267C223.829 130.672 224.331 131.236 224.679 131.96C225.033 132.679 225.21 133.507 225.21 134.444C225.21 135.393 225.033 136.229 224.679 136.954C224.326 137.672 223.82 138.236 223.163 138.646C222.507 139.051 221.726 139.253 220.822 139.253ZM220.822 137.829C221.766 137.829 222.467 137.515 222.928 136.886C223.388 136.258 223.618 135.444 223.618 134.444C223.618 133.417 223.385 132.6 222.919 131.994C222.453 131.382 221.754 131.076 220.822 131.076C220.188 131.076 219.666 131.219 219.256 131.505C218.846 131.792 218.54 132.187 218.338 132.693C218.136 133.198 218.035 133.782 218.035 134.444C218.035 135.466 218.271 136.286 218.742 136.903C219.214 137.521 219.907 137.829 220.822 137.829ZM234.483 139.253C233.708 139.253 233.023 139.087 232.428 138.756C231.839 138.425 231.364 137.956 231.005 137.349C230.646 136.743 230.421 136.027 230.331 135.202H228.554V139H227.055V129.905H228.554V133.703H230.323C230.413 132.861 230.64 132.137 231.005 131.531C231.37 130.924 231.85 130.461 232.445 130.141C233.04 129.815 233.725 129.653 234.5 129.653C235.403 129.653 236.181 129.858 236.832 130.267C237.489 130.677 237.992 131.241 238.34 131.96C238.693 132.679 238.87 133.504 238.87 134.436C238.87 135.385 238.69 136.221 238.331 136.945C237.978 137.669 237.472 138.236 236.815 138.646C236.164 139.051 235.387 139.253 234.483 139.253ZM234.458 137.829C235.412 137.829 236.119 137.518 236.58 136.895C237.046 136.266 237.279 135.449 237.279 134.444C237.279 133.411 237.043 132.592 236.571 131.985C236.105 131.379 235.403 131.076 234.466 131.076C233.562 131.076 232.874 131.376 232.403 131.977C231.931 132.578 231.695 133.397 231.695 134.436C231.695 135.463 231.928 136.286 232.394 136.903C232.866 137.521 233.554 137.829 234.458 137.829ZM245.35 143.042L247.11 138.259L247.135 139.674L243.161 129.905H244.735L247.851 137.762H247.312L250.234 129.905H251.758L246.807 143.042H245.35ZM252.147 141.021V137.762C252.658 137.762 253.023 137.596 253.241 137.265C253.46 136.928 253.637 136.375 253.772 135.606C253.862 135.124 253.935 134.607 253.991 134.057C254.047 133.507 254.095 132.895 254.134 132.221C254.179 131.542 254.221 130.77 254.26 129.905H260.526V137.762H261.41V141.021H259.978V139H253.578V141.021H252.147ZM254.454 137.762H259.027V131.143H255.616C255.599 131.542 255.577 131.96 255.549 132.398C255.521 132.83 255.487 133.262 255.448 133.695C255.414 134.127 255.372 134.537 255.321 134.924C255.277 135.306 255.223 135.648 255.161 135.952C255.088 136.373 255.004 136.729 254.909 137.021C254.813 137.313 254.662 137.56 254.454 137.762ZM265.685 139.253C265.006 139.253 264.436 139.129 263.976 138.882C263.521 138.629 263.176 138.298 262.94 137.888C262.71 137.479 262.595 137.029 262.595 136.541C262.595 136.064 262.685 135.651 262.864 135.303C263.049 134.949 263.308 134.658 263.639 134.427C263.97 134.192 264.366 134.006 264.826 133.872C265.259 133.754 265.741 133.653 266.275 133.568C266.814 133.479 267.358 133.397 267.908 133.324C268.459 133.251 268.972 133.181 269.449 133.114L268.911 133.425C268.927 132.617 268.765 132.019 268.422 131.632C268.085 131.244 267.501 131.051 266.671 131.051C266.12 131.051 265.638 131.177 265.222 131.429C264.812 131.676 264.523 132.081 264.355 132.642L262.932 132.213C263.151 131.415 263.574 130.789 264.203 130.335C264.832 129.88 265.66 129.653 266.687 129.653C267.513 129.653 268.22 129.801 268.809 130.099C269.405 130.391 269.831 130.834 270.089 131.429C270.219 131.71 270.3 132.016 270.334 132.347C270.367 132.673 270.384 133.015 270.384 133.375V139H269.054V136.819L269.365 137.021C269.023 137.756 268.543 138.312 267.925 138.688C267.313 139.065 266.567 139.253 265.685 139.253ZM265.913 137.998C266.452 137.998 266.918 137.902 267.311 137.712C267.709 137.515 268.029 137.26 268.271 136.945C268.512 136.625 268.669 136.277 268.742 135.901C268.826 135.62 268.871 135.309 268.877 134.966C268.888 134.618 268.894 134.352 268.894 134.166L269.416 134.394C268.927 134.461 268.447 134.526 267.976 134.587C267.504 134.649 267.058 134.716 266.637 134.789C266.216 134.857 265.837 134.938 265.5 135.034C265.253 135.112 265.02 135.213 264.801 135.337C264.588 135.46 264.414 135.62 264.279 135.817C264.15 136.008 264.085 136.246 264.085 136.533C264.085 136.78 264.147 137.015 264.271 137.24C264.4 137.465 264.596 137.647 264.86 137.787C265.129 137.928 265.48 137.998 265.913 137.998ZM278.047 139V135.724C277.744 135.876 277.376 136.005 276.944 136.112C276.518 136.218 276.06 136.272 275.572 136.272C274.645 136.272 273.899 136.064 273.332 135.648C272.765 135.233 272.394 134.635 272.22 133.855C272.169 133.619 272.133 133.375 272.111 133.122C272.094 132.869 272.082 132.639 272.077 132.432C272.071 132.224 272.068 132.072 272.068 131.977V129.905H273.584V131.977C273.584 132.14 273.59 132.342 273.601 132.583C273.612 132.819 273.64 133.049 273.685 133.274C273.798 133.829 274.031 134.248 274.384 134.528C274.744 134.809 275.249 134.949 275.9 134.949C276.338 134.949 276.742 134.893 277.113 134.781C277.483 134.669 277.795 134.52 278.047 134.335V129.905H279.555V139H278.047ZM283.179 143.042L284.939 138.259L284.964 139.674L280.989 129.905H282.564L285.68 137.762H285.141L288.063 129.905H289.587L284.636 143.042H283.179Z" fill="#F96868"/>
<rect x="116.5" y="171.5" width="347" height="48" rx="24" stroke="#9C9C9C"/>
<path d="M235.667 201.253C234.78 201.253 233.98 201.098 233.267 200.789C232.56 200.481 231.976 200.04 231.516 199.467C231.061 198.889 230.772 198.204 230.648 197.413L232.754 197.093C232.933 197.811 233.301 198.367 233.857 198.76C234.418 199.153 235.064 199.349 235.794 199.349C236.226 199.349 236.633 199.282 237.015 199.147C237.396 199.013 237.705 198.816 237.941 198.558C238.182 198.3 238.303 197.982 238.303 197.606C238.303 197.438 238.275 197.284 238.219 197.143C238.163 196.997 238.079 196.868 237.966 196.756C237.86 196.644 237.719 196.542 237.545 196.453C237.377 196.357 237.18 196.276 236.956 196.208L233.823 195.282C233.554 195.204 233.262 195.1 232.947 194.971C232.639 194.836 232.344 194.653 232.063 194.423C231.788 194.187 231.561 193.89 231.381 193.531C231.207 193.166 231.12 192.716 231.12 192.183C231.12 191.403 231.316 190.749 231.709 190.221C232.108 189.688 232.641 189.289 233.309 189.025C233.983 188.761 234.73 188.632 235.549 188.638C236.38 188.644 237.121 188.787 237.773 189.067C238.424 189.342 238.968 189.744 239.406 190.272C239.844 190.799 240.153 191.436 240.333 192.183L238.152 192.562C238.062 192.135 237.888 191.773 237.629 191.476C237.377 191.173 237.065 190.942 236.695 190.785C236.33 190.628 235.94 190.544 235.524 190.533C235.12 190.527 234.744 190.589 234.396 190.718C234.053 190.841 233.775 191.021 233.562 191.257C233.354 191.493 233.251 191.768 233.251 192.082C233.251 192.38 233.34 192.624 233.52 192.815C233.7 193 233.921 193.149 234.185 193.261C234.455 193.368 234.727 193.458 235.002 193.531L237.175 194.137C237.472 194.215 237.806 194.322 238.177 194.457C238.547 194.592 238.904 194.78 239.246 195.021C239.589 195.262 239.869 195.58 240.088 195.973C240.313 196.366 240.425 196.865 240.425 197.472C240.425 198.1 240.293 198.653 240.029 199.131C239.771 199.602 239.42 199.995 238.977 200.309C238.533 200.624 238.025 200.86 237.453 201.017C236.886 201.174 236.291 201.253 235.667 201.253ZM242.416 201V188.621H244.446V201H242.416ZM250.985 201.253C250.076 201.253 249.281 201.048 248.602 200.638C247.923 200.228 247.395 199.664 247.019 198.945C246.648 198.221 246.463 197.39 246.463 196.453C246.463 195.498 246.654 194.662 247.036 193.943C247.418 193.225 247.948 192.663 248.627 192.259C249.307 191.855 250.093 191.653 250.985 191.653C251.9 191.653 252.698 191.858 253.377 192.267C254.056 192.677 254.584 193.244 254.96 193.968C255.336 194.687 255.524 195.515 255.524 196.453C255.524 197.396 255.333 198.229 254.952 198.954C254.575 199.672 254.048 200.236 253.368 200.646C252.689 201.051 251.895 201.253 250.985 201.253ZM250.985 199.349C251.794 199.349 252.394 199.08 252.787 198.541C253.18 198.002 253.377 197.306 253.377 196.453C253.377 195.571 253.178 194.869 252.779 194.347C252.38 193.82 251.782 193.556 250.985 193.556C250.441 193.556 249.992 193.679 249.638 193.926C249.29 194.168 249.032 194.507 248.863 194.945C248.695 195.378 248.611 195.88 248.611 196.453C248.611 197.334 248.81 198.039 249.208 198.566C249.613 199.088 250.205 199.349 250.985 199.349ZM259.51 201L256.209 191.905H258.238L260.529 198.499L262.811 191.905H264.849L261.548 201H259.51ZM270.166 201.253C269.245 201.253 268.437 201.053 267.74 200.655C267.044 200.256 266.5 199.703 266.107 198.996C265.719 198.288 265.526 197.474 265.526 196.554C265.526 195.56 265.717 194.698 266.098 193.968C266.48 193.233 267.011 192.663 267.69 192.259C268.369 191.855 269.155 191.653 270.048 191.653C270.991 191.653 271.791 191.874 272.448 192.318C273.11 192.756 273.601 193.376 273.921 194.179C274.241 194.982 274.362 195.928 274.284 197.017H272.271V196.276C272.265 195.288 272.091 194.566 271.749 194.112C271.406 193.657 270.867 193.429 270.132 193.429C269.301 193.429 268.684 193.688 268.279 194.204C267.875 194.715 267.673 195.465 267.673 196.453C267.673 197.373 267.875 198.086 268.279 198.592C268.684 199.097 269.273 199.349 270.048 199.349C270.547 199.349 270.977 199.24 271.336 199.021C271.701 198.796 271.982 198.474 272.178 198.053L274.183 198.659C273.834 199.479 273.295 200.116 272.566 200.571C271.841 201.025 271.041 201.253 270.166 201.253ZM267.033 197.017V195.484H273.29V197.017H267.033ZM276.146 201L276.163 188.874H278.217V196.284L281.544 191.905H284.078L280.55 196.453L284.381 201H281.695L278.217 196.621V201H276.146ZM285.393 190.524V188.663H287.423V190.524H285.393ZM285.393 201V191.905H287.423V201H285.393ZM296.236 201V196.621C296.236 196.335 296.216 196.018 296.177 195.669C296.138 195.321 296.045 194.987 295.899 194.667C295.759 194.342 295.545 194.075 295.259 193.867C294.978 193.66 294.597 193.556 294.114 193.556C293.856 193.556 293.6 193.598 293.348 193.682C293.095 193.766 292.865 193.912 292.657 194.12C292.455 194.322 292.292 194.603 292.169 194.962C292.045 195.316 291.983 195.771 291.983 196.326L290.779 195.813C290.779 195.038 290.928 194.336 291.225 193.707C291.529 193.079 291.972 192.579 292.556 192.208C293.14 191.832 293.858 191.644 294.712 191.644C295.385 191.644 295.941 191.756 296.379 191.981C296.817 192.206 297.165 192.492 297.423 192.84C297.682 193.188 297.872 193.559 297.996 193.952C298.119 194.345 298.198 194.718 298.232 195.072C298.271 195.42 298.291 195.703 298.291 195.922V201H296.236ZM289.929 201V191.905H291.739V194.726H291.983V201H289.929ZM299.646 201V200.722L304.463 193.682H300.134V191.905H307.621V192.192L302.821 199.223H307.419V201H299.646ZM313.957 201.253C313.07 201.253 312.27 201.098 311.557 200.789C310.849 200.481 310.266 200.04 309.805 199.467C309.351 198.889 309.061 198.204 308.938 197.413L311.043 197.093C311.223 197.811 311.591 198.367 312.146 198.76C312.708 199.153 313.353 199.349 314.083 199.349C314.515 199.349 314.922 199.282 315.304 199.147C315.686 199.013 315.995 198.816 316.231 198.558C316.472 198.3 316.593 197.982 316.593 197.606C316.593 197.438 316.565 197.284 316.508 197.143C316.452 196.997 316.368 196.868 316.256 196.756C316.149 196.644 316.009 196.542 315.835 196.453C315.666 196.357 315.47 196.276 315.245 196.208L312.113 195.282C311.843 195.204 311.551 195.1 311.237 194.971C310.928 194.836 310.633 194.653 310.353 194.423C310.078 194.187 309.85 193.89 309.671 193.531C309.496 193.166 309.409 192.716 309.409 192.183C309.409 191.403 309.606 190.749 309.999 190.221C310.398 189.688 310.931 189.289 311.599 189.025C312.273 188.761 313.019 188.632 313.839 188.638C314.67 188.644 315.411 188.787 316.062 189.067C316.713 189.342 317.258 189.744 317.696 190.272C318.134 190.799 318.442 191.436 318.622 192.183L316.441 192.562C316.351 192.135 316.177 191.773 315.919 191.476C315.666 191.173 315.355 190.942 314.984 190.785C314.619 190.628 314.229 190.544 313.814 190.533C313.409 190.527 313.033 190.589 312.685 190.718C312.343 190.841 312.065 191.021 311.852 191.257C311.644 191.493 311.54 191.768 311.54 192.082C311.54 192.38 311.63 192.624 311.809 192.815C311.989 193 312.211 193.149 312.475 193.261C312.744 193.368 313.016 193.458 313.292 193.531L315.464 194.137C315.762 194.215 316.096 194.322 316.466 194.457C316.837 194.592 317.193 194.78 317.536 195.021C317.878 195.262 318.159 195.58 318.378 195.973C318.602 196.366 318.715 196.865 318.715 197.472C318.715 198.1 318.583 198.653 318.319 199.131C318.061 199.602 317.71 199.995 317.266 200.309C316.823 200.624 316.315 200.86 315.742 201.017C315.175 201.174 314.58 201.253 313.957 201.253ZM326.828 201V196.621C326.828 196.335 326.808 196.018 326.769 195.669C326.73 195.321 326.637 194.987 326.491 194.667C326.351 194.342 326.138 194.075 325.851 193.867C325.57 193.66 325.189 193.556 324.706 193.556C324.448 193.556 324.192 193.598 323.94 193.682C323.687 193.766 323.457 193.912 323.249 194.12C323.047 194.322 322.884 194.603 322.761 194.962C322.637 195.316 322.575 195.771 322.575 196.326L321.371 195.813C321.371 195.038 321.52 194.336 321.818 193.707C322.121 193.079 322.564 192.579 323.148 192.208C323.732 191.832 324.45 191.644 325.304 191.644C325.978 191.644 326.533 191.756 326.971 191.981C327.409 192.206 327.757 192.492 328.015 192.84C328.274 193.188 328.465 193.559 328.588 193.952C328.712 194.345 328.79 194.718 328.824 195.072C328.863 195.42 328.883 195.703 328.883 195.922V201H326.828ZM320.521 201V188.874H322.331V195.257H322.575V201H320.521ZM335.097 201.253C334.188 201.253 333.393 201.048 332.714 200.638C332.035 200.228 331.507 199.664 331.131 198.945C330.76 198.221 330.575 197.39 330.575 196.453C330.575 195.498 330.766 194.662 331.148 193.943C331.529 193.225 332.06 192.663 332.739 192.259C333.419 191.855 334.204 191.653 335.097 191.653C336.012 191.653 336.809 191.858 337.489 192.267C338.168 192.677 338.696 193.244 339.072 193.968C339.448 194.687 339.636 195.515 339.636 196.453C339.636 197.396 339.445 198.229 339.063 198.954C338.687 199.672 338.16 200.236 337.48 200.646C336.801 201.051 336.007 201.253 335.097 201.253ZM335.097 199.349C335.906 199.349 336.506 199.08 336.899 198.541C337.292 198.002 337.489 197.306 337.489 196.453C337.489 195.571 337.289 194.869 336.891 194.347C336.492 193.82 335.894 193.556 335.097 193.556C334.553 193.556 334.103 193.679 333.75 193.926C333.402 194.168 333.143 194.507 332.975 194.945C332.807 195.378 332.722 195.88 332.722 196.453C332.722 197.334 332.922 198.039 333.32 198.566C333.724 199.088 334.317 199.349 335.097 199.349ZM345.862 201.253C344.975 201.253 344.231 201.042 343.63 200.621C343.03 200.2 342.578 199.627 342.275 198.903C341.971 198.173 341.82 197.356 341.82 196.453C341.82 195.538 341.971 194.718 342.275 193.994C342.578 193.269 343.021 192.7 343.605 192.284C344.195 191.863 344.922 191.653 345.786 191.653C346.645 191.653 347.389 191.863 348.018 192.284C348.652 192.7 349.143 193.269 349.491 193.994C349.84 194.712 350.014 195.532 350.014 196.453C350.014 197.362 349.842 198.179 349.5 198.903C349.157 199.627 348.675 200.2 348.051 200.621C347.428 201.042 346.698 201.253 345.862 201.253ZM341.475 205.042V191.905H343.268V198.288H343.521V205.042H341.475ZM345.55 199.434C346.078 199.434 346.513 199.302 346.856 199.038C347.198 198.774 347.451 198.418 347.614 197.968C347.782 197.514 347.866 197.008 347.866 196.453C347.866 195.902 347.782 195.403 347.614 194.954C347.445 194.499 347.184 194.14 346.83 193.876C346.477 193.606 346.028 193.472 345.483 193.472C344.967 193.472 344.545 193.598 344.22 193.851C343.894 194.098 343.653 194.446 343.496 194.895C343.344 195.338 343.268 195.858 343.268 196.453C343.268 197.042 343.344 197.561 343.496 198.011C343.653 198.46 343.897 198.811 344.228 199.063C344.565 199.31 345.006 199.434 345.55 199.434Z" fill="#232027"/>
<circle cx="442.5" cy="37.5" r="19" stroke="#9C9C9C"/>
<defs>
<filter id="filter0_i_322_321" x="0" y="0" width="481" height="244" filterUnits="userSpaceOnUse" color-interpolation-filters="sRGB">
<feFlood flood-opacity="0" result="BackgroundImageFix"/>
<feBlend mode="normal" in="SourceGraphic" in2="BackgroundImageFix" result="shape"/>
<feColorMatrix in="SourceAlpha" type="matrix" values="0 0 0 0 0 0 0 0 0 0 0 0 0 0 0 0 0 0 127 0" result="hardAlpha"/>
<feOffset dy="4"/>
<feGaussianBlur stdDeviation="4.7"/>
<feComposite in2="hardAlpha" operator="arithmetic" k2="-1" k3="1"/>
<feColorMatrix type="matrix" values="0 0 0 0 0 0 0 0 0 0 0 0 0 0 0 0 0 0 0.29 0"/>
<feBlend mode="normal" in2="shape" result="effect1_innerShadow_322_321"/>
</filter>
<linearGradient id="paint0_linear_322_321" x1="290.5" y1="0" x2="290.5" y2="240" gradientUnits="userSpaceOnUse">
<stop stop-color="white"/>
<stop offset="1" stop-color="#E3E4E6"/>
</linearGradient>
</defs>
</svg>
