<svg width="512" height="512" viewBox="0 0 512 512" fill="none" xmlns="http://www.w3.org/2000/svg">
<g clip-path="url(#clip0_252_102)">
<rect width="512" height="512" rx="75" fill="#1877F2"/>
<g clip-path="url(#clip1_252_102)">
<path d="M476 218.5C476 97.2734 377.727 -1 256.5 -1C135.273 -1 37 97.2734 37 218.5C37 328.059 117.268 418.867 222.203 435.333V281.949H166.471V218.5H222.203V170.141C222.203 115.129 254.973 84.7422 305.112 84.7422C329.127 84.7422 354.246 89.0293 354.246 89.0293V143.047H326.568C299.3 143.047 290.797 159.967 290.797 177.325V218.5H351.674L341.942 281.949H290.797V435.333C395.732 418.867 476 328.059 476 218.5Z" fill="#1877F2"/>
<path d="M341.942 281.949L351.674 218.5H290.797V177.325C290.797 159.967 299.3 143.047 326.568 143.047H354.246V89.0293C354.246 89.0293 329.127 84.7422 305.112 84.7422C254.973 84.7422 222.203 115.129 222.203 170.141V218.5H166.471V281.949H222.203V435.333C233.378 437.087 244.832 438 256.5 438C268.168 438 279.622 437.087 290.797 435.333V281.949H341.942Z" fill="white"/>
</g>
</g>
<defs>
<clipPath id="clip0_252_102">
<rect width="512" height="512" rx="75" fill="white"/>
</clipPath>
<clipPath id="clip1_252_102">
<rect width="439" height="439" fill="white" transform="translate(37 -1)"/>
</clipPath>
</defs>
</svg>
