<svg width="169" height="169" viewBox="0 0 169 169" fill="none" xmlns="http://www.w3.org/2000/svg">
<rect x="37" y="32" width="101" height="112" fill="white"/>
<path d="M97.0625 78.2188H74.0312V52.675C74.0312 51.8629 74.0321 51.3795 74.0421 51.0151C74.048 50.7838 74.0572 50.6833 74.0589 50.6591C74.2054 49.7741 74.8989 49.0802 75.7841 48.9342C75.8084 48.9318 75.9089 48.9231 76.1401 48.9168C76.5044 48.9068 76.9876 48.9062 77.8 48.9062H97.0625C105.157 48.9062 111.719 55.4681 111.719 63.5625C111.719 71.6569 105.157 78.2188 97.0625 78.2188Z" fill="#F56565"/>
<path fill-rule="evenodd" clip-rule="evenodd" d="M168.334 84.584C168.334 130.837 130.837 168.334 84.584 168.334C38.3301 168.334 0.833984 130.837 0.833984 84.584C0.833984 38.3301 38.3301 0.833984 84.584 0.833984C130.837 0.833984 168.334 38.3301 168.334 84.584ZM53.1777 101.334C53.1777 97.865 55.99 95.0527 59.459 95.0527H61.5527V90.8652H59.459C55.99 90.8652 53.1777 88.0529 53.1777 84.584C53.1777 81.1151 55.99 78.3027 59.459 78.3027H61.5527L61.5525 52.4366C61.551 51.2178 61.5495 49.9509 61.7332 48.7912C62.7265 42.52 67.645 37.6015 73.9159 36.6082C75.0758 36.4245 76.343 36.426 77.5615 36.4275L97.1465 36.4277C112.179 36.4277 124.365 48.6139 124.365 63.6465C124.365 78.6788 112.179 90.8652 97.1465 90.8652H74.1152V95.0527H84.584C88.0529 95.0527 90.8652 97.865 90.8652 101.334C90.8652 104.803 88.0529 107.615 84.584 107.615H74.1152V126.459C74.1152 129.928 71.3029 132.74 67.834 132.74C64.365 132.74 61.5527 129.928 61.5527 126.459V107.615H59.459C55.99 107.615 53.1777 104.803 53.1777 101.334Z" fill="#F56565"/>
</svg>
