<svg width="512" height="512" viewBox="0 0 512 512" fill="none" xmlns="http://www.w3.org/2000/svg">
<g clip-path="url(#clip0_252_68)">
<rect width="512" height="512" rx="75" fill="white"/>
<path d="M411.5 -16.125H100.5C36.0898 -16.125 -16.125 36.0898 -16.125 100.5V411.5C-16.125 475.91 36.0898 528.125 100.5 528.125H411.5C475.91 528.125 528.125 475.91 528.125 411.5V100.5C528.125 36.0898 475.91 -16.125 411.5 -16.125Z" fill="url(#paint0_radial_252_68)"/>
<path d="M411.5 -16.125H100.5C36.0898 -16.125 -16.125 36.0898 -16.125 100.5V411.5C-16.125 475.91 36.0898 528.125 100.5 528.125H411.5C475.91 528.125 528.125 475.91 528.125 411.5V100.5C528.125 36.0898 475.91 -16.125 411.5 -16.125Z" fill="url(#paint1_radial_252_68)"/>
<path d="M411.5 -16.125H100.5C36.0898 -16.125 -16.125 36.0898 -16.125 100.5V411.5C-16.125 475.91 36.0898 528.125 100.5 528.125H411.5C475.91 528.125 528.125 475.91 528.125 411.5V100.5C528.125 36.0898 475.91 -16.125 411.5 -16.125Z" fill="url(#paint2_radial_252_68)"/>
<path d="M392.062 149.094C392.062 165.196 379.008 178.25 362.906 178.25C346.804 178.25 333.75 165.196 333.75 149.094C333.75 132.991 346.804 119.938 362.906 119.938C379.008 119.938 392.062 132.991 392.062 149.094Z" fill="white"/>
<path fill-rule="evenodd" clip-rule="evenodd" d="M256 353.188C309.675 353.188 353.188 309.675 353.188 256C353.188 202.325 309.675 158.812 256 158.812C202.325 158.812 158.812 202.325 158.812 256C158.812 309.675 202.325 353.188 256 353.188ZM256 314.312C288.206 314.312 314.312 288.206 314.312 256C314.312 223.794 288.206 197.688 256 197.688C223.794 197.688 197.688 223.794 197.688 256C197.688 288.206 223.794 314.312 256 314.312Z" fill="white"/>
<path fill-rule="evenodd" clip-rule="evenodd" d="M61.625 248.225C61.625 182.909 61.625 150.25 74.3364 125.303C85.5176 103.359 103.359 85.5176 125.303 74.3364C150.25 61.625 182.909 61.625 248.225 61.625H263.775C329.091 61.625 361.75 61.625 386.696 74.3364C408.641 85.5176 426.482 103.359 437.663 125.303C450.375 150.25 450.375 182.909 450.375 248.225V263.775C450.375 329.091 450.375 361.75 437.663 386.696C426.482 408.641 408.641 426.482 386.696 437.663C361.75 450.375 329.091 450.375 263.775 450.375H248.225C182.909 450.375 150.25 450.375 125.303 437.663C103.359 426.482 85.5176 408.641 74.3364 386.696C61.625 361.75 61.625 329.091 61.625 263.775V248.225ZM248.225 100.5H263.775C297.075 100.5 319.71 100.53 337.208 101.96C354.253 103.352 362.968 105.876 369.048 108.974C383.677 116.428 395.571 128.323 403.025 142.951C406.124 149.032 408.649 157.747 410.04 174.792C411.469 192.29 411.5 214.925 411.5 248.225V263.775C411.5 297.075 411.469 319.71 410.04 337.208C408.649 354.253 406.124 362.968 403.025 369.048C395.571 383.677 383.677 395.571 369.048 403.025C362.968 406.124 354.253 408.649 337.208 410.04C319.71 411.469 297.075 411.5 263.775 411.5H248.225C214.925 411.5 192.29 411.469 174.792 410.04C157.747 408.649 149.032 406.124 142.951 403.025C128.323 395.571 116.428 383.677 108.974 369.048C105.876 362.968 103.352 354.253 101.96 337.208C100.53 319.71 100.5 297.075 100.5 263.775V248.225C100.5 214.925 100.53 192.29 101.96 174.792C103.352 157.747 105.876 149.032 108.974 142.951C116.428 128.323 128.323 116.428 142.951 108.974C149.032 105.876 157.747 103.352 174.792 101.96C192.29 100.53 214.925 100.5 248.225 100.5Z" fill="white"/>
</g>
<defs>
<radialGradient id="paint0_radial_252_68" cx="0" cy="0" r="1" gradientUnits="userSpaceOnUse" gradientTransform="translate(178.25 392.063) rotate(-55.3758) scale(496.037)">
<stop stop-color="#B13589"/>
<stop offset="0.79309" stop-color="#C62F94"/>
<stop offset="1" stop-color="#8A3AC8"/>
</radialGradient>
<radialGradient id="paint1_radial_252_68" cx="0" cy="0" r="1" gradientUnits="userSpaceOnUse" gradientTransform="translate(158.813 547.563) rotate(-65.1363) scale(439.175)">
<stop stop-color="#E0E8B7"/>
<stop offset="0.444662" stop-color="#FB8A2E"/>
<stop offset="0.71474" stop-color="#E2425C"/>
<stop offset="1" stop-color="#E2425C" stop-opacity="0"/>
</radialGradient>
<radialGradient id="paint2_radial_252_68" cx="0" cy="0" r="1" gradientUnits="userSpaceOnUse" gradientTransform="translate(-45.2812 3.31251) rotate(-8.1301) scale(755.942 161.688)">
<stop offset="0.156701" stop-color="#406ADC"/>
<stop offset="0.467799" stop-color="#6A45BE"/>
<stop offset="1" stop-color="#6A45BE" stop-opacity="0"/>
</radialGradient>
<clipPath id="clip0_252_68">
<rect width="512" height="512" rx="75" fill="white"/>
</clipPath>
</defs>
</svg>
