<svg width="512" height="512" viewBox="0 0 512 512" fill="none" xmlns="http://www.w3.org/2000/svg">
<rect width="512" height="512" rx="75" fill="#1877F2"/>
<rect width="501" height="501" transform="translate(6 11)" fill="#1877F2"/>
<path d="M408.593 135.123C444.273 101.47 402.996 57.82 324.933 84.8584C320.338 86.4553 316.064 88.1383 312.033 89.884C319.681 75.1985 330.977 59.1665 347.886 43.8155C347.886 43.8155 316.307 55.1585 301.715 52.2855C283.617 48.7237 277.941 26.6562 277.941 26.6562C277.941 26.6562 259.115 67.66 249.525 99.8414C235.795 72.1925 220.585 45.2872 220.585 45.2872C220.585 45.2872 212.467 64.106 197.601 71.2609C185.616 77.0537 136.315 82.0481 136.315 82.0481C152.754 90.4555 166.868 100.843 178.845 111.591C166.25 108.257 151.869 105.752 135.422 104.562C70.1045 99.8257 44.4517 123.13 53.1879 146.153L21.6562 147.162L38.8155 211.502L49.4774 214.531C74.7779 300.241 68.6563 395.345 68.578 396.418L68.1475 402.618L74.0499 404.355C168.559 432.192 254.426 496.344 254.426 496.344C254.426 496.344 365.757 422.665 426.973 404.34L432.328 402.735L432.437 397.099C432.468 395.768 435.146 277.062 465.871 199.689C468.032 199.384 470.067 199.141 471.813 199.032L478.286 198.64L478.936 192.127C478.96 191.869 481.606 154.583 491.352 139.373L408.593 135.123ZM41.9076 165.214L92.6573 178.984V210.789L50.5342 198.828L41.9076 165.214ZM120.768 404.066C108.707 399.384 96.4852 395.128 84.1247 391.306C85.1267 369.215 86.5749 293.071 66.6445 219.4L103.515 229.874C110.654 261.367 122.506 326.246 120.768 404.066ZM182.556 128.758C245.916 133.346 257.056 166.052 257.056 166.052C257.056 166.052 218.455 180.166 194.603 180.166C116.776 180.166 105.535 123.177 182.556 128.758ZM260.743 170.866L324.354 178.076L245.055 197.262L199.762 187.141L260.743 170.866ZM184.583 199.525L237.501 211.345V251.926L182.869 236.685L184.583 199.525ZM247.529 473.016C235.975 464.436 216.717 451.199 191.151 437.007C193.178 399.612 193.421 299.693 193.429 255.41L247.529 270.776V473.016ZM318.342 438.917C299.464 450.083 280.929 461.82 262.762 474.112V263.77C283.995 255.978 305.294 248.366 326.656 240.936C322.061 285.227 319.188 400.817 318.342 438.917ZM344.018 221.044C344.018 221.044 267.788 245.507 252.75 251.057V211.243L345.208 188.871L344.018 221.044ZM334.625 162.639C298.936 171.782 260.978 165.331 260.978 165.331C260.978 165.331 253.862 130.379 311.477 110.425C381.507 86.1657 409.195 143.53 334.625 162.639ZM387.159 149.339L432.531 151.891L405.281 158.49L372.74 155.28C378.008 153.448 382.791 151.444 387.159 149.339ZM417.344 391.228C406.017 394.93 394.071 399.776 382.032 405.264C382.118 368.597 384.357 287.325 401.344 216.253C418.808 210.868 434.997 206.273 448.211 203.165C422.949 273.508 418.166 367.242 417.344 391.228ZM464.611 184.323C464.611 184.323 439.553 191.665 423.552 196.08L427.576 168.932L471.139 158.396C467.57 168.22 464.611 184.323 464.611 184.323Z" fill="#145AB4"/>
<path d="M98.4 262.6C97.44 262.6 96 262.6 94.08 262.6C92.32 262.44 90.64 262.12 89.04 261.64C86.48 260.84 85.2 260.04 85.2 259.24C85.2 258.6 85.68 258.12 86.64 257.8C87.6 257.48 88.64 257.24 89.76 257.08C95.04 256.28 101.44 255.08 108.96 253.48C116.48 251.88 124.24 249.8 132.24 247.24C140.24 244.68 147.68 241.56 154.56 237.88C161.44 234.2 167.04 229.96 171.36 225.16C175.68 220.2 177.84 214.68 177.84 208.6C177.84 203.64 176.4 199.48 173.52 196.12C170.64 192.76 166.88 190.04 162.24 187.96C157.76 185.72 152.88 184.04 147.6 182.92C142.32 181.8 137.28 181.08 132.48 180.76C127.68 180.28 123.6 180.04 120.24 180.04C111.92 180.04 102.72 181 92.64 182.92C82.72 184.84 72.96 187.32 63.36 190.36C53.92 193.4 45.52 196.76 38.16 200.44C38 200.6 37.68 200.76 37.2 200.92C36.72 201.08 36.32 201.16 36 201.16C35.2 201.16 34.8 200.52 34.8 199.24C34.8 196.04 36.56 193.24 40.08 190.84C43.6 188.28 48.16 186.04 53.76 184.12C59.36 182.2 65.44 180.6 72 179.32C78.72 177.88 85.2 176.76 91.44 175.96C97.84 175.16 103.44 174.6 108.24 174.28C113.04 173.8 116.48 173.56 118.56 173.56C122.88 173.56 127.92 173.88 133.68 174.52C139.44 175 145.36 175.96 151.44 177.4C157.52 178.84 163.12 180.92 168.24 183.64C173.52 186.2 177.84 189.56 181.2 193.72C184.72 197.72 186.72 202.76 187.2 208.84C187.84 216.68 186.16 223.56 182.16 229.48C178.16 235.4 172.72 240.52 165.84 244.84C158.96 249 151.44 252.44 143.28 255.16C135.12 257.72 127.04 259.64 119.04 260.92C111.2 262.04 104.32 262.6 98.4 262.6ZM54 322.36C52.72 322.36 51.6 321.56 50.64 319.96C49.68 318.36 48.96 316.6 48.48 314.68C48 312.76 47.68 311.32 47.52 310.36C47.04 304.92 47.84 298.52 49.92 291.16C52.16 283.8 55.2 275.96 59.04 267.64C62.88 259.16 67.28 250.68 72.24 242.2C77.2 233.72 82.24 225.64 87.36 217.96C92.64 210.12 97.6 203.08 102.24 196.84C103.36 195.4 104.56 193.56 105.84 191.32C107.12 189.08 108.56 187.08 110.16 185.32C111.92 183.56 113.76 182.68 115.68 182.68C116.8 182.68 117.76 183 118.56 183.64C120 184.44 121.28 185.48 122.4 186.76C123.52 188.04 124.16 189.4 124.32 190.84C124.32 191.64 122.56 194.2 119.04 198.52C115.68 202.68 111.2 208.12 105.6 214.84C100.16 221.56 94.4 229.16 88.32 237.64C82.4 245.96 76.8 254.76 71.52 264.04C66.24 273.32 62.08 282.68 59.04 292.12C56 301.4 54.8 310.36 55.44 319V319.72C55.44 320.36 55.36 320.92 55.2 321.4C55.04 322.04 54.64 322.36 54 322.36ZM185.265 321.88C182.705 321.88 179.985 320.6 177.105 318.04C174.385 315.32 173.025 312.68 173.025 310.12C173.025 306.92 174.145 303.32 176.385 299.32C178.625 295.16 181.265 291.16 184.305 287.32C187.345 283.48 189.985 280.2 192.225 277.48C194.465 274.6 195.585 272.68 195.585 271.72V271.24C194.145 269.96 192.785 268.76 191.505 267.64C190.225 266.36 188.465 265.72 186.225 265.72C184.625 265.72 182.545 266.68 179.985 268.6C177.585 270.52 175.105 272.76 172.545 275.32C169.985 277.88 167.665 280.28 165.585 282.52C163.505 284.76 161.985 286.28 161.025 287.08C160.385 287.72 159.745 288.12 159.105 288.28C158.625 288.44 158.225 288.52 157.905 288.52C157.265 288.52 156.945 288.2 156.945 287.56C156.945 286.92 157.265 286.28 157.905 285.64C160.465 282.28 163.425 278.84 166.785 275.32C170.145 271.8 173.185 268.6 175.905 265.72C178.625 262.68 180.225 260.52 180.705 259.24C181.985 255.56 183.265 252.28 184.545 249.4C185.985 246.52 188.225 243.8 191.265 241.24C192.545 239.96 194.065 238.92 195.825 238.12C197.585 237.32 199.345 236.92 201.105 236.92C202.705 236.92 203.985 237.4 204.945 238.36C206.065 239.16 206.625 240.44 206.625 242.2C206.625 244.12 205.745 246.04 203.985 247.96C202.385 249.88 200.465 251.72 198.225 253.48C195.985 255.08 193.985 256.52 192.225 257.8C190.625 259.08 189.905 260.12 190.065 260.92C191.025 261.56 192.865 262.36 195.585 263.32C198.465 264.28 200.465 264.76 201.585 264.76C202.865 264.76 204.065 264.52 205.185 264.04C206.305 263.56 207.425 263.32 208.545 263.32C210.145 263.32 211.745 263.8 213.345 264.76C214.945 265.72 215.745 267.16 215.745 269.08C215.745 270.68 215.105 272.2 213.825 273.64C212.705 274.92 211.505 276.04 210.225 277C208.305 278.44 205.745 280.6 202.545 283.48C199.345 286.36 196.065 289.56 192.705 293.08C189.505 296.6 186.705 300.12 184.305 303.64C182.065 307 180.945 309.96 180.945 312.52C180.945 313.16 181.105 313.8 181.425 314.44C181.585 314.6 181.905 314.68 182.385 314.68C185.585 314.68 189.185 313.24 193.185 310.36C197.185 307.48 201.185 303.96 205.185 299.8C209.345 295.64 213.185 291.56 216.705 287.56C220.385 283.4 223.505 280.2 226.065 277.96C226.385 277.64 226.785 277.32 227.265 277C227.745 276.68 228.225 276.52 228.705 276.52C229.505 276.52 229.905 277.08 229.905 278.2C229.905 278.84 228.785 280.44 226.545 283C224.465 285.56 221.745 288.6 218.385 292.12C215.025 295.64 211.505 299.24 207.825 302.92C204.305 306.6 201.025 309.88 197.985 312.76C194.945 315.48 192.785 317.4 191.505 318.52C189.745 319.96 188.465 320.84 187.665 321.16C186.865 321.64 186.065 321.88 185.265 321.88ZM230.831 321.64C226.191 321.64 222.751 319.8 220.511 316.12C218.271 312.28 217.151 308.36 217.151 304.36C217.151 298.92 218.591 293.08 221.471 286.84C224.351 280.44 227.791 274.36 231.791 268.6C235.951 262.84 239.631 258.12 242.831 254.44C243.631 253.48 244.671 253 245.951 253C247.391 253 248.831 253.56 250.271 254.68C253.631 252.28 257.471 250.12 261.791 248.2C266.271 246.28 270.591 245.32 274.751 245.32C281.951 245.32 285.551 249 285.551 256.36C285.551 263.4 283.791 269.88 280.271 275.8C276.911 281.72 273.151 287.48 268.991 293.08C267.871 294.52 266.751 295.88 265.631 297.16C264.671 298.44 263.551 299.72 262.271 301C269.311 299.08 275.471 295.88 280.751 291.4C286.031 286.92 291.231 282.28 296.351 277.48C296.991 276.84 297.551 276.36 298.031 276.04C298.671 275.56 299.471 275.32 300.431 275.32C301.231 275.32 301.631 275.88 301.631 277C301.631 277.16 301.391 277.56 300.911 278.2C300.431 278.84 300.111 279.32 299.951 279.64C294.671 286.04 288.111 292.04 280.271 297.64C272.591 303.08 264.511 306.44 256.031 307.72C252.991 310.76 249.151 313.88 244.511 317.08C239.871 320.12 235.311 321.64 230.831 321.64ZM249.551 302.68C250.191 302.68 250.751 302.68 251.231 302.68C251.871 302.68 252.511 302.6 253.151 302.44C256.351 298.6 259.631 294.04 262.991 288.76C266.511 283.48 269.471 278.04 271.871 272.44C274.271 266.68 275.471 261.48 275.471 256.84C275.471 253.96 274.111 252.52 271.391 252.52C268.671 252.52 265.551 253.32 262.031 254.92C258.511 256.52 255.551 258.2 253.151 259.96V260.68C253.151 262.28 251.871 264.6 249.311 267.64C246.911 270.52 244.271 273.48 241.391 276.52C238.671 279.56 236.671 282.12 235.391 284.2C234.911 289.48 235.951 293.88 238.511 297.4C241.071 300.92 244.751 302.68 249.551 302.68ZM231.071 317.56C234.111 317.56 237.071 316.44 239.951 314.2C242.991 311.96 245.551 309.88 247.631 307.96C243.791 307.64 240.271 306.36 237.071 304.12C234.031 301.72 231.231 299.08 228.671 296.2C228.191 297.16 227.551 299 226.751 301.72C225.951 304.44 225.551 307.16 225.551 309.88C225.551 311.96 225.951 313.8 226.751 315.4C227.551 316.84 228.991 317.56 231.071 317.56ZM383.704 321.88C381.944 321.88 379.864 321.16 377.464 319.72C375.064 318.44 372.904 316.84 370.984 314.92C369.224 312.84 368.344 310.76 368.344 308.68C368.344 305.96 369.464 302.52 371.704 298.36C373.944 294.2 376.664 289.88 379.864 285.4C383.224 280.92 386.424 276.76 389.464 272.92C392.664 268.92 395.224 265.72 397.144 263.32C399.384 260.44 400.424 258.84 400.264 258.52C400.104 258.04 400.024 257.56 400.024 257.08C395.544 259.32 390.504 262.68 384.904 267.16C379.304 271.48 373.944 276.04 368.824 280.84C363.704 285.64 359.544 289.96 356.344 293.8C354.104 296.36 351.944 299.08 349.864 301.96C347.944 304.68 346.024 307.48 344.104 310.36C342.984 311.96 341.544 313.64 339.784 315.4C338.184 317.16 336.344 318.04 334.264 318.04C333.144 318.04 332.104 317.64 331.144 316.84C330.344 316.04 329.944 315.08 329.944 313.96C329.944 311.72 331.384 308.36 334.264 303.88C337.304 299.24 340.424 294.2 343.624 288.76C345.704 285.24 347.944 281.64 350.344 277.96C352.904 274.12 355.064 270.68 356.824 267.64C358.744 264.6 359.704 262.52 359.704 261.4H359.464C358.984 261.4 357.864 261.8 356.104 262.6C354.504 263.4 353.624 263.88 353.464 264.04C345.624 269.32 338.104 275.88 330.904 283.72C323.864 291.56 317.384 299 311.464 306.04C310.344 307.48 309.144 309 307.864 310.6C306.584 312.04 305.304 313.48 304.024 314.92C303.384 315.56 302.504 316.12 301.384 316.6C300.264 316.92 299.224 317.08 298.264 317.08C297.304 317.08 295.944 316.76 294.184 316.12C292.584 315.48 291.784 314.36 291.784 312.76C291.784 310.84 292.664 308.04 294.424 304.36C296.184 300.68 298.344 296.52 300.904 291.88C303.624 287.24 306.424 282.68 309.304 278.2C312.344 273.56 315.064 269.4 317.464 265.72C320.024 261.88 321.864 259.08 322.984 257.32C318.024 261.64 313.544 265.64 309.544 269.32C305.704 272.84 301.304 277.64 296.344 283.72C296.024 284.04 295.384 284.68 294.424 285.64C293.464 286.6 292.504 287.16 291.544 287.32C291.224 287.32 290.824 287.08 290.344 286.6C290.024 286.12 289.944 285.72 290.104 285.4C290.264 284.6 291.384 283 293.464 280.6C295.544 278.04 298.104 275.16 301.144 271.96C304.184 268.76 307.224 265.56 310.264 262.36C313.304 259.16 315.944 256.36 318.184 253.96C320.584 251.56 322.024 250.04 322.504 249.4C326.024 245.72 329.144 242.76 331.864 240.52C334.744 238.28 337.464 237.16 340.024 237.16C341.464 237.16 343.144 237.8 345.064 239.08C346.984 240.36 347.944 241.88 347.944 243.64C347.944 244.28 347.784 244.68 347.464 244.84C340.264 250.76 333.864 257.56 328.264 265.24C322.664 272.76 317.384 280.28 312.424 287.8C312.264 287.96 311.704 288.84 310.744 290.44C309.944 292.04 308.984 293.8 307.864 295.72C306.744 297.64 305.784 299.32 304.984 300.76C304.184 302.2 303.864 302.84 304.024 302.68C312.504 294.68 321.384 286.2 330.664 277.24C340.104 268.12 349.224 259.88 358.024 252.52C359.304 251.4 360.744 250.44 362.344 249.64C363.944 248.84 365.624 248.44 367.384 248.44C369.304 248.44 370.824 249.08 371.944 250.36C373.224 251.48 373.864 253 373.864 254.92C373.864 257 373.224 259.08 371.944 261.16C370.664 263.24 369.464 265.16 368.344 266.92C366.744 269.8 364.984 272.68 363.064 275.56C361.304 278.44 360.024 280.76 359.224 282.52C366.584 275.96 373.624 269.64 380.344 263.56C387.064 257.32 393.864 251.96 400.744 247.48C402.344 246.36 404.264 245.8 406.504 245.8C407.944 245.8 409.784 246.04 412.024 246.52C414.424 247 416.504 247.72 418.264 248.68C420.184 249.64 421.144 251 421.144 252.76C421.144 253.72 420.824 254.68 420.184 255.64C419.544 256.44 418.824 257.16 418.024 257.8L406.744 267.4C404.664 269.32 402.104 272.04 399.064 275.56C396.184 278.92 393.304 282.68 390.424 286.84C387.704 290.84 385.384 295 383.464 299.32C381.704 303.64 380.824 307.64 380.824 311.32C380.824 313.56 381.384 314.68 382.504 314.68C383.144 314.68 383.864 314.52 384.664 314.2C385.464 313.72 386.344 313.24 387.304 312.76C390.664 310.84 394.264 308.04 398.104 304.36C401.944 300.68 405.704 296.76 409.384 292.6C413.224 288.44 416.584 284.76 419.464 281.56C422.344 278.36 424.504 276.36 425.944 275.56C426.264 275.24 426.664 275.16 427.144 275.32C427.784 275.48 428.104 275.8 428.104 276.28C428.104 276.92 427.784 277.64 427.144 278.44C426.504 279.24 426.024 279.88 425.704 280.36C422.984 283.56 420.424 286.68 418.024 289.72C415.784 292.6 413.224 295.64 410.344 298.84C406.984 302.68 403.224 306.76 399.064 311.08C395.064 315.24 390.824 318.6 386.344 321.16C385.704 321.64 384.824 321.88 383.704 321.88ZM427.941 321.64C423.301 321.64 419.861 319.8 417.621 316.12C415.381 312.28 414.261 308.36 414.261 304.36C414.261 298.92 415.701 293.08 418.581 286.84C421.461 280.44 424.901 274.36 428.901 268.6C433.061 262.84 436.741 258.12 439.941 254.44C440.741 253.48 441.781 253 443.061 253C444.501 253 445.941 253.56 447.381 254.68C450.741 252.28 454.581 250.12 458.901 248.2C463.381 246.28 467.701 245.32 471.861 245.32C479.061 245.32 482.661 249 482.661 256.36C482.661 263.4 480.901 269.88 477.381 275.8C474.021 281.72 470.261 287.48 466.101 293.08C464.981 294.52 463.861 295.88 462.741 297.16C461.781 298.44 460.661 299.72 459.381 301C466.421 299.08 472.581 295.88 477.861 291.4C483.141 286.92 488.341 282.28 493.461 277.48C494.101 276.84 494.661 276.36 495.141 276.04C495.781 275.56 496.581 275.32 497.541 275.32C498.341 275.32 498.741 275.88 498.741 277C498.741 277.16 498.501 277.56 498.021 278.2C497.541 278.84 497.221 279.32 497.061 279.64C491.781 286.04 485.221 292.04 477.381 297.64C469.701 303.08 461.621 306.44 453.141 307.72C450.101 310.76 446.261 313.88 441.621 317.08C436.981 320.12 432.421 321.64 427.941 321.64ZM446.661 302.68C447.301 302.68 447.861 302.68 448.341 302.68C448.981 302.68 449.621 302.6 450.261 302.44C453.461 298.6 456.741 294.04 460.101 288.76C463.621 283.48 466.581 278.04 468.981 272.44C471.381 266.68 472.581 261.48 472.581 256.84C472.581 253.96 471.221 252.52 468.501 252.52C465.781 252.52 462.661 253.32 459.141 254.92C455.621 256.52 452.661 258.2 450.261 259.96V260.68C450.261 262.28 448.981 264.6 446.421 267.64C444.021 270.52 441.381 273.48 438.501 276.52C435.781 279.56 433.781 282.12 432.501 284.2C432.021 289.48 433.061 293.88 435.621 297.4C438.181 300.92 441.861 302.68 446.661 302.68ZM428.181 317.56C431.221 317.56 434.181 316.44 437.061 314.2C440.101 311.96 442.661 309.88 444.741 307.96C440.901 307.64 437.381 306.36 434.181 304.12C431.141 301.72 428.341 299.08 425.781 296.2C425.301 297.16 424.661 299 423.861 301.72C423.061 304.44 422.661 307.16 422.661 309.88C422.661 311.96 423.061 313.8 423.861 315.4C424.661 316.84 426.101 317.56 428.181 317.56Z" fill="white"/>
</svg>
