<svg width="512" height="512" viewBox="0 0 512 512" fill="none" xmlns="http://www.w3.org/2000/svg">
<g clip-path="url(#clip0_252_118)">
<rect width="512" height="512" rx="75" fill="#1877F2"/>
<g clip-path="url(#clip1_252_118)">
<path d="M256 656C476.914 656 656 476.914 656 256C656 35.0861 476.914 -144 256 -144C35.0861 -144 -144 35.0861 -144 256C-144 476.914 35.0861 656 256 656Z" fill="#96B73D"/>
<path d="M230.03 60.0075C226.562 59.9958 223.083 59.9978 219.595 60.0136C202.805 60.0916 185.747 60.5323 168.543 61.1702L173.52 82.9815C191.436 80.9574 211.078 79.4504 230.717 78.6968C241.358 78.2885 251.933 78.073 262.191 78.1273C292.966 78.2877 320.888 80.8698 339.156 87.9425L346.968 90.9689L343.48 98.5787C317.997 154.204 312.103 207.869 316.097 260.524C318.068 198.035 344.063 142.455 378.19 71.2044C331.753 63.4939 282.052 60.1801 230.03 60.0066V60.0075ZM254.613 93.9953C246.949 94.0015 239.136 94.1566 231.323 94.4562C194.781 95.8581 158.367 100.143 134.633 105.055C161.145 154.191 182.591 203.441 196.44 251.452C198.162 251.395 199.886 251.408 201.608 251.492C205.131 251.664 208.616 252.142 212.021 252.885C197.925 207.851 181.869 166.316 161.91 124.845L157.4 115.475L167.648 113.663C193.39 109.108 219.96 107.345 245.248 107.337C246.934 107.337 248.614 107.344 250.288 107.358C266.356 107.498 281.842 108.329 296.19 109.579L305.883 110.425L303.056 119.728C286.658 173.669 283.446 231.599 292.718 286.716C292.873 286.858 293.027 287.001 293.179 287.145C296.522 285.975 299.65 284.781 302.566 283.506C295.328 224.455 298.535 163.533 325.566 100.203C310.482 96.3628 287.487 94.3554 262.22 94.04C259.684 94.0087 257.149 93.9932 254.613 93.9953ZM381.715 100.466C354.569 157.906 335.289 203.937 332.129 253.629C349.7 195.097 383.663 142.627 422.365 108.917C408.931 105.568 395.37 102.749 381.715 100.466ZM123.064 116.701C106.614 120.09 90.5439 124.393 75 130.337C82.5641 136.891 96.2384 149.083 112.829 165.287C120.465 157.434 128.253 149.675 136.376 142.62C132.073 133.912 127.636 125.271 123.064 116.701ZM247.604 123.257C235.661 123.199 223.435 123.541 211.165 124.39C209.878 136.378 202.782 147.593 194.307 158.623C207.838 190.577 219.525 223.184 230.046 257.804C246.159 262.553 262.1 268.167 275.013 274.893C270.216 237.692 270.872 199.572 277.1 162.294C265.801 150.632 259.915 137.682 259.444 123.444C255.498 123.339 251.551 123.276 247.604 123.257ZM407.215 146.901C385.529 172.574 366.421 204.728 353.4 239.702C377.307 205.721 406.706 179.216 438 160.493C427.805 155.813 417.542 151.282 407.215 146.901ZM143.497 157.38C130.7 168.935 118.055 182.805 104.886 196.018C133.2 212.833 157.317 232.746 176.99 255.301C178.212 254.841 179.445 254.426 180.686 254.048C171.481 222.421 158.865 190.057 143.497 157.38ZM348.153 266.688C333.775 284.026 320.238 293.18 301.599 300.483C303.695 308.561 300.582 317.836 293.414 324.93C289.198 329.101 283.899 333.856 276.153 336.947C277.271 337.608 278.411 338.23 279.573 338.81C290.415 344.217 309.569 342.473 327.364 334.387C345.103 326.326 360.951 312.401 366.824 298.295C369.768 290.365 367.666 286.23 362.512 280.165C358.843 275.849 353.485 271.499 348.153 266.689V266.688ZM199.012 267.201C189.616 267.115 180.073 269.825 172.187 275.753C160.972 284.185 152.326 299.221 152.248 324.762V324.938L152.24 325.113C149.679 378.895 153.643 403.708 161.495 417.171C168.426 429.054 179.954 434.742 196.817 445.204C197.62 443.096 198.456 440.503 199.241 437.232C201.238 428.909 202.89 417.479 203.937 404.835C206.032 379.55 205.726 349.187 202.223 327.339L200.372 315.782L211.785 318.406C239.508 324.779 255.367 325.532 264.574 323.909C273.784 322.284 276.904 319.07 282.306 313.724C287.383 308.702 287.289 306.894 286.214 304.067C285.138 301.24 280.822 296.58 273.499 292.122C258.852 283.206 233.964 274.939 210.701 268.774C206.885 267.765 202.958 267.237 199.012 267.201ZM364.833 328.024C356.052 336.57 345.247 343.586 333.898 348.743C315.498 357.104 295.26 360.928 278.469 355.361C272.541 357.566 269.097 360.099 267.36 362.195C264.977 365.073 264.828 367.19 265.635 370.221C266.443 373.253 268.849 376.853 271.825 379.443C274.801 382.033 278.337 383.379 279.682 383.442C320.715 385.389 338.474 373.622 360.599 359.974C367.051 355.995 369.521 347.933 368.902 339.882C368.593 335.857 367.42 332.074 366.067 329.692C365.731 329.084 365.316 328.523 364.833 328.024ZM219.104 335.994C221.495 357.958 221.535 383.584 219.667 406.136C218.573 419.342 216.883 431.352 214.59 440.908C213.593 445.067 212.496 448.754 211.171 452L339.809 446.335C338.357 440.948 336.876 435.537 335.397 430.124C330.455 431.768 325.403 433.063 320.279 434L320.318 434.64L313.026 435.094C308.535 435.632 303.86 435.929 299.01 435.963L225.474 440.528L227.66 430.358C234.628 397.933 235.271 369.384 230.973 338.152C227.002 337.509 223.045 336.79 219.103 335.994H219.104ZM247.14 340.098C250.602 368.077 250.185 394.781 245.03 423.512L261.923 422.464C259.273 418.559 257.452 414.152 256.574 409.516C255.437 403.487 256.069 396.777 260.016 391.229C260.191 390.983 260.379 390.747 260.566 390.51C255.966 386.265 252.123 380.817 250.382 374.279C248.528 367.319 249.686 358.797 255.202 352.138C257.025 349.938 259.229 347.953 261.817 346.165C259.528 344.343 257.522 342.411 255.789 340.398C253.102 340.417 250.225 340.317 247.14 340.098ZM363.474 376.71C342.906 389.198 319.796 401.135 278.933 399.197C277.599 399.131 276.274 398.951 274.971 398.658C273.89 399.142 273.313 399.758 272.882 400.364C272.038 401.551 271.539 403.693 272.085 406.596C273.179 412.403 278.684 418.766 283.809 419.361C320.1 423.579 345.174 411.716 360.398 397.915C367.413 391.555 367.473 387.488 366.44 383.062C365.923 380.852 364.783 378.708 363.474 376.71ZM357.614 419.698C355.178 421.224 352.677 422.644 350.119 423.956C351.566 429.258 353.016 434.56 354.448 439.863L371.916 436.733C367.409 432.889 363.882 428.888 361.051 424.908C359.787 423.13 358.672 421.402 357.614 419.698Z" fill="white"/>
</g>
</g>
<defs>
<clipPath id="clip0_252_118">
<rect width="512" height="512" rx="75" fill="white"/>
</clipPath>
<clipPath id="clip1_252_118">
<rect width="800" height="800" fill="white" transform="translate(-144 -144)"/>
</clipPath>
</defs>
</svg>
