<svg width="512" height="512" viewBox="0 0 512 512" fill="none" xmlns="http://www.w3.org/2000/svg">
<rect width="512" height="512" rx="75" fill="#FF3F3F"/>
<g clip-path="url(#clip0_325_231)">
<path d="M47 256.5C47 311.798 68.9669 364.83 108.068 403.932C147.17 443.033 200.202 465 255.5 465C310.798 465 363.83 443.033 402.932 403.932C442.033 364.83 464 311.798 464 256.5C464 201.202 442.033 148.17 402.932 109.068C363.83 69.9669 310.798 48 255.5 48C200.202 48 147.17 69.9669 108.068 109.068C68.9669 148.17 47 201.202 47 256.5ZM242.469 321.656C242.469 314.489 248.333 308.625 255.5 308.625C292.15 308.625 325.217 325.321 349.732 351.872C354.619 357.166 354.293 365.392 348.999 370.279C343.705 375.166 335.479 374.84 330.593 369.546C310.231 347.474 283.843 334.606 255.419 334.606C248.251 334.606 242.387 328.742 242.387 321.575L242.469 321.656ZM177.312 386.812C155.729 386.812 138.219 369.709 138.219 348.533C138.219 332.244 161.512 299.34 172.1 285.25C174.706 281.667 179.919 281.667 182.525 285.25C193.276 299.34 216.406 332.244 216.406 348.533C216.406 369.709 198.896 386.812 177.312 386.812ZM346.393 217.406C346.393 224.318 343.647 230.948 338.759 235.835C333.872 240.723 327.243 243.469 320.33 243.469C313.418 243.469 306.789 240.723 301.902 235.835C297.014 230.948 294.268 224.318 294.268 217.406C294.268 210.494 297.014 203.865 301.902 198.977C306.789 194.09 313.418 191.344 320.33 191.344C327.243 191.344 333.872 194.09 338.759 198.977C343.647 203.865 346.393 210.494 346.393 217.406ZM190.018 191.344C196.93 191.344 203.559 194.09 208.447 198.977C213.335 203.865 216.08 210.494 216.08 217.406C216.08 224.318 213.335 230.948 208.447 235.835C203.559 240.723 196.93 243.469 190.018 243.469C183.106 243.469 176.477 240.723 171.589 235.835C166.701 230.948 163.955 224.318 163.955 217.406C163.955 210.494 166.701 203.865 171.589 198.977C176.477 194.09 183.106 191.344 190.018 191.344Z" fill="white"/>
</g>
<defs>
<clipPath id="clip0_325_231">
<rect width="417" height="417" fill="white" transform="translate(47 48)"/>
</clipPath>
</defs>
</svg>
