<svg width="800" height="800" viewBox="0 0 800 800" fill="none" xmlns="http://www.w3.org/2000/svg">
<g clip-path="url(#clip0_305_252)">
<path d="M235.385 588.161C273.475 621.511 321.781 643.482 374.995 648.766L375.016 799.233C280.455 793.405 194.783 754.725 129.273 694.465L234.097 589.645L235.385 588.161ZM571.527 581.874L673.742 684.099C675.075 685.432 676.52 686.583 678.054 687.551C611.673 751.754 523.125 793.178 425.006 799.231L425.026 648.763C481.506 643.149 532.455 618.738 571.527 581.874ZM151.228 424.953C155.935 472.453 173.937 516.043 201.484 551.915C200.528 552.629 199.611 553.42 198.742 554.289L94.6591 658.408C40.6432 594.646 6.2407 513.741 0.767151 425.008L149.998 425L151.228 424.953ZM648.768 424.953L649.998 425L799.229 425.008C793.959 510.436 761.875 588.609 711.27 651.219C710.609 650.359 709.885 649.531 709.097 648.743L604.369 544.025C628.599 509.705 644.402 469.01 648.768 424.953ZM399.998 200C510.455 200 599.998 289.543 599.998 400C599.998 510.457 510.455 600 399.998 600C289.541 600 199.998 510.457 199.998 400C199.998 289.543 289.541 200 399.998 200ZM399.443 275C389.667 275 381.72 282.95 381.72 292.719V303.96L376.893 305.182C348.537 313.202 331.248 333.559 331.248 359.626C331.248 394.006 361.099 408.461 387.098 417.21C408.385 424.403 416.678 430.872 416.678 440.279C416.678 449.952 407.109 455.723 391.08 455.723C380.275 455.723 369.246 453.732 358.282 449.816C353.401 448.066 347.831 448.467 343.256 450.891C338.625 453.347 335.228 457.666 333.929 462.723L333.335 465.067L332.829 467.75C331.631 477.578 337.579 487.117 347.254 490.222C357.384 493.466 368.981 495.617 380.219 496.362V507.2L380.381 509.6C381.558 518.237 388.987 524.915 397.935 524.915C407.712 524.915 415.657 516.968 415.657 507.192V493.916L420.206 492.871C449.986 485.196 468.835 463.511 468.835 436.09C468.835 407.755 453.304 390.176 416.957 377.357C391.64 367.829 383.1 362.075 383.1 354.545C383.1 345.747 391.127 340.907 405.719 340.907C414.903 340.907 423.507 342.176 432.015 344.777C436.96 346.302 442.482 345.715 447.009 343.187C451.554 340.635 454.908 336.284 456.209 331.226L456.482 330.151L456.963 327.644C458.242 317.623 451.89 307.904 441.873 305.251C434.423 303.292 426.124 302.009 417.167 301.451V292.719L417.004 290.318C415.829 281.68 408.399 275 399.443 275ZM94.6591 141.592L198.742 245.711L200.077 246.951L201.46 248.049C173.932 283.963 155.928 327.563 151.225 375.073L149.998 375L0.765625 375.018C6.23422 286.275 40.6381 205.36 94.6591 141.592ZM700.791 136.319C757.425 200.872 793.61 283.81 799.231 375.018L649.998 375L648.771 375.073C643.835 325.213 624.251 279.66 594.382 242.777L700.791 136.319ZM375.016 0.767578L374.998 150C374.998 150.425 375.009 150.848 375.071 151.228C321.827 156.498 273.494 178.473 235.443 211.81L234.097 210.355L129.273 105.535C194.783 45.2751 280.455 6.59468 375.016 0.767578ZM425.006 0.769104C517.098 6.44988 600.759 43.2915 665.574 100.88L559.192 207.229C521.973 176.457 475.692 156.258 424.951 151.23L424.998 150L425.006 0.769104Z" fill="white"/>
</g>
<defs>
<clipPath id="clip0_305_252">
<rect width="800" height="800" fill="white"/>
</clipPath>
</defs>
</svg>
