<svg xmlns="http://www.w3.org/2000/svg" width="24" height="24" fill="none" viewBox="0 0 24 24"><mask id="Z_URzPxEDHa" width="20" height="20" x="2" y="2" maskUnits="userSpaceOnUse" style="mask-type:alpha"><path fill="#ff6b6b" fill-rule="evenodd" d="M2 12C2 6.477 6.477 2 12 2s10 4.477 10 10-4.477 10-10 10S2 17.523 2 12m10-7c-.69 0-1.25.56-1.25 1.25v.5a1.25 1.25 0 1 0 2.5 0v-.5C13.25 5.56 12.69 5 12 5m-5.42 7.17a.75.75 0 0 0 1.061 1.06l1.682-1.682a.25.25 0 0 1 .427.177v6.525a.75.75 0 0 0 1.5 0v-4a.75.75 0 0 1 1.5 0v4a.75.75 0 0 0 1.5 0v-6.525a.25.25 0 0 1 .427-.177l1.682 1.682a.75.75 0 1 0 1.06-1.06l-2.583-2.584A2 2 0 0 0 13.42 9h-2.843a2 2 0 0 0-1.414.586z" clip-rule="evenodd"/></mask><g mask="url(#Z_URzPxEDHa)"><path fill="#ff6b6b" stroke="#ff6b6b" stroke-linecap="round" stroke-linejoin="round" stroke-width="1.5" d="M12 21.25a9.25 9.25 0 1 0 0-18.5 9.25 9.25 0 0 0 0 18.5"/></g></svg>