<svg xmlns="http://www.w3.org/2000/svg" width="25" height="24" fill="none" viewBox="0 0 25 24"><mask id="Oy9hPPIa0ga" width="19" height="22" x="3" y="1" maskUnits="userSpaceOnUse" style="mask-type:alpha"><path fill="#D9D9D9" fill-rule="evenodd" d="M22 1H3v22h19zM8.25 5a.75.75 0 0 0-.75.75v4.5c0 .414.336.75.75.75h4.5a.75.75 0 0 0 .75-.75v-4.5a.75.75 0 0 0-.75-.75zm-.75 9.75a.75.75 0 0 1 .75-.75h8.5a.75.75 0 0 1 0 1.5h-8.5a.75.75 0 0 1-.75-.75m.75 2.75a.75.75 0 0 0 0 1.5h4.5a.75.75 0 0 0 0-1.5z" clip-rule="evenodd"/></mask><g mask="url(#Oy9hPPIa0ga)"><path fill="#ff6b6b" stroke="#ff6b6b" stroke-linecap="round" stroke-linejoin="round" stroke-width="1.5" d="M18.75 2.75H6.25a1 1 0 0 0-1 1v16.5a1 1 0 0 0 1 1h12.5a1 1 0 0 0 1-1V3.75a1 1 0 0 0-1-1"/></g></svg>