<svg width="23" height="23" viewBox="0 0 23 23" fill="none" xmlns="http://www.w3.org/2000/svg">
<g clip-path="url(#clip0_231_5)">
<path fill-rule="evenodd" clip-rule="evenodd" d="M8.625 12.4583C9.13333 12.4583 9.62084 12.6603 9.98029 13.0197C10.3397 13.3792 10.5417 13.8667 10.5417 14.375V18.2083C10.5417 18.7167 10.3397 19.2042 9.98029 19.5636C9.62084 19.9231 9.13333 20.125 8.625 20.125H4.79167C4.28333 20.125 3.79582 19.9231 3.43638 19.5636C3.07693 19.2042 2.875 18.7167 2.875 18.2083V14.375C2.875 13.8667 3.07693 13.3792 3.43638 13.0197C3.79582 12.6603 4.28333 12.4583 4.79167 12.4583H8.625ZM18.2083 12.4583C18.7167 12.4583 19.2042 12.6603 19.5636 13.0197C19.9231 13.3792 20.125 13.8667 20.125 14.375V18.2083C20.125 18.7167 19.9231 19.2042 19.5636 19.5636C19.2042 19.9231 18.7167 20.125 18.2083 20.125H14.375C13.8667 20.125 13.3792 19.9231 13.0197 19.5636C12.6603 19.2042 12.4583 18.7167 12.4583 18.2083V14.375C12.4583 13.8667 12.6603 13.3792 13.0197 13.0197C13.3792 12.6603 13.8667 12.4583 14.375 12.4583H18.2083ZM8.625 2.875C9.13333 2.875 9.62084 3.07693 9.98029 3.43638C10.3397 3.79582 10.5417 4.28333 10.5417 4.79167V8.625C10.5417 9.13333 10.3397 9.62084 9.98029 9.98029C9.62084 10.3397 9.13333 10.5417 8.625 10.5417H4.79167C4.28333 10.5417 3.79582 10.3397 3.43638 9.98029C3.07693 9.62084 2.875 9.13333 2.875 8.625V4.79167C2.875 4.28333 3.07693 3.79582 3.43638 3.43638C3.79582 3.07693 4.28333 2.875 4.79167 2.875H8.625ZM18.2083 2.875C18.7167 2.875 19.2042 3.07693 19.5636 3.43638C19.9231 3.79582 20.125 4.28333 20.125 4.79167V8.625C20.125 9.13333 19.9231 9.62084 19.5636 9.98029C19.2042 10.3397 18.7167 10.5417 18.2083 10.5417H14.375C13.8667 10.5417 13.3792 10.3397 13.0197 9.98029C12.6603 9.62084 12.4583 9.13333 12.4583 8.625V4.79167C12.4583 4.28333 12.6603 3.79582 13.0197 3.43638C13.3792 3.07693 13.8667 2.875 14.375 2.875H18.2083Z" fill="white"/>
</g>
<defs>
<clipPath id="clip0_231_5">
<rect width="23" height="23" fill="white"/>
</clipPath>
</defs>
</svg>
