<svg width="512" height="512" viewBox="0 0 512 512" fill="none" xmlns="http://www.w3.org/2000/svg">
<rect width="512" height="512" rx="75" fill="black"/>
<g clip-path="url(#clip0_252_78)">
<path fill-rule="evenodd" clip-rule="evenodd" d="M66.5 19H446.5C472.735 19 494 40.2648 494 66.5V446.5C494 472.735 472.735 494 446.5 494H66.5C40.2648 494 19 472.735 19 446.5V66.5C19 40.2648 40.2648 19 66.5 19Z" fill="#010101"/>
<path fill-rule="evenodd" clip-rule="evenodd" d="M317.262 456C331.715 456 343.432 444.377 343.432 430.042C343.432 415.706 331.715 404.082 317.262 404.082H313.319C327.773 404.082 339.49 415.706 339.49 430.042C339.49 444.377 327.773 456 313.319 456H317.262Z" fill="#EE1D51"/>
<path fill-rule="evenodd" clip-rule="evenodd" d="M312.962 404.082H309.02C294.566 404.082 282.847 415.706 282.847 430.042C282.847 444.377 294.566 456 309.02 456H312.962C298.507 456 286.79 444.377 286.79 430.042C286.79 415.706 298.507 404.082 312.962 404.082Z" fill="#66C8CF"/>
<path d="M313.141 442.664C320.17 442.664 325.869 437.013 325.869 430.043C325.869 423.072 320.17 417.421 313.141 417.421C306.111 417.421 300.413 423.072 300.413 430.043C300.413 437.013 306.111 442.664 313.141 442.664Z" fill="#010101"/>
<path fill-rule="evenodd" clip-rule="evenodd" d="M114 392.35V405.507H129.413V455.644H144.831V405.862H157.377L161.679 392.35H114ZM240.189 392.35V405.507H255.601V455.644H271.02V405.862H283.566L287.867 392.35H240.189ZM164.55 399.817C164.55 395.694 167.914 392.35 172.072 392.35C176.233 392.35 179.601 395.694 179.601 399.817C179.601 403.94 176.235 407.284 172.072 407.284C167.914 407.282 164.55 403.94 164.55 399.817ZM164.55 412.619H179.601V455.644H164.55V412.619ZM186.056 392.35V455.644H201.113V439.289L205.774 435.018L220.47 456H236.601L215.449 425.419L234.449 406.926H216.167L201.113 421.86V392.35H186.056ZM348.449 392.35V455.644H363.508V439.289L368.167 435.018L382.867 456H399L377.847 425.419L396.847 406.926H378.566L363.508 421.86V392.35H348.449Z" fill="white"/>
<path fill-rule="evenodd" clip-rule="evenodd" d="M325.217 173.253C346.011 188.109 371.486 196.851 398.998 196.851V143.934C393.791 143.936 388.598 143.393 383.504 142.314V183.967C355.994 183.967 330.522 175.225 309.723 160.369V268.356C309.723 322.377 265.909 366.166 211.863 366.166C191.699 366.166 172.955 360.073 157.385 349.623C175.155 367.783 199.937 379.05 227.354 379.05C281.403 379.05 325.219 335.261 325.219 281.238L325.217 173.253ZM344.331 119.867C333.705 108.264 326.728 93.267 325.217 76.6876V69.8818H310.534C314.23 90.9528 326.836 108.955 344.331 119.867ZM191.568 308.17C185.631 300.39 182.422 290.871 182.436 281.084C182.436 256.376 202.477 236.345 227.202 236.345C231.809 236.341 236.39 237.048 240.781 238.44V184.342C235.65 183.639 230.471 183.341 225.293 183.451V225.558C220.899 224.166 216.317 223.459 211.708 223.463C186.983 223.463 166.944 243.494 166.944 268.204C166.944 285.674 176.96 300.802 191.568 308.17Z" fill="#EE1D52"/>
<path fill-rule="evenodd" clip-rule="evenodd" d="M309.723 160.369C330.522 175.225 355.994 183.967 383.504 183.967V142.314C368.148 139.046 354.553 131.024 344.331 119.867C326.836 108.955 314.23 90.9528 310.534 69.8818H271.966V281.236C271.879 305.875 251.872 325.825 227.2 325.825C212.661 325.825 199.745 318.9 191.566 308.17C176.958 300.802 166.942 285.674 166.942 268.204C166.942 243.494 186.981 223.463 211.706 223.463C216.442 223.463 221.008 224.2 225.291 225.558V183.451C172.195 184.547 129.493 227.909 129.493 281.238C129.493 307.859 140.127 331.993 157.385 349.625C172.955 360.075 191.699 366.168 211.863 366.168C265.909 366.168 309.723 322.377 309.723 268.358V160.369Z" fill="white"/>
<path fill-rule="evenodd" clip-rule="evenodd" d="M383.504 142.314V131.051C369.655 131.071 356.081 127.195 344.331 119.865C354.732 131.246 368.427 139.094 383.504 142.314ZM310.534 69.882C310.181 67.8685 309.91 65.8414 309.723 63.8058V57H256.47V268.356C256.384 292.993 236.379 312.943 211.706 312.943C204.461 312.943 197.623 311.226 191.566 308.171C199.745 318.9 212.661 325.825 227.2 325.825C251.87 325.825 271.879 305.875 271.966 281.236V69.882H310.534ZM225.293 183.451V171.46C220.843 170.851 216.356 170.547 211.865 170.55C157.814 170.55 114 214.341 114 268.356C114 302.222 131.22 332.067 157.387 349.623C140.129 331.991 129.494 307.857 129.494 281.236C129.494 227.909 172.195 184.547 225.293 183.451Z" fill="#69C9D0"/>
<path fill-rule="evenodd" clip-rule="evenodd" d="M313.318 456C327.771 456 339.49 444.377 339.49 430.042C339.49 415.706 327.771 404.082 313.318 404.082H312.961C298.507 404.082 286.79 415.706 286.79 430.042C286.79 444.377 298.507 456 312.961 456H313.318ZM300.413 430.042C300.413 423.069 306.113 417.42 313.143 417.42C320.167 417.42 325.867 423.069 325.867 430.042C325.867 437.015 320.167 442.667 313.143 442.667C306.113 442.665 300.413 437.015 300.413 430.042Z" fill="white"/>
</g>
<defs>
<clipPath id="clip0_252_78">
<rect width="475" height="475" fill="white" transform="translate(19 19)"/>
</clipPath>
</defs>
</svg>
