<svg width="512" height="512" viewBox="0 0 512 512" fill="none" xmlns="http://www.w3.org/2000/svg">
<rect width="512" height="512" rx="75" fill="#FF0000"/>
<g clip-path="url(#clip0_252_69)">
<path fill-rule="evenodd" clip-rule="evenodd" d="M256 494C387.444 494 494 387.444 494 256C494 124.556 387.444 18 256 18C124.556 18 18 124.556 18 256C18 387.444 124.556 494 256 494Z" fill="#FF0002"/>
<path fill-rule="evenodd" clip-rule="evenodd" d="M223.235 297.451L223.226 207.658L308.965 252.709L223.235 297.451ZM411.493 192.098C411.493 192.098 408.39 170.077 398.879 160.38C386.811 147.646 373.285 147.586 367.087 146.847C322.68 143.611 256.07 143.611 256.07 143.611H255.931C255.931 143.611 189.32 143.611 144.914 146.847C138.706 147.586 125.189 147.646 113.111 160.38C103.601 170.077 100.507 192.098 100.507 192.098C100.507 192.098 97.3335 217.965 97.3335 243.821V268.07C97.3335 293.936 100.507 319.792 100.507 319.792C100.507 319.792 103.601 341.814 113.111 351.511C125.189 364.244 141.046 363.845 148.107 365.173C173.493 367.63 256 368.389 256 368.389C256 368.389 322.68 368.289 367.087 365.053C373.285 364.304 386.811 364.244 398.879 351.511C408.39 341.814 411.493 319.792 411.493 319.792C411.493 319.792 414.667 293.936 414.667 268.07V243.821C414.667 217.965 411.493 192.098 411.493 192.098Z" fill="white"/>
</g>
<defs>
<clipPath id="clip0_252_69">
<rect width="476" height="476" fill="white" transform="translate(18 18)"/>
</clipPath>
</defs>
</svg>
